<?xml version="1.0" encoding="UTF-8"?>
<svg id="Layer_1" data-name="Layer 1" xmlns="http://www.w3.org/2000/svg" viewBox="0 0 497.54 847.01">
  <defs>
    <style>
      .cls-1 {
        stroke-width: 0px;
      }
    </style>
  </defs>
  <path class="cls-1" d="M12.4,21.5c-.3-2-1.5-3-3.5-3-.8,0-1.4.2-1.9.5s-.9.8-1.3,1.3c-.3.5-.5,1.1-.7,1.8-.1.6-.2,1.3-.2,1.9s.1,1.3.2,1.9.3,1.2.6,1.8c.3.5.7.9,1.2,1.3.5.3,1.1.5,1.9.5,1.1,0,2-.3,2.6-.9s1-1.5,1.2-2.6h4.7c-.3,2.3-1.2,4.1-2.7,5.3-1.5,1.2-3.4,1.8-5.7,1.8-1.3,0-2.5-.2-3.6-.6s-2-1.1-2.8-1.8c-.8-.8-1.4-1.7-1.8-2.8-.4-1.1-.6-2.3-.6-3.6s.2-2.6.6-3.7c.4-1.2,1-2.2,1.7-3,.8-.9,1.7-1.5,2.8-2,1.1-.5,2.3-.7,3.8-.7,1,0,2,.1,3,.4,1,.3,1.8.7,2.5,1.2.8.5,1.4,1.2,1.8,2,.5.8.7,1.8.8,2.9h-4.6v.1ZM24.1,24.1c0,.7.1,1.4.2,2,.1.6.4,1.2.7,1.8.3.5.8.9,1.3,1.2.5.3,1.2.5,2,.5s1.5-.2,2-.5c.6-.3,1-.7,1.3-1.2s.6-1.1.7-1.8c.1-.7.2-1.4.2-2,0-.7-.1-1.4-.2-2-.1-.7-.4-1.3-.7-1.8s-.7-.9-1.3-1.2c-.5-.3-1.2-.5-2-.5s-1.5.2-2,.5-1,.7-1.3,1.2-.5,1.1-.7,1.8c-.2.6-.2,1.3-.2,2ZM19.3,24.1c0-1.4.2-2.6.6-3.8.4-1.1,1-2.1,1.8-2.9.8-.8,1.7-1.4,2.8-1.8,1.1-.4,2.3-.7,3.7-.7s2.6.2,3.7.7c1.1.4,2.1,1,2.8,1.8.8.8,1.4,1.7,1.8,2.9.4,1.1.6,2.4.6,3.8s-.2,2.6-.6,3.8c-.4,1.1-1,2.1-1.8,2.9s-1.7,1.4-2.8,1.8-2.3.6-3.7.6-2.6-.2-3.7-.6c-1.1-.4-2-1-2.8-1.8s-1.4-1.8-1.8-2.9c-.4-1.2-.6-2.4-.6-3.8ZM40.5,8.8h4.7v23.9h-4.8V8.8h.1ZM53.2,24.1c0,.7.1,1.4.2,2s.4,1.2.7,1.8c.3.5.8.9,1.3,1.2.5.3,1.2.5,2,.5s1.5-.2,2-.5c.6-.3,1-.7,1.3-1.2s.6-1.1.7-1.8c.1-.7.2-1.4.2-2,0-.7-.1-1.4-.2-2-.1-.7-.4-1.3-.7-1.8-.3-.5-.7-.9-1.3-1.2-.5-.3-1.2-.5-2-.5s-1.5.2-2,.5-1,.7-1.3,1.2-.5,1.1-.7,1.8c-.1.6-.2,1.3-.2,2ZM48.5,24.1c0-1.4.2-2.6.6-3.8.4-1.1,1-2.1,1.8-2.9.8-.8,1.7-1.4,2.8-1.8,1.1-.4,2.3-.7,3.7-.7s2.6.2,3.7.7c1.1.4,2.1,1,2.9,1.8s1.4,1.7,1.8,2.9c.4,1.1.6,2.4.6,3.8s-.2,2.6-.6,3.8c-.4,1.1-1,2.1-1.8,2.9-.8.7-1.8,1.3-2.9,1.7s-2.3.6-3.7.6-2.6-.2-3.7-.6-2-1-2.8-1.8-1.4-1.8-1.8-2.9-.6-2.3-.6-3.7ZM69.5,15.4h4.5v2.4h.1c.6-1,1.4-1.7,2.3-2.2,1-.5,1.9-.7,3-.7,1.3,0,2.3.2,3.1.5.8.3,1.5.8,1.9,1.4.5.6.8,1.4,1,2.2.2.9.3,1.8.3,2.9v10.7h-4.8v-9.8c0-1.4-.2-2.5-.7-3.2-.4-.7-1.2-1.1-2.4-1.1-1.3,0-2.2.4-2.8,1.2-.6.8-.9,2-.9,3.8v9.1h-4.8V15.4h.2ZM98.5,20.7c.1-1.1.3-2,.8-2.8s1.1-1.3,1.9-1.8c.8-.4,1.6-.8,2.5-.9,1-.2,1.9-.3,2.9-.3.9,0,1.8.1,2.6.2.9.1,1.7.3,2.4.7s1.3.9,1.8,1.5.7,1.5.7,2.5v9c0,.8,0,1.5.1,2.2s.2,1.3.5,1.6h-4.8c-.1-.3-.2-.5-.2-.8s-.1-.6-.1-.9c-.8.8-1.7,1.3-2.7,1.6-1,.3-2.1.5-3.2.5-.8,0-1.6-.1-2.3-.3-.7-.2-1.3-.5-1.9-.9-.5-.4-1-1-1.3-1.6s-.4-1.4-.4-2.3c0-1,.2-1.8.5-2.4.4-.6.8-1.2,1.3-1.5.6-.4,1.2-.7,1.9-.8.7-.2,1.4-.4,2.1-.5s1.4-.2,2.1-.3c.7-.1,1.3-.2,1.8-.3s1-.3,1.3-.6.5-.6.4-1.1c0-.5-.1-.9-.3-1.2s-.4-.5-.7-.7-.6-.3-1-.3c-.4-.1-.7-.1-1.2-.1-.9,0-1.7.2-2.2.6-.5.4-.9,1.1-.9,2h-4.4ZM109.5,24.3c-.2.2-.5.3-.8.4s-.6.2-1,.2c-.3.1-.7.1-1.1.2s-.8.1-1.1.2c-.4.1-.7.2-1.1.3-.3.1-.6.3-.9.5-.2.2-.4.4-.6.7-.2.3-.2.7-.2,1.1s.1.8.2,1.1c.2.3.4.5.6.7.3.2.6.3.9.3.4.1.7.1,1.1.1.9,0,1.7-.2,2.2-.5s.9-.7,1.1-1.1c.2-.4.4-.9.4-1.3.1-.4.1-.8.1-1.1v-1.8h.2ZM118,15.4h4.5v2.4h.1c.6-1,1.4-1.7,2.3-2.2,1-.5,1.9-.7,3-.7,1.3,0,2.3.2,3.1.5s1.5.8,1.9,1.4c.5.6.8,1.4,1,2.2.2.9.3,1.8.3,2.9v10.7h-4.8v-9.8c0-1.4-.2-2.5-.7-3.2-.4-.7-1.2-1.1-2.4-1.1-1.3,0-2.2.4-2.8,1.2s-.9,2-.9,3.8v9.1h-4.8V15.4h.2ZM150.1,24c0-.7-.1-1.4-.2-2-.1-.7-.4-1.3-.7-1.7-.3-.5-.7-.9-1.2-1.2s-1.2-.5-1.9-.5c-.8,0-1.4.2-2,.5-.5.3-1,.7-1.3,1.2s-.5,1.1-.7,1.8c-.1.6-.2,1.3-.2,2s.1,1.3.2,2c.2.7.4,1.3.7,1.8.4.5.8.9,1.3,1.3.5.3,1.2.5,1.9.5.8,0,1.4-.2,1.9-.5s1-.7,1.3-1.2.5-1.1.7-1.8c.2-.8.2-1.5.2-2.2ZM150.2,30.5h0c-.6.9-1.4,1.6-2.3,2-.9.4-1.9.6-3.1.6-1.3,0-2.4-.2-3.4-.7s-1.8-1.2-2.4-2c-.6-.9-1.1-1.9-1.4-3-.3-1.1-.5-2.3-.5-3.5s.2-2.3.5-3.4c.3-1.1.8-2.1,1.4-2.9.6-.8,1.5-1.5,2.4-2,1-.5,2.1-.8,3.4-.8,1,0,2,.2,2.9.7.9.4,1.7,1.1,2.2,1.9h.1v-8.7h4.8v23.9h-4.6v-2.1ZM171.4,27.1c0,.5.1,1,.3,1.3.2.4.5.7.8.9.3.2.7.4,1.1.5.4.1.9.2,1.4.2.3,0,.7,0,1-.1.4-.1.7-.2,1-.4.3-.2.6-.4.8-.7.2-.3.3-.6.3-1.1,0-.7-.5-1.3-1.4-1.6-.9-.4-2.3-.7-4-1.1-.7-.2-1.4-.3-2-.5s-1.2-.5-1.7-.8c-.5-.4-.9-.8-1.2-1.3s-.5-1.2-.5-1.9c0-1.1.2-2,.6-2.7.4-.7,1-1.3,1.7-1.7s1.5-.7,2.4-.9,1.8-.3,2.8-.3c.9,0,1.8.1,2.7.3s1.7.5,2.4.9,1.3,1,1.7,1.7c.5.7.7,1.6.8,2.6h-4.5c-.1-.9-.4-1.5-1-1.8s-1.4-.5-2.2-.5c-.3,0-.6,0-.9.1-.3,0-.6.1-.9.2-.2.1-.5.3-.6.5-.2.2-.3.5-.3.8,0,.4.2.8.5,1,.3.3.7.5,1.2.7s1.1.3,1.7.4c.6.1,1.3.3,2,.4.7.2,1.4.3,2,.6.7.2,1.3.5,1.8.9s.9.8,1.2,1.4c.3.5.5,1.2.5,2,0,1.1-.2,2.1-.7,2.9-.4.8-1,1.4-1.8,1.8-.7.5-1.6.8-2.5,1s-1.9.3-2.9.3-2-.1-3-.3c-1-.2-1.8-.5-2.6-1-.7-.5-1.4-1.1-1.8-1.8-.5-.8-.7-1.8-.8-2.9,0,0,4.6,0,4.6,0ZM197.3,22.2c-.2-1.2-.6-2.1-1.2-2.7-.6-.6-1.4-.9-2.6-.9-.8,0-1.4.1-1.9.4-.5.2-.9.6-1.2.9-.3.4-.5.8-.6,1.2s-.2.8-.2,1.1h7.7ZM189.6,25.2c.1,1.5.5,2.7,1.2,3.4s1.7,1,3.1,1c1,0,1.8-.2,2.5-.7s1.1-1,1.3-1.5h4.2c-.7,2.1-1.7,3.6-3.1,4.5-1.4.9-3.1,1.3-5,1.3-1.4,0-2.6-.2-3.7-.6-1.1-.4-2-1.1-2.8-1.9s-1.4-1.8-1.8-2.9c-.4-1.1-.6-2.3-.6-3.7,0-1.3.2-2.5.6-3.6.4-1.1,1-2.1,1.8-2.9.8-.8,1.7-1.5,2.8-1.9,1.1-.5,2.3-.7,3.6-.7,1.5,0,2.8.3,3.9.9,1.1.6,2,1.3,2.7,2.3s1.2,2.1,1.5,3.3.4,2.5.3,3.9h-12.5v-.2ZM205.1,15.4h4.5v2.3h.1c.6-.9,1.4-1.6,2.2-2.1.9-.5,1.9-.7,3.1-.7,1.1,0,2.1.2,3,.6.9.4,1.6,1.2,2.1,2.2.5-.8,1.2-1.4,2.1-2,.9-.6,1.9-.9,3.2-.9.9,0,1.8.1,2.5.3.8.2,1.5.6,2,1.1.6.5,1,1.1,1.3,1.9.3.8.5,1.7.5,2.9v11.6h-4.8v-9.8c0-.6,0-1.1-.1-1.6,0-.5-.2-1-.4-1.3s-.5-.7-.9-.9-.9-.3-1.6-.3-1.2.1-1.6.4c-.4.2-.7.6-1,1-.2.4-.4.9-.5,1.4s-.1,1-.1,1.6v9.7h-4.8v-11.2c0-.5-.1-1-.3-1.4s-.4-.8-.8-1c-.4-.3-1-.4-1.7-.4-.2,0-.5.1-.9.2-.4.1-.7.3-1.1.6-.3.3-.6.7-.9,1.2-.2.5-.4,1.2-.4,2v10.1h-4.8V15.4h.1ZM240.2,12.7h-4.8v-3.9h4.8v3.9ZM235.5,15.4h4.8v17.3h-4.8V15.4ZM243.9,21.5h10.1v4.1h-10.1v-4.1ZM269.4,21.5c-.3-2-1.5-3-3.5-3-.8,0-1.4.2-1.9.5s-.9.8-1.3,1.3c-.3.5-.5,1.1-.7,1.8-.1.6-.2,1.3-.2,1.9s.1,1.3.2,1.9.3,1.2.6,1.8c.3.5.7.9,1.2,1.3.5.3,1.1.5,1.9.5,1.1,0,2-.3,2.6-.9s1-1.5,1.2-2.6h4.6c-.3,2.3-1.2,4.1-2.7,5.3-1.5,1.2-3.4,1.8-5.7,1.8-1.3,0-2.5-.2-3.6-.6s-2-1.1-2.8-1.8c-.8-.8-1.4-1.7-1.8-2.8-.4-1.1-.6-2.3-.6-3.6s.2-2.6.6-3.7c.4-1.2,1-2.2,1.7-3,.8-.9,1.7-1.5,2.8-2,1.1-.5,2.3-.7,3.8-.7,1,0,2,.1,3,.4,1,.3,1.8.7,2.5,1.2.8.5,1.4,1.2,1.8,2,.5.8.7,1.8.8,2.9h-4.5v.1ZM281.1,24.1c0,.7.1,1.4.2,2s.4,1.2.7,1.8c.3.5.8.9,1.3,1.2.5.3,1.2.5,2,.5s1.5-.2,2-.5c.6-.3,1-.7,1.3-1.2s.6-1.1.7-1.8c.1-.7.2-1.4.2-2,0-.7-.1-1.4-.2-2-.1-.7-.4-1.3-.7-1.8-.3-.5-.7-.9-1.3-1.2-.5-.3-1.2-.5-2-.5s-1.5.2-2,.5-1,.7-1.3,1.2-.5,1.1-.7,1.8c-.1.6-.2,1.3-.2,2ZM276.3,24.1c0-1.4.2-2.6.6-3.8.4-1.1,1-2.1,1.8-2.9.8-.8,1.7-1.4,2.8-1.8,1.1-.4,2.3-.7,3.7-.7s2.6.2,3.7.7c1.1.4,2.1,1,2.8,1.8.8.8,1.4,1.7,1.8,2.9.4,1.1.6,2.4.6,3.8s-.2,2.6-.6,3.8c-.4,1.1-1,2.1-1.8,2.9s-1.7,1.4-2.8,1.8c-1.1.4-2.3.6-3.7.6s-2.6-.2-3.7-.6-2-1-2.8-1.8-1.4-1.8-1.8-2.9c-.3-1.2-.6-2.4-.6-3.8ZM297.5,8.8h4.8v23.9h-4.8V8.8ZM310.2,24.1c0,.7.1,1.4.2,2s.4,1.2.7,1.8c.3.5.8.9,1.3,1.2.5.3,1.2.5,2,.5s1.5-.2,2-.5c.6-.3,1-.7,1.3-1.2s.6-1.1.7-1.8c.1-.7.2-1.4.2-2,0-.7-.1-1.4-.2-2-.1-.7-.4-1.3-.7-1.8-.3-.5-.7-.9-1.3-1.2-.5-.3-1.2-.5-2-.5s-1.5.2-2,.5-1,.7-1.3,1.2-.5,1.1-.7,1.8c-.1.6-.2,1.3-.2,2ZM305.5,24.1c0-1.4.2-2.6.6-3.8.4-1.1,1-2.1,1.8-2.9.8-.8,1.7-1.4,2.8-1.8,1.1-.4,2.3-.7,3.7-.7s2.6.2,3.7.7c1.1.4,2.1,1,2.8,1.8.8.8,1.4,1.7,1.8,2.9.4,1.1.6,2.4.6,3.8s-.2,2.6-.6,3.8c-.4,1.1-1,2.1-1.8,2.9s-1.7,1.4-2.8,1.8c-1.1.4-2.3.6-3.7.6s-2.6-.2-3.7-.6-2-1-2.8-1.8-1.4-1.8-1.8-2.9c-.4-1.2-.6-2.4-.6-3.8ZM326.5,15.4h4.5v2.4h.1c.6-1,1.4-1.7,2.3-2.2,1-.5,1.9-.7,2.9-.7,1.3,0,2.3.2,3.1.5.8.3,1.5.8,1.9,1.4.5.6.8,1.4,1,2.2.2.9.3,1.8.3,2.9v10.7h-4.8v-9.8c0-1.4-.2-2.5-.7-3.2-.4-.7-1.2-1.1-2.4-1.1-1.3,0-2.2.4-2.8,1.2-.6.8-.9,2-.9,3.8v9.1h-4.8V15.4h.3Z"/>
  <path class="cls-1" d="M433.46,24.2c0,1.3.1,3,.1,4.9.1,1.9.4,3.7.8,5.5.5,1.7,1.2,3.2,2.3,4.5,1,1.3,2.5,1.9,4.4,1.9,2,0,3.5-.6,4.5-1.9,1.1-1.3,1.8-2.8,2.3-4.5.5-1.8.8-3.6.9-5.5.1-1.9.1-3.6.1-4.9,0-.8,0-1.8-.1-2.9,0-1.2-.1-2.3-.3-3.6-.1-1.2-.3-2.4-.7-3.6-.3-1.2-.7-2.3-1.3-3.2s-1.3-1.7-2.2-2.3-2-.9-3.3-.9-2.4.3-3.3.9c-.8.6-1.6,1.3-2.1,2.3-.5.9-1,2-1.3,3.2s-.5,2.3-.7,3.6c-.1,1.2-.2,2.4-.3,3.6.2,1.1.2,2.1.2,2.9ZM423.96,24.2c0-4.6.5-8.4,1.3-11.5.9-3.1,2.2-5.6,3.8-7.5s3.4-3.2,5.4-4c2.1-.8,4.3-1.2,6.6-1.2s4.6.4,6.6,1.2c2.1.8,3.9,2.1,5.5,4s2.9,4.4,3.8,7.5c.9,3.1,1.4,6.9,1.4,11.5s-.5,8.6-1.4,11.8c-.9,3.1-2.1,5.6-3.8,7.5-1.6,1.9-3.4,3.2-5.5,4s-4.3,1.2-6.6,1.2-4.5-.4-6.6-1.2c-2.1-.8-3.9-2.1-5.4-4-1.6-1.9-2.8-4.4-3.8-7.5-.9-3.2-1.3-7.1-1.3-11.8ZM480.76,12.8h-.2l-12.1,16.3h12.3V12.8ZM480.76,37h-19.8v-8.7L481.36.9h8.5v28.2h6.2v7.8h-6.2v10.9h-9v-10.8h-.1Z"/>
  <path class="cls-1" d="M195.53,334.65H40.07v-152.46h155.47v152.46ZM40.07,532.64h155.47v152.46H40.07v-152.46Z"/>
  <path class="cls-1" d="M115.28,175.65c22.24,0,41.1,7.88,56.61,23.65,15.77,15.5,23.65,34.37,23.65,56.61s-7.88,41.28-23.65,57.05c-15.5,15.5-34.37,23.21-56.61,23.21s-41.28-7.71-57.05-23.21c-15.5-15.77-23.21-34.81-23.21-57.05s7.71-41.1,23.21-56.61c15.86-15.77,34.81-23.65,57.05-23.65ZM114.83,491.81c22.59,0,41.55,7.88,57.05,23.65,15.77,15.77,23.65,34.81,23.65,57.05s-7.88,41.28-23.65,57.05c-15.77,15.5-34.81,23.21-57.05,23.21s-41.28-7.71-57.05-23.21c-15.5-15.77-23.21-34.81-23.21-57.05s7.71-41.28,23.21-57.05c15.77-15.77,34.81-23.65,57.05-23.65Z"/>
  <path class="cls-1" d="M404.79,171.58c22.24,0,41.1,7.71,56.61,23.21,15.5,15.5,23.21,34.28,23.21,56.61s-7.88,41.28-23.65,57.05c-15.5,15.5-34.19,23.21-56.08,23.21s-41.28-7.71-57.05-23.21c-15.5-15.77-23.21-34.81-23.21-57.05s7.71-41.1,23.21-56.61c15.41-15.41,34.46-23.21,56.96-23.21ZM330.82,810.29v-21.26c37.38-16.12,64.49-37.03,81.23-62.9,17.1-25.42,25.6-51.56,25.6-78.31,0-5.49-1.15-9.66-3.37-12.58-2.21-2.57-4.52-3.9-6.73-3.9-1.95,0-4.87,1.15-8.68,3.37-9.39,5.49-20.99,8.24-34.81,8.24-19.05,0-35.61-7.44-49.79-22.24-13.82-14.79-20.82-32.25-20.82-52.18,0-21.26,8.06-39.95,24.18-56.08,16.12-16.12,35.61-24.18,58.47-24.18,27.73,0,51.38,10.81,71.05,32.42,19.67,21.26,29.5,50.58,29.5,87.97,0,46.06-14,86.99-42.08,122.78-27.64,35.79-68.92,62.1-123.76,78.84Z"/>
  <path class="cls-1" d="M343.84,502.98c2.92-10.63,6.29-17.36,10.19-20.29s10.45-4.34,19.84-4.34h100.1c4.16,0,7.62.97,10.19,2.92,2.92,1.95,4.34,4.34,4.34,7.26,0,.97-.35,2.75-.97,5.32-.62,2.57-1.59,4.96-2.92,7.26l-124.82,259.56c-2.57,5.14-5.49,8.86-8.68,11.16-2.92,2.3-6.64,3.37-11.16,3.37-2.57,0-4.7-.18-6.29-.44-1.33,0-2.39-.18-3.37-.53l-31.89-11.6c-4.87-1.95-8.5-4.34-11.16-7.26-2.21-2.92-3.37-6.11-3.37-9.66v-4.34c.35-1.59.97-4.16,1.95-7.71l58.02-230.68ZM306.55,274.25c0-25.16,8.68-45.8,26.13-61.92,17.72-16.12,40.57-24.18,68.65-24.18s51.91,8.06,69.63,24.18c17.72,15.77,26.58,36.41,26.58,61.92s-8.86,46.24-26.58,62.36c-17.72,15.77-40.93,23.65-69.63,23.65s-51.29-7.88-68.65-23.65c-17.36-15.77-26.13-36.59-26.13-62.36Z"/>
  <path class="cls-1" d="M22.79,276.15c0-25.16,8.68-45.8,26.13-61.92,17.72-16.12,40.57-24.18,68.65-24.18s51.73,7.88,69.1,23.65c17.36,15.77,26.13,36.59,26.13,62.36s-8.86,46.6-26.58,62.36c-17.36,15.77-40.31,23.65-68.65,23.65s-51.29-7.88-68.65-23.65c-17.45-15.68-26.13-36.5-26.13-62.28ZM22.79,543.5c0-25.16,8.68-45.8,26.13-61.92,17.72-16.12,40.57-24.18,68.65-24.18s51.73,7.88,69.1,23.65c17.36,15.77,26.13,36.59,26.13,62.36s-8.86,46.6-26.58,62.36c-17.36,15.77-40.31,23.74-68.65,23.74s-51.29-7.88-68.65-23.74c-17.45-15.68-26.13-36.5-26.13-62.28Z"/>
  <path class="cls-1" d="M482.79,333.21h-155.47v-152.46h155.47v152.46ZM327.32,531.2h155.47v152.46c0,22.41-4.25,42.88-12.85,61.39-7.88,19.13-18.78,35.61-32.69,49.52-13.82,13.82-30.39,25.07-49.52,33.66-18.51,9.21-38.27,15.5-59.44,18.78v-71.31c9.92-1.95,19.13-5.94,27.73-11.87,9.21-5.94,17.19-13.2,23.74-21.79,6.64-7.88,11.52-17.19,14.88-27.73,3.28-9.92,4.61-20.11,3.99-30.74h-71.31v-152.37h0Z"/>
</svg>