<?xml version="1.0" encoding="UTF-8"?>
<svg xmlns="http://www.w3.org/2000/svg" viewBox="0 0 553 942.7">
  <defs>
    <style>
      .cls-1 {
        fill: #fff;
        stroke: #000;
        stroke-miterlimit: 10;
      }

      .cls-2 {
        stroke-width: 0px;
      }
    </style>
  </defs>
  <g id="Layer_2" data-name="Layer 2">
    <rect class="cls-1" x=".5" y=".5" width="552" height="941.7"/>
  </g>
  <g id="Layer_1" data-name="Layer 1">
    <path class="cls-2" d="M33.5,62.5c-.3-2-1.5-3-3.5-3-.8,0-1.4.2-1.9.5s-.9.8-1.3,1.3c-.3.5-.5,1.1-.7,1.8-.1.6-.2,1.3-.2,1.9s.1,1.3.2,1.9.3,1.2.6,1.8c.3.5.7.9,1.2,1.3.5.3,1.1.5,1.9.5,1.1,0,2-.3,2.6-.9.6-.6,1-1.5,1.2-2.6h4.7c-.3,2.3-1.2,4.1-2.7,5.3-1.5,1.2-3.4,1.8-5.7,1.8-1.3,0-2.5-.2-3.6-.6s-2-1.1-2.8-1.8c-.8-.8-1.4-1.7-1.8-2.8-.4-1.1-.6-2.3-.6-3.6s.2-2.6.6-3.7c.4-1.2,1-2.2,1.7-3,.8-.9,1.7-1.5,2.8-2,1.1-.5,2.3-.7,3.8-.7,1,0,2,.1,3,.4,1,.3,1.8.7,2.5,1.2.8.5,1.4,1.2,1.8,2,.5.8.7,1.8.8,2.9l-4.6.1h0ZM45.2,65.1c0,.7.1,1.4.2,2,.1.6.4,1.2.7,1.8.3.5.8.9,1.3,1.2.5.3,1.2.5,2,.5s1.5-.2,2-.5c.6-.3,1-.7,1.3-1.2s.6-1.1.7-1.8c.1-.7.2-1.4.2-2,0-.7-.1-1.4-.2-2-.1-.7-.4-1.3-.7-1.8s-.7-.9-1.3-1.2c-.5-.3-1.2-.5-2-.5s-1.5.2-2,.5-1,.7-1.3,1.2-.5,1.1-.7,1.8c-.2.6-.2,1.3-.2,2ZM40.4,65.1c0-1.4.2-2.6.6-3.8.4-1.1,1-2.1,1.8-2.9.8-.8,1.7-1.4,2.8-1.8,1.1-.4,2.3-.7,3.7-.7s2.6.2,3.7.7c1.1.4,2.1,1,2.8,1.8.8.8,1.4,1.7,1.8,2.9.4,1.1.6,2.4.6,3.8s-.2,2.6-.6,3.8c-.4,1.1-1,2.1-1.8,2.9s-1.7,1.4-2.8,1.8-2.3.6-3.7.6-2.6-.2-3.7-.6c-1.1-.4-2-1-2.8-1.8s-1.4-1.8-1.8-2.9c-.4-1.2-.6-2.4-.6-3.8ZM61.6,49.8h4.7v23.9h-4.8v-23.9h.1ZM74.3,65.1c0,.7.1,1.4.2,2s.4,1.2.7,1.8c.3.5.8.9,1.3,1.2.5.3,1.2.5,2,.5s1.5-.2,2-.5c.6-.3,1-.7,1.3-1.2s.6-1.1.7-1.8c.1-.7.2-1.4.2-2,0-.7-.1-1.4-.2-2-.1-.7-.4-1.3-.7-1.8-.3-.5-.7-.9-1.3-1.2-.5-.3-1.2-.5-2-.5s-1.5.2-2,.5-1,.7-1.3,1.2-.5,1.1-.7,1.8c-.1.6-.2,1.3-.2,2ZM69.6,65.1c0-1.4.2-2.6.6-3.8.4-1.1,1-2.1,1.8-2.9.8-.8,1.7-1.4,2.8-1.8,1.1-.4,2.3-.7,3.7-.7s2.6.2,3.7.7c1.1.4,2.1,1,2.9,1.8s1.4,1.7,1.8,2.9c.4,1.1.6,2.4.6,3.8s-.2,2.6-.6,3.8c-.4,1.1-1,2.1-1.8,2.9-.8.7-1.8,1.3-2.9,1.7s-2.3.6-3.7.6-2.6-.2-3.7-.6-2-1-2.8-1.8-1.4-1.8-1.8-2.9-.6-2.3-.6-3.7ZM90.6,56.4h4.5v2.4h.1c.6-1,1.4-1.7,2.3-2.2,1-.5,1.9-.7,3-.7,1.3,0,2.3.2,3.1.5.8.3,1.5.8,1.9,1.4.5.6.8,1.4,1,2.2.2.9.3,1.8.3,2.9v10.7h-4.8v-9.8c0-1.4-.2-2.5-.7-3.2-.4-.7-1.2-1.1-2.4-1.1-1.3,0-2.2.4-2.8,1.2-.6.8-.9,2-.9,3.8v9.1h-4.8v-17.2h.2ZM119.6,61.7c.1-1.1.3-2,.8-2.8s1.1-1.3,1.9-1.8c.8-.4,1.6-.8,2.5-.9,1-.2,1.9-.3,2.9-.3.9,0,1.8.1,2.6.2.9.1,1.7.3,2.4.7s1.3.9,1.8,1.5.7,1.5.7,2.5v9c0,.8,0,1.5.1,2.2s.2,1.3.5,1.6h-4.8c-.1-.3-.2-.5-.2-.8s-.1-.6-.1-.9c-.8.8-1.7,1.3-2.7,1.6-1,.3-2.1.5-3.2.5-.8,0-1.6-.1-2.3-.3-.7-.2-1.3-.5-1.9-.9-.5-.4-1-1-1.3-1.6s-.4-1.4-.4-2.3c0-1,.2-1.8.5-2.4.4-.6.8-1.2,1.3-1.5.6-.4,1.2-.7,1.9-.8.7-.2,1.4-.4,2.1-.5s1.4-.2,2.1-.3,1.3-.2,1.8-.3c.5-.1,1-.3,1.3-.6s.5-.6.4-1.1c0-.5-.1-.9-.3-1.2s-.4-.5-.7-.7-.6-.3-1-.3c-.4-.1-.7-.1-1.2-.1-.9,0-1.7.2-2.2.6-.5.4-.9,1.1-.9,2h-4.4ZM130.6,65.3c-.2.2-.5.3-.8.4s-.6.2-1,.2c-.3.1-.7.1-1.1.2s-.8.1-1.1.2c-.4.1-.7.2-1.1.3-.3.1-.6.3-.9.5-.2.2-.4.4-.6.7-.2.3-.2.7-.2,1.1s.1.8.2,1.1c.2.3.4.5.6.7.3.2.6.3.9.3.4.1.7.1,1.1.1.9,0,1.7-.2,2.2-.5s.9-.7,1.1-1.1c.2-.4.4-.9.4-1.3.1-.4.1-.8.1-1.1v-1.8h.2ZM139.1,56.4h4.5v2.4h.1c.6-1,1.4-1.7,2.3-2.2,1-.5,1.9-.7,3-.7,1.3,0,2.3.2,3.1.5s1.5.8,1.9,1.4c.5.6.8,1.4,1,2.2.2.9.3,1.8.3,2.9v10.7h-4.8v-9.8c0-1.4-.2-2.5-.7-3.2-.4-.7-1.2-1.1-2.4-1.1-1.3,0-2.2.4-2.8,1.2s-.9,2-.9,3.8v9.1h-4.8v-17.2h.2ZM171.2,65c0-.7-.1-1.4-.2-2-.1-.7-.4-1.3-.7-1.7-.3-.5-.7-.9-1.2-1.2s-1.2-.5-1.9-.5c-.8,0-1.4.2-2,.5-.5.3-1,.7-1.3,1.2s-.5,1.1-.7,1.8c-.1.6-.2,1.3-.2,2s.1,1.3.2,2c.2.7.4,1.3.7,1.8.4.5.8.9,1.3,1.3.5.3,1.2.5,1.9.5.8,0,1.4-.2,1.9-.5s1-.7,1.3-1.2.5-1.1.7-1.8c.2-.8.2-1.5.2-2.2ZM171.3,71.5h0c-.6.9-1.4,1.6-2.3,2-.9.4-1.9.6-3.1.6-1.3,0-2.4-.2-3.4-.7s-1.8-1.2-2.4-2c-.6-.9-1.1-1.9-1.4-3-.3-1.1-.5-2.3-.5-3.5s.2-2.3.5-3.4c.3-1.1.8-2.1,1.4-2.9.6-.8,1.5-1.5,2.4-2,1-.5,2.1-.8,3.4-.8,1,0,2,.2,2.9.7.9.4,1.7,1.1,2.2,1.9h.1v-8.7h4.8v23.9h-4.6v-2.1h0ZM192.5,68.1c0,.5.1,1,.3,1.3.2.4.5.7.8.9.3.2.7.4,1.1.5.4.1.9.2,1.4.2.3,0,.7,0,1-.1.4-.1.7-.2,1-.4.3-.2.6-.4.8-.7.2-.3.3-.6.3-1.1,0-.7-.5-1.3-1.4-1.6-.9-.4-2.3-.7-4-1.1-.7-.2-1.4-.3-2-.5s-1.2-.5-1.7-.8c-.5-.4-.9-.8-1.2-1.3s-.5-1.2-.5-1.9c0-1.1.2-2,.6-2.7.4-.7,1-1.3,1.7-1.7s1.5-.7,2.4-.9,1.8-.3,2.8-.3c.9,0,1.8.1,2.7.3s1.7.5,2.4.9,1.3,1,1.7,1.7c.5.7.7,1.6.8,2.6h-4.5c-.1-.9-.4-1.5-1-1.8s-1.4-.5-2.2-.5c-.3,0-.6,0-.9.1-.3,0-.6.1-.9.2-.2.1-.5.3-.6.5-.2.2-.3.5-.3.8,0,.4.2.8.5,1,.3.3.7.5,1.2.7s1.1.3,1.7.4c.6.1,1.3.3,2,.4.7.2,1.4.3,2,.6.7.2,1.3.5,1.8.9s.9.8,1.2,1.4c.3.5.5,1.2.5,2,0,1.1-.2,2.1-.7,2.9-.4.8-1,1.4-1.8,1.8-.7.5-1.6.8-2.5,1s-1.9.3-2.9.3-2-.1-3-.3c-1-.2-1.8-.5-2.6-1-.7-.5-1.4-1.1-1.8-1.8-.5-.8-.7-1.8-.8-2.9,0,0,4.6,0,4.6,0ZM218.4,63.2c-.2-1.2-.6-2.1-1.2-2.7-.6-.6-1.4-.9-2.6-.9-.8,0-1.4.1-1.9.4-.5.2-.9.6-1.2.9-.3.4-.5.8-.6,1.2s-.2.8-.2,1.1h7.7ZM210.7,66.2c.1,1.5.5,2.7,1.2,3.4s1.7,1,3.1,1c1,0,1.8-.2,2.5-.7s1.1-1,1.3-1.5h4.2c-.7,2.1-1.7,3.6-3.1,4.5-1.4.9-3.1,1.3-5,1.3-1.4,0-2.6-.2-3.7-.6-1.1-.4-2-1.1-2.8-1.9s-1.4-1.8-1.8-2.9c-.4-1.1-.6-2.3-.6-3.7,0-1.3.2-2.5.6-3.6.4-1.1,1-2.1,1.8-2.9.8-.8,1.7-1.5,2.8-1.9,1.1-.5,2.3-.7,3.6-.7,1.5,0,2.8.3,3.9.9,1.1.6,2,1.3,2.7,2.3s1.2,2.1,1.5,3.3.4,2.5.3,3.9h-12.5v-.2ZM226.2,56.4h4.5v2.3h.1c.6-.9,1.4-1.6,2.2-2.1.9-.5,1.9-.7,3.1-.7,1.1,0,2.1.2,3,.6.9.4,1.6,1.2,2.1,2.2.5-.8,1.2-1.4,2.1-2,.9-.6,1.9-.9,3.2-.9.9,0,1.8.1,2.5.3.8.2,1.5.6,2,1.1.6.5,1,1.1,1.3,1.9.3.8.5,1.7.5,2.9v11.6h-4.8v-9.8c0-.6,0-1.1-.1-1.6,0-.5-.2-1-.4-1.3s-.5-.7-.9-.9-.9-.3-1.6-.3-1.2.1-1.6.4c-.4.2-.7.6-1,1-.2.4-.4.9-.5,1.4s-.1,1-.1,1.6v9.7h-4.8v-11.2c0-.5-.1-1-.3-1.4s-.4-.8-.8-1c-.4-.3-1-.4-1.7-.4-.2,0-.5.1-.9.2-.4.1-.7.3-1.1.6-.3.3-.6.7-.9,1.2-.2.5-.4,1.2-.4,2v10.1h-4.8v-17.5h.1ZM261.3,53.7h-4.8v-3.9h4.8v3.9ZM256.6,56.4h4.8v17.3h-4.8v-17.3ZM265,62.5h10.1v4.1h-10.1v-4.1ZM290.5,62.5c-.3-2-1.5-3-3.5-3-.8,0-1.4.2-1.9.5s-.9.8-1.3,1.3c-.3.5-.5,1.1-.7,1.8-.1.6-.2,1.3-.2,1.9s.1,1.3.2,1.9.3,1.2.6,1.8c.3.5.7.9,1.2,1.3.5.3,1.1.5,1.9.5,1.1,0,2-.3,2.6-.9s1-1.5,1.2-2.6h4.6c-.3,2.3-1.2,4.1-2.7,5.3-1.5,1.2-3.4,1.8-5.7,1.8-1.3,0-2.5-.2-3.6-.6s-2-1.1-2.8-1.8c-.8-.8-1.4-1.7-1.8-2.8-.4-1.1-.6-2.3-.6-3.6s.2-2.6.6-3.7c.4-1.2,1-2.2,1.7-3,.8-.9,1.7-1.5,2.8-2,1.1-.5,2.3-.7,3.8-.7,1,0,2,.1,3,.4,1,.3,1.8.7,2.5,1.2.8.5,1.4,1.2,1.8,2,.5.8.7,1.8.8,2.9l-4.5.1h0ZM302.2,65.1c0,.7.1,1.4.2,2s.4,1.2.7,1.8c.3.5.8.9,1.3,1.2.5.3,1.2.5,2,.5s1.5-.2,2-.5c.6-.3,1-.7,1.3-1.2s.6-1.1.7-1.8c.1-.7.2-1.4.2-2,0-.7-.1-1.4-.2-2-.1-.7-.4-1.3-.7-1.8-.3-.5-.7-.9-1.3-1.2-.5-.3-1.2-.5-2-.5s-1.5.2-2,.5-1,.7-1.3,1.2-.5,1.1-.7,1.8c-.1.6-.2,1.3-.2,2ZM297.4,65.1c0-1.4.2-2.6.6-3.8.4-1.1,1-2.1,1.8-2.9.8-.8,1.7-1.4,2.8-1.8,1.1-.4,2.3-.7,3.7-.7s2.6.2,3.7.7c1.1.4,2.1,1,2.8,1.8.8.8,1.4,1.7,1.8,2.9.4,1.1.6,2.4.6,3.8s-.2,2.6-.6,3.8c-.4,1.1-1,2.1-1.8,2.9s-1.7,1.4-2.8,1.8c-1.1.4-2.3.6-3.7.6s-2.6-.2-3.7-.6-2-1-2.8-1.8-1.4-1.8-1.8-2.9c-.3-1.2-.6-2.4-.6-3.8ZM318.6,49.8h4.8v23.9h-4.8v-23.9ZM331.3,65.1c0,.7.1,1.4.2,2s.4,1.2.7,1.8c.3.5.8.9,1.3,1.2.5.3,1.2.5,2,.5s1.5-.2,2-.5c.6-.3,1-.7,1.3-1.2s.6-1.1.7-1.8c.1-.7.2-1.4.2-2,0-.7-.1-1.4-.2-2-.1-.7-.4-1.3-.7-1.8-.3-.5-.7-.9-1.3-1.2-.5-.3-1.2-.5-2-.5s-1.5.2-2,.5-1,.7-1.3,1.2-.5,1.1-.7,1.8c-.1.6-.2,1.3-.2,2ZM326.6,65.1c0-1.4.2-2.6.6-3.8.4-1.1,1-2.1,1.8-2.9.8-.8,1.7-1.4,2.8-1.8,1.1-.4,2.3-.7,3.7-.7s2.6.2,3.7.7c1.1.4,2.1,1,2.8,1.8.8.8,1.4,1.7,1.8,2.9.4,1.1.6,2.4.6,3.8s-.2,2.6-.6,3.8c-.4,1.1-1,2.1-1.8,2.9s-1.7,1.4-2.8,1.8c-1.1.4-2.3.6-3.7.6s-2.6-.2-3.7-.6-2-1-2.8-1.8-1.4-1.8-1.8-2.9c-.4-1.2-.6-2.4-.6-3.8ZM347.6,56.4h4.5v2.4h.1c.6-1,1.4-1.7,2.3-2.2,1-.5,1.9-.7,2.9-.7,1.3,0,2.3.2,3.1.5.8.3,1.5.8,1.9,1.4.5.6.8,1.4,1,2.2.2.9.3,1.8.3,2.9v10.7h-4.8v-9.8c0-1.4-.2-2.5-.7-3.2-.4-.7-1.2-1.1-2.4-1.1-1.3,0-2.2.4-2.8,1.2-.6.8-.9,2-.9,3.8v9.1h-4.8v-17.2h.3Z"/>
    <path class="cls-2" d="M454.6,65.2c0,1.3.1,3,.1,4.9.1,1.9.4,3.7.8,5.5.5,1.7,1.2,3.2,2.3,4.5,1,1.3,2.5,1.9,4.4,1.9,2,0,3.5-.6,4.5-1.9,1.1-1.3,1.8-2.8,2.3-4.5.5-1.8.8-3.6.9-5.5s.1-3.6.1-4.9c0-.8,0-1.8-.1-2.9,0-1.2-.1-2.3-.3-3.6-.1-1.2-.3-2.4-.7-3.6-.3-1.2-.7-2.3-1.3-3.2s-1.3-1.7-2.2-2.3-2-.9-3.3-.9-2.4.3-3.3.9c-.8.6-1.6,1.3-2.1,2.3-.5.9-1,2-1.3,3.2s-.5,2.3-.7,3.6c-.1,1.2-.2,2.4-.3,3.6.2,1.1.2,2.1.2,2.9ZM445.1,65.2c0-4.6.5-8.4,1.3-11.5.9-3.1,2.2-5.6,3.8-7.5s3.4-3.2,5.4-4c2.1-.8,4.3-1.2,6.6-1.2s4.6.4,6.6,1.2c2.1.8,3.9,2.1,5.5,4s2.9,4.4,3.8,7.5,1.4,6.9,1.4,11.5-.5,8.6-1.4,11.8c-.9,3.1-2.1,5.6-3.8,7.5-1.6,1.9-3.4,3.2-5.5,4s-4.3,1.2-6.6,1.2-4.5-.4-6.6-1.2c-2.1-.8-3.9-2.1-5.4-4-1.6-1.9-2.8-4.4-3.8-7.5-.9-3.2-1.3-7.1-1.3-11.8ZM501.9,53.8h-.2l-12.1,16.3h12.3v-16.3h0ZM501.9,78h-19.8v-8.7l20.4-27.4h8.5v28.2h6.2v7.8h-6.2v10.9h-9v-10.8h-.1Z"/>
    <path class="cls-2" d="M209.8,397.3H54.4v-152.5h155.5v152.5h-.1ZM54.4,595.3h155.5v152.5H54.4v-152.5Z"/>
    <path class="cls-2" d="M129.6,238.3c22.2,0,41.1,7.9,56.6,23.7,15.8,15.5,23.7,34.4,23.7,56.6s-7.9,41.3-23.7,57c-15.5,15.5-34.4,23.2-56.6,23.2s-41.3-7.7-57-23.2c-15.5-15.8-23.2-34.8-23.2-57s7.7-41.1,23.2-56.6c15.8-15.8,34.7-23.7,57-23.7ZM129.1,554.4c22.6,0,41.5,7.9,57,23.7,15.8,15.8,23.7,34.8,23.7,57s-7.9,41.3-23.7,57c-15.8,15.5-34.8,23.2-57,23.2s-41.3-7.7-57-23.2c-15.5-15.8-23.2-34.8-23.2-57s7.7-41.3,23.2-57c15.7-15.8,34.8-23.7,57-23.7Z"/>
    <path class="cls-2" d="M393.1,236.1c22.2,0,41.1,7.7,56.6,23.2,15.5,15.5,23.2,34.3,23.2,56.6s-7.9,41.3-23.7,57c-15.5,15.5-34.2,23.2-56.1,23.2s-41.3-7.7-57-23.2c-15.5-15.8-23.2-34.8-23.2-57s7.7-41.1,23.2-56.6c15.4-15.4,34.5-23.2,57-23.2ZM319.1,874.8v-21.3c37.4-16.1,64.5-37,81.2-62.9,17.1-25.4,25.6-51.6,25.6-78.3,0-5.5-1.2-9.7-3.4-12.6-2.2-2.6-4.5-3.9-6.7-3.9-1.9,0-4.9,1.2-8.7,3.4-9.4,5.5-21,8.2-34.8,8.2-19,0-35.6-7.4-49.8-22.2-13.8-14.8-20.8-32.2-20.8-52.2,0-21.3,8.1-40,24.2-56.1s35.6-24.2,58.5-24.2c27.7,0,51.4,10.8,71,32.4,19.7,21.3,29.5,50.6,29.5,88,0,46.1-14,87-42.1,122.8-27.6,35.9-68.9,62.2-123.7,78.9Z"/>
    <path class="cls-2" d="M332.1,567.5c2.9-10.6,6.3-17.4,10.2-20.3s10.5-4.3,19.8-4.3h100.1c4.2,0,7.6,1,10.2,2.9,2.9,1.9,4.3,4.3,4.3,7.3,0,1-.4,2.7-1,5.3s-1.6,5-2.9,7.3l-124.7,259.5c-2.6,5.1-5.5,8.9-8.7,11.2-2.9,2.3-6.6,3.4-11.2,3.4-2.6,0-4.7-.2-6.3-.4-1.3,0-2.4-.2-3.4-.5l-31.9-11.6c-4.9-1.9-8.5-4.3-11.2-7.3-2.2-2.9-3.4-6.1-3.4-9.7v-4.3c.4-1.6,1-4.2,1.9-7.7l58.2-230.8ZM294.8,338.8c0-25.2,8.7-45.8,26.1-61.9,17.7-16.1,40.6-24.2,68.7-24.2s51.9,8.1,69.6,24.2c17.7,15.8,26.6,36.4,26.6,61.9s-8.9,46.2-26.6,62.4c-17.7,15.8-40.9,23.7-69.6,23.7s-51.3-7.9-68.7-23.7c-17.3-15.8-26.1-36.7-26.1-62.4Z"/>
    <path class="cls-2" d="M37.1,338.8c0-25.2,8.7-45.8,26.1-61.9,17.7-16.1,40.6-24.2,68.7-24.2s51.7,7.9,69.1,23.7,26.1,36.6,26.1,62.4-8.9,46.6-26.6,62.4c-17.4,15.8-40.3,23.7-68.7,23.7s-51.3-7.9-68.7-23.7c-17.3-15.8-26-36.7-26-62.4ZM37.1,606.1c0-25.2,8.7-45.8,26.1-61.9,17.7-16.1,40.6-24.2,68.7-24.2s51.7,7.9,69.1,23.7,26.1,36.6,26.1,62.4-8.9,46.6-26.6,62.4c-17.4,15.8-40.3,23.7-68.7,23.7s-51.3-7.9-68.7-23.7c-17.3-15.8-26-36.6-26-62.4Z"/>
    <path class="cls-2" d="M471.1,397.7h-155.5v-152.4h155.5v152.4ZM315.6,595.7h155.5v152.5c0,22.4-4.3,42.9-12.8,61.4-7.9,19.1-18.8,35.6-32.7,49.5s-30.4,25.1-49.5,33.7c-18.5,9.2-38.3,15.5-59.4,18.8v-71.3c9.9-1.9,19.1-5.9,27.7-11.9,9.2-5.9,17.2-13.2,23.7-21.8,6.6-7.9,11.5-17.2,14.9-27.7,3.3-9.9,4.6-20.1,4-30.7h-71.3l-.1-152.5h0Z"/>
  </g>
</svg>