<svg width="1393" height="1366" viewBox="0 0 1393 1366" fill="none" xmlns="http://www.w3.org/2000/svg">
<g filter="url(#filter0_d_8_74)">
<rect x="210.134" y="411.325" width="981.369" height="918.776" fill="white"/>
</g>
<path d="M248.338 473.33C248.025 471.341 246.851 470.346 244.817 470.346C244.057 470.346 243.42 470.525 242.905 470.882C242.391 471.218 241.967 471.665 241.631 472.224C241.318 472.76 241.095 473.364 240.961 474.034C240.827 474.683 240.759 475.331 240.759 475.979C240.759 476.605 240.827 477.242 240.961 477.891C241.095 478.539 241.307 479.131 241.598 479.668C241.911 480.182 242.324 480.607 242.838 480.942C243.353 481.277 243.979 481.445 244.716 481.445C245.856 481.445 246.728 481.132 247.332 480.506C247.958 479.858 248.349 478.997 248.505 477.924H253.099C252.786 480.227 251.892 481.982 250.417 483.189C248.941 484.396 247.052 484.999 244.75 484.999C243.453 484.999 242.257 484.787 241.162 484.362C240.089 483.915 239.172 483.3 238.412 482.518C237.652 481.736 237.06 480.808 236.635 479.735C236.21 478.639 235.998 477.444 235.998 476.147C235.998 474.806 236.188 473.565 236.568 472.425C236.97 471.262 237.552 470.268 238.312 469.441C239.072 468.591 239.999 467.932 241.095 467.462C242.19 466.993 243.442 466.758 244.85 466.758C245.879 466.758 246.862 466.892 247.801 467.16C248.762 467.429 249.612 467.842 250.35 468.401C251.11 468.938 251.724 469.619 252.194 470.447C252.663 471.251 252.932 472.213 252.999 473.33H248.338ZM260.014 475.912C260.014 476.605 260.081 477.287 260.215 477.958C260.349 478.606 260.573 479.198 260.886 479.735C261.221 480.249 261.657 480.663 262.194 480.976C262.73 481.289 263.401 481.445 264.206 481.445C265.01 481.445 265.681 481.289 266.218 480.976C266.776 480.663 267.212 480.249 267.525 479.735C267.861 479.198 268.095 478.606 268.229 477.958C268.364 477.287 268.431 476.605 268.431 475.912C268.431 475.219 268.364 474.537 268.229 473.867C268.095 473.196 267.861 472.604 267.525 472.09C267.212 471.575 266.776 471.162 266.218 470.849C265.681 470.514 265.01 470.346 264.206 470.346C263.401 470.346 262.73 470.514 262.194 470.849C261.657 471.162 261.221 471.575 260.886 472.09C260.573 472.604 260.349 473.196 260.215 473.867C260.081 474.537 260.014 475.219 260.014 475.912ZM255.253 475.912C255.253 474.526 255.465 473.274 255.89 472.157C256.314 471.017 256.918 470.055 257.7 469.273C258.483 468.468 259.422 467.853 260.517 467.429C261.612 466.982 262.842 466.758 264.206 466.758C265.569 466.758 266.799 466.982 267.894 467.429C269.012 467.853 269.962 468.468 270.744 469.273C271.527 470.055 272.13 471.017 272.555 472.157C272.98 473.274 273.192 474.526 273.192 475.912C273.192 477.298 272.98 478.55 272.555 479.668C272.13 480.786 271.527 481.747 270.744 482.552C269.962 483.334 269.012 483.938 267.894 484.362C266.799 484.787 265.569 484.999 264.206 484.999C262.842 484.999 261.612 484.787 260.517 484.362C259.422 483.938 258.483 483.334 257.7 482.552C256.918 481.747 256.314 480.786 255.89 479.668C255.465 478.55 255.253 477.298 255.253 475.912ZM276.422 460.622H281.184V484.563H276.422V460.622ZM289.158 475.912C289.158 476.605 289.225 477.287 289.359 477.958C289.493 478.606 289.717 479.198 290.03 479.735C290.365 480.249 290.801 480.663 291.338 480.976C291.874 481.289 292.545 481.445 293.35 481.445C294.154 481.445 294.825 481.289 295.362 480.976C295.92 480.663 296.356 480.249 296.669 479.735C297.005 479.198 297.239 478.606 297.373 477.958C297.508 477.287 297.575 476.605 297.575 475.912C297.575 475.219 297.508 474.537 297.373 473.867C297.239 473.196 297.005 472.604 296.669 472.09C296.356 471.575 295.92 471.162 295.362 470.849C294.825 470.514 294.154 470.346 293.35 470.346C292.545 470.346 291.874 470.514 291.338 470.849C290.801 471.162 290.365 471.575 290.03 472.09C289.717 472.604 289.493 473.196 289.359 473.867C289.225 474.537 289.158 475.219 289.158 475.912ZM284.397 475.912C284.397 474.526 284.609 473.274 285.034 472.157C285.458 471.017 286.062 470.055 286.844 469.273C287.627 468.468 288.566 467.853 289.661 467.429C290.756 466.982 291.986 466.758 293.35 466.758C294.713 466.758 295.943 466.982 297.038 467.429C298.156 467.853 299.106 468.468 299.888 469.273C300.671 470.055 301.274 471.017 301.699 472.157C302.124 473.274 302.336 474.526 302.336 475.912C302.336 477.298 302.124 478.55 301.699 479.668C301.274 480.786 300.671 481.747 299.888 482.552C299.106 483.334 298.156 483.938 297.038 484.362C295.943 484.787 294.713 484.999 293.35 484.999C291.986 484.999 290.756 484.787 289.661 484.362C288.566 483.938 287.627 483.334 286.844 482.552C286.062 481.747 285.458 480.786 285.034 479.668C284.609 478.55 284.397 477.298 284.397 475.912ZM305.432 467.227H309.959V469.642H310.06C310.663 468.636 311.446 467.909 312.407 467.462C313.368 466.993 314.352 466.758 315.358 466.758C316.632 466.758 317.671 466.937 318.476 467.295C319.303 467.63 319.951 468.11 320.421 468.736C320.89 469.34 321.214 470.089 321.393 470.983C321.595 471.855 321.695 472.827 321.695 473.9V484.563H316.934V474.772C316.934 473.341 316.71 472.28 316.263 471.587C315.816 470.871 315.022 470.514 313.882 470.514C312.586 470.514 311.647 470.905 311.065 471.687C310.484 472.447 310.194 473.71 310.194 475.476V484.563H305.432V467.227ZM334.44 472.559C334.507 471.441 334.787 470.514 335.279 469.776C335.771 469.038 336.396 468.446 337.156 467.999C337.917 467.552 338.766 467.239 339.705 467.06C340.666 466.859 341.627 466.758 342.589 466.758C343.461 466.758 344.344 466.825 345.238 466.959C346.132 467.071 346.948 467.306 347.686 467.663C348.423 468.021 349.027 468.524 349.496 469.172C349.966 469.798 350.2 470.637 350.2 471.687V480.707C350.2 481.49 350.245 482.239 350.335 482.954C350.424 483.669 350.58 484.206 350.804 484.563H345.975C345.886 484.295 345.808 484.027 345.741 483.759C345.696 483.468 345.662 483.177 345.64 482.887C344.88 483.669 343.986 484.217 342.958 484.53C341.929 484.843 340.879 484.999 339.806 484.999C338.978 484.999 338.207 484.899 337.492 484.698C336.776 484.496 336.151 484.183 335.614 483.759C335.078 483.334 334.653 482.797 334.34 482.149C334.049 481.501 333.904 480.73 333.904 479.835C333.904 478.852 334.072 478.047 334.407 477.421C334.765 476.773 335.212 476.259 335.748 475.879C336.307 475.499 336.933 475.219 337.626 475.04C338.341 474.839 339.057 474.683 339.772 474.571C340.487 474.459 341.192 474.37 341.885 474.303C342.577 474.236 343.192 474.135 343.729 474.001C344.265 473.867 344.69 473.677 345.003 473.431C345.316 473.163 345.461 472.783 345.439 472.291C345.439 471.777 345.349 471.374 345.171 471.084C345.014 470.771 344.791 470.536 344.5 470.379C344.232 470.201 343.908 470.089 343.528 470.044C343.17 469.977 342.779 469.944 342.354 469.944C341.415 469.944 340.677 470.145 340.141 470.547C339.604 470.95 339.291 471.62 339.202 472.559H334.44ZM345.439 476.08C345.238 476.259 344.981 476.404 344.668 476.516C344.377 476.605 344.053 476.683 343.695 476.751C343.36 476.818 343.002 476.873 342.622 476.918C342.242 476.963 341.862 477.019 341.482 477.086C341.124 477.153 340.767 477.242 340.409 477.354C340.074 477.466 339.772 477.622 339.504 477.824C339.258 478.002 339.057 478.237 338.9 478.528C338.744 478.818 338.665 479.187 338.665 479.634C338.665 480.059 338.744 480.417 338.9 480.707C339.057 480.998 339.269 481.233 339.537 481.411C339.806 481.568 340.118 481.68 340.476 481.747C340.834 481.814 341.203 481.847 341.583 481.847C342.522 481.847 343.248 481.691 343.762 481.378C344.276 481.065 344.656 480.696 344.902 480.271C345.148 479.824 345.294 479.377 345.338 478.93C345.405 478.483 345.439 478.125 345.439 477.857V476.08ZM353.896 467.227H358.423V469.642H358.524C359.127 468.636 359.91 467.909 360.871 467.462C361.832 466.993 362.816 466.758 363.822 466.758C365.096 466.758 366.135 466.937 366.94 467.295C367.767 467.63 368.416 468.11 368.885 468.736C369.355 469.34 369.679 470.089 369.857 470.983C370.059 471.855 370.159 472.827 370.159 473.9V484.563H365.398V474.772C365.398 473.341 365.174 472.28 364.727 471.587C364.28 470.871 363.486 470.514 362.346 470.514C361.05 470.514 360.111 470.905 359.53 471.687C358.948 472.447 358.658 473.71 358.658 475.476V484.563H353.896V467.227ZM386.079 475.845C386.079 475.13 386.012 474.448 385.878 473.8C385.744 473.129 385.509 472.548 385.174 472.056C384.861 471.542 384.447 471.128 383.933 470.815C383.419 470.502 382.771 470.346 381.988 470.346C381.206 470.346 380.547 470.502 380.01 470.815C379.474 471.128 379.038 471.542 378.702 472.056C378.389 472.57 378.155 473.163 377.998 473.833C377.864 474.482 377.797 475.163 377.797 475.879C377.797 476.549 377.875 477.22 378.032 477.891C378.188 478.561 378.434 479.165 378.769 479.701C379.127 480.215 379.563 480.64 380.077 480.976C380.614 481.289 381.251 481.445 381.988 481.445C382.771 481.445 383.419 481.289 383.933 480.976C384.47 480.663 384.895 480.249 385.208 479.735C385.52 479.198 385.744 478.595 385.878 477.924C386.012 477.254 386.079 476.561 386.079 475.845ZM386.146 482.35H386.079C385.52 483.289 384.783 483.971 383.866 484.396C382.972 484.798 381.955 484.999 380.815 484.999C379.518 484.999 378.378 484.753 377.395 484.262C376.411 483.748 375.595 483.066 374.947 482.216C374.321 481.344 373.84 480.35 373.505 479.232C373.192 478.114 373.035 476.952 373.035 475.745C373.035 474.582 373.192 473.464 373.505 472.391C373.84 471.296 374.321 470.335 374.947 469.508C375.595 468.681 376.4 468.021 377.361 467.529C378.322 467.015 379.44 466.758 380.714 466.758C381.743 466.758 382.715 466.982 383.632 467.429C384.57 467.853 385.308 468.49 385.845 469.34H385.912V460.622H390.673V484.563H386.146V482.35ZM407.293 478.93C407.293 479.444 407.394 479.891 407.595 480.271C407.819 480.629 408.098 480.931 408.433 481.177C408.769 481.4 409.149 481.568 409.573 481.68C410.021 481.792 410.479 481.847 410.948 481.847C411.284 481.847 411.63 481.814 411.988 481.747C412.368 481.657 412.703 481.534 412.994 481.378C413.307 481.199 413.564 480.976 413.765 480.707C413.966 480.417 414.067 480.059 414.067 479.634C414.067 478.919 413.586 478.382 412.625 478.025C411.686 477.667 410.367 477.309 408.668 476.952C407.975 476.795 407.293 476.616 406.623 476.415C405.974 476.192 405.393 475.912 404.879 475.577C404.365 475.219 403.951 474.783 403.638 474.269C403.325 473.733 403.169 473.084 403.169 472.324C403.169 471.207 403.381 470.29 403.806 469.575C404.253 468.859 404.834 468.3 405.55 467.898C406.265 467.473 407.07 467.183 407.964 467.026C408.858 466.847 409.775 466.758 410.714 466.758C411.652 466.758 412.558 466.847 413.43 467.026C414.324 467.205 415.117 467.507 415.81 467.932C416.503 468.356 417.073 468.926 417.521 469.642C417.99 470.335 418.269 471.218 418.359 472.291H413.832C413.765 471.374 413.418 470.759 412.793 470.447C412.167 470.111 411.429 469.944 410.579 469.944C410.311 469.944 410.021 469.966 409.708 470.011C409.395 470.033 409.104 470.1 408.836 470.212C408.59 470.324 408.378 470.491 408.199 470.715C408.02 470.916 407.93 471.195 407.93 471.553C407.93 471.978 408.087 472.324 408.4 472.593C408.713 472.861 409.115 473.084 409.607 473.263C410.121 473.42 410.702 473.565 411.351 473.699C411.999 473.833 412.658 473.979 413.329 474.135C414.022 474.292 414.693 474.482 415.341 474.705C416.012 474.929 416.604 475.23 417.118 475.61C417.632 475.968 418.046 476.426 418.359 476.985C418.672 477.522 418.828 478.192 418.828 478.997C418.828 480.137 418.594 481.099 418.124 481.881C417.677 482.641 417.085 483.256 416.347 483.725C415.609 484.195 414.76 484.519 413.799 484.698C412.86 484.899 411.898 484.999 410.915 484.999C409.909 484.999 408.925 484.899 407.964 484.698C407.003 484.496 406.142 484.161 405.382 483.692C404.644 483.222 404.03 482.607 403.538 481.847C403.068 481.065 402.811 480.093 402.766 478.93H407.293ZM433.284 474.034C433.061 472.827 432.658 471.911 432.077 471.285C431.518 470.659 430.658 470.346 429.495 470.346C428.735 470.346 428.098 470.48 427.584 470.748C427.092 470.994 426.69 471.307 426.377 471.687C426.086 472.067 425.874 472.47 425.74 472.894C425.628 473.319 425.561 473.699 425.538 474.034H433.284ZM425.538 477.052C425.605 478.595 425.997 479.713 426.712 480.406C427.427 481.099 428.456 481.445 429.797 481.445C430.758 481.445 431.585 481.21 432.278 480.741C432.971 480.249 433.396 479.735 433.553 479.198H437.744C437.073 481.277 436.045 482.764 434.659 483.658C433.273 484.552 431.596 484.999 429.629 484.999C428.266 484.999 427.036 484.787 425.941 484.362C424.845 483.915 423.918 483.289 423.158 482.484C422.398 481.68 421.805 480.718 421.38 479.601C420.978 478.483 420.777 477.254 420.777 475.912C420.777 474.616 420.989 473.409 421.414 472.291C421.839 471.173 422.442 470.212 423.225 469.407C424.007 468.58 424.935 467.932 426.008 467.462C427.103 466.993 428.31 466.758 429.629 466.758C431.105 466.758 432.39 467.049 433.485 467.63C434.581 468.189 435.475 468.949 436.168 469.91C436.883 470.871 437.398 471.967 437.71 473.196C438.023 474.426 438.135 475.711 438.046 477.052H425.538ZM441.004 467.227H445.497V469.575H445.564C446.19 468.681 446.939 467.988 447.811 467.496C448.705 467.004 449.722 466.758 450.862 466.758C451.958 466.758 452.952 466.97 453.847 467.395C454.763 467.82 455.456 468.569 455.926 469.642C456.44 468.882 457.133 468.211 458.005 467.63C458.899 467.049 459.949 466.758 461.157 466.758C462.073 466.758 462.923 466.87 463.705 467.093C464.487 467.317 465.158 467.675 465.717 468.166C466.276 468.658 466.712 469.306 467.025 470.111C467.338 470.894 467.494 471.844 467.494 472.961V484.563H462.733V474.739C462.733 474.157 462.71 473.61 462.666 473.096C462.621 472.581 462.498 472.134 462.297 471.754C462.096 471.374 461.794 471.072 461.391 470.849C461.011 470.625 460.486 470.514 459.815 470.514C459.145 470.514 458.597 470.648 458.172 470.916C457.77 471.162 457.446 471.497 457.2 471.922C456.976 472.324 456.82 472.794 456.73 473.33C456.663 473.844 456.63 474.37 456.63 474.906V484.563H451.868V474.839C451.868 474.325 451.857 473.822 451.835 473.33C451.812 472.816 451.712 472.347 451.533 471.922C451.376 471.497 451.097 471.162 450.695 470.916C450.315 470.648 449.745 470.514 448.985 470.514C448.761 470.514 448.459 470.569 448.079 470.681C447.722 470.771 447.364 470.961 447.006 471.251C446.671 471.52 446.38 471.922 446.134 472.458C445.888 472.973 445.765 473.654 445.765 474.504V484.563H441.004V467.227ZM476.154 464.545H471.392V460.622H476.154V464.545ZM471.392 467.227H476.154V484.563H471.392V467.227ZM479.87 473.364H489.963V477.455H479.87V473.364ZM505.361 473.33C505.048 471.341 503.875 470.346 501.841 470.346C501.081 470.346 500.443 470.525 499.929 470.882C499.415 471.218 498.99 471.665 498.655 472.224C498.342 472.76 498.119 473.364 497.984 474.034C497.85 474.683 497.783 475.331 497.783 475.979C497.783 476.605 497.85 477.242 497.984 477.891C498.119 478.539 498.331 479.131 498.622 479.668C498.934 480.182 499.348 480.607 499.862 480.942C500.376 481.277 501.002 481.445 501.74 481.445C502.88 481.445 503.752 481.132 504.355 480.506C504.981 479.858 505.373 478.997 505.529 477.924H510.123C509.81 480.227 508.916 481.982 507.44 483.189C505.965 484.396 504.076 484.999 501.774 484.999C500.477 484.999 499.281 484.787 498.186 484.362C497.113 483.915 496.196 483.3 495.436 482.518C494.676 481.736 494.084 480.808 493.659 479.735C493.234 478.639 493.022 477.444 493.022 476.147C493.022 474.806 493.212 473.565 493.592 472.425C493.994 471.262 494.575 470.268 495.335 469.441C496.095 468.591 497.023 467.932 498.119 467.462C499.214 466.993 500.466 466.758 501.874 466.758C502.902 466.758 503.886 466.892 504.825 467.16C505.786 467.429 506.636 467.842 507.373 468.401C508.133 468.938 508.748 469.619 509.218 470.447C509.687 471.251 509.955 472.213 510.022 473.33H505.361ZM517.038 475.912C517.038 476.605 517.105 477.287 517.239 477.958C517.373 478.606 517.597 479.198 517.91 479.735C518.245 480.249 518.681 480.663 519.217 480.976C519.754 481.289 520.425 481.445 521.229 481.445C522.034 481.445 522.705 481.289 523.241 480.976C523.8 480.663 524.236 480.249 524.549 479.735C524.884 479.198 525.119 478.606 525.253 477.958C525.387 477.287 525.454 476.605 525.454 475.912C525.454 475.219 525.387 474.537 525.253 473.867C525.119 473.196 524.884 472.604 524.549 472.09C524.236 471.575 523.8 471.162 523.241 470.849C522.705 470.514 522.034 470.346 521.229 470.346C520.425 470.346 519.754 470.514 519.217 470.849C518.681 471.162 518.245 471.575 517.91 472.09C517.597 472.604 517.373 473.196 517.239 473.867C517.105 474.537 517.038 475.219 517.038 475.912ZM512.276 475.912C512.276 474.526 512.489 473.274 512.913 472.157C513.338 471.017 513.942 470.055 514.724 469.273C515.507 468.468 516.446 467.853 517.541 467.429C518.636 466.982 519.866 466.758 521.229 466.758C522.593 466.758 523.823 466.982 524.918 467.429C526.036 467.853 526.986 468.468 527.768 469.273C528.551 470.055 529.154 471.017 529.579 472.157C530.004 473.274 530.216 474.526 530.216 475.912C530.216 477.298 530.004 478.55 529.579 479.668C529.154 480.786 528.551 481.747 527.768 482.552C526.986 483.334 526.036 483.938 524.918 484.362C523.823 484.787 522.593 484.999 521.229 484.999C519.866 484.999 518.636 484.787 517.541 484.362C516.446 483.938 515.507 483.334 514.724 482.552C513.942 481.747 513.338 480.786 512.913 479.668C512.489 478.55 512.276 477.298 512.276 475.912ZM533.446 460.622H538.208V484.563H533.446V460.622ZM546.182 475.912C546.182 476.605 546.249 477.287 546.383 477.958C546.517 478.606 546.741 479.198 547.054 479.735C547.389 480.249 547.825 480.663 548.361 480.976C548.898 481.289 549.569 481.445 550.373 481.445C551.178 481.445 551.849 481.289 552.385 480.976C552.944 480.663 553.38 480.249 553.693 479.735C554.028 479.198 554.263 478.606 554.397 477.958C554.531 477.287 554.598 476.605 554.598 475.912C554.598 475.219 554.531 474.537 554.397 473.867C554.263 473.196 554.028 472.604 553.693 472.09C553.38 471.575 552.944 471.162 552.385 470.849C551.849 470.514 551.178 470.346 550.373 470.346C549.569 470.346 548.898 470.514 548.361 470.849C547.825 471.162 547.389 471.575 547.054 472.09C546.741 472.604 546.517 473.196 546.383 473.867C546.249 474.537 546.182 475.219 546.182 475.912ZM541.42 475.912C541.42 474.526 541.633 473.274 542.057 472.157C542.482 471.017 543.086 470.055 543.868 469.273C544.651 468.468 545.59 467.853 546.685 467.429C547.78 466.982 549.01 466.758 550.373 466.758C551.737 466.758 552.967 466.982 554.062 467.429C555.18 467.853 556.13 468.468 556.912 469.273C557.695 470.055 558.298 471.017 558.723 472.157C559.148 473.274 559.36 474.526 559.36 475.912C559.36 477.298 559.148 478.55 558.723 479.668C558.298 480.786 557.695 481.747 556.912 482.552C556.13 483.334 555.18 483.938 554.062 484.362C552.967 484.787 551.737 484.999 550.373 484.999C549.01 484.999 547.78 484.787 546.685 484.362C545.59 483.938 544.651 483.334 543.868 482.552C543.086 481.747 542.482 480.786 542.057 479.668C541.633 478.55 541.42 477.298 541.42 475.912ZM562.456 467.227H566.983V469.642H567.083C567.687 468.636 568.469 467.909 569.431 467.462C570.392 466.993 571.375 466.758 572.381 466.758C573.656 466.758 574.695 466.937 575.5 467.295C576.327 467.63 576.975 468.11 577.445 468.736C577.914 469.34 578.238 470.089 578.417 470.983C578.618 471.855 578.719 472.827 578.719 473.9V484.563H573.957V474.772C573.957 473.341 573.734 472.28 573.287 471.587C572.84 470.871 572.046 470.514 570.906 470.514C569.609 470.514 568.67 470.905 568.089 471.687C567.508 472.447 567.217 473.71 567.217 475.476V484.563H562.456V467.227Z" fill="black"/>
<path d="M1093.63 476.007C1093.63 477.348 1093.68 478.98 1093.77 480.902C1093.86 482.78 1094.13 484.613 1094.57 486.402C1095.06 488.145 1095.82 489.643 1096.85 490.895C1097.88 492.147 1099.36 492.773 1101.28 492.773C1103.25 492.773 1104.74 492.147 1105.77 490.895C1106.85 489.643 1107.61 488.145 1108.05 486.402C1108.54 484.613 1108.83 482.78 1108.92 480.902C1109.01 478.98 1109.06 477.348 1109.06 476.007C1109.06 475.202 1109.04 474.241 1108.99 473.123C1108.99 471.96 1108.9 470.776 1108.72 469.568C1108.59 468.361 1108.37 467.177 1108.05 466.014C1107.78 464.807 1107.36 463.734 1106.78 462.795C1106.2 461.856 1105.46 461.096 1104.57 460.515C1103.67 459.934 1102.58 459.643 1101.28 459.643C1099.98 459.643 1098.89 459.934 1097.99 460.515C1097.14 461.096 1096.43 461.856 1095.85 462.795C1095.31 463.734 1094.89 464.807 1094.57 466.014C1094.26 467.177 1094.04 468.361 1093.9 469.568C1093.77 470.776 1093.68 471.96 1093.63 473.123C1093.63 474.241 1093.63 475.202 1093.63 476.007ZM1084.11 476.007C1084.11 471.446 1084.56 467.624 1085.45 464.539C1086.39 461.409 1087.64 458.905 1089.21 457.028C1090.77 455.15 1092.58 453.808 1094.64 453.004C1096.74 452.199 1098.95 451.797 1101.28 451.797C1103.65 451.797 1105.86 452.199 1107.92 453.004C1110.02 453.808 1111.85 455.15 1113.42 457.028C1115.03 458.905 1116.28 461.409 1117.17 464.539C1118.11 467.624 1118.58 471.446 1118.58 476.007C1118.58 480.701 1118.11 484.636 1117.17 487.81C1116.28 490.94 1115.03 493.443 1113.42 495.321C1111.85 497.199 1110.02 498.54 1107.92 499.345C1105.86 500.15 1103.65 500.552 1101.28 500.552C1098.95 500.552 1096.74 500.15 1094.64 499.345C1092.58 498.54 1090.77 497.199 1089.21 495.321C1087.64 493.443 1086.39 490.94 1085.45 487.81C1084.56 484.636 1084.11 480.701 1084.11 476.007ZM1140.89 464.673H1140.69L1128.55 480.969H1140.89V464.673ZM1140.89 488.816H1121.04V480.098L1141.43 452.735H1149.94V480.969H1156.18V488.816H1149.94V499.68H1140.89V488.816Z" fill="black"/>
<path d="M587.748 710.323H412.264V538.192H587.748V710.323ZM412.264 933.869H587.748V1106H412.264V933.869Z" fill="black" fill-opacity="0.6"/>
<path d="M500.172 539.681C525.277 539.681 546.562 548.595 564.027 566.423C581.855 583.888 590.769 605.173 590.769 630.278C590.769 655.383 581.855 676.85 564.027 694.679C546.562 712.143 525.277 720.875 500.172 720.875C475.067 720.875 453.6 712.143 435.771 694.679C418.307 676.85 409.575 655.383 409.575 630.278C409.575 605.173 418.307 583.888 435.771 566.423C453.6 548.595 475.067 539.681 500.172 539.681ZM499.626 896.613C525.095 896.613 546.562 905.527 564.027 923.355C581.855 941.184 590.769 962.65 590.769 987.756C590.769 1012.86 581.855 1034.33 564.027 1052.16C546.198 1069.62 524.732 1078.35 499.626 1078.35C474.521 1078.35 453.054 1069.62 435.226 1052.16C417.761 1034.33 409.029 1012.86 409.029 987.756C409.029 962.65 417.761 941.184 435.226 923.355C453.054 905.527 474.521 896.613 499.626 896.613Z" fill="black" fill-opacity="0.6"/>
<path d="M893.068 575.448C918.173 575.448 939.458 584.18 956.923 601.645C974.387 619.11 983.119 640.394 983.119 665.5C983.119 690.605 974.205 712.072 956.377 729.9C938.912 747.365 917.809 756.097 893.068 756.097C867.963 756.097 846.496 747.365 828.667 729.9C811.203 712.072 802.47 690.605 802.47 665.5C802.47 640.394 811.203 619.11 828.667 601.645C846.132 584.18 867.599 575.448 893.068 575.448ZM809.565 1296.41V1272.39C851.771 1254.2 882.334 1230.55 901.254 1201.44C920.538 1172.7 930.18 1143.23 930.18 1113.03C930.18 1106.84 928.907 1102.11 926.36 1098.84C923.813 1095.93 921.266 1094.47 918.719 1094.47C916.536 1094.47 913.261 1095.75 908.895 1098.29C898.344 1104.48 885.245 1107.57 869.6 1107.57C848.133 1107.57 829.395 1099.2 813.386 1082.47C797.74 1065.73 789.918 1046.08 789.918 1023.52C789.918 999.51 799.014 978.407 817.206 960.214C835.398 942.022 857.411 932.926 883.244 932.926C914.535 932.926 941.277 945.115 963.472 969.492C985.666 993.506 996.764 1026.62 996.764 1068.82C996.764 1120.85 980.936 1167.06 949.282 1207.45C917.991 1247.83 871.419 1277.49 809.565 1296.41Z" fill="black" fill-opacity="0.6"/>
<path d="M824.301 899.187C827.576 887.18 831.396 879.54 835.762 876.265C840.128 872.99 847.587 871.353 858.139 871.353H971.113C975.843 871.353 979.663 872.445 982.574 874.628C985.848 876.811 987.486 879.54 987.486 882.814C987.486 883.906 987.122 885.907 986.394 888.818C985.666 891.728 984.575 894.457 983.12 897.004L842.311 1190.08C839.401 1195.9 836.126 1200.09 832.488 1202.63C829.213 1205.18 825.029 1206.45 819.935 1206.45C817.024 1206.45 814.659 1206.27 812.84 1205.91C811.385 1205.91 810.111 1205.73 809.02 1205.36L772.999 1192.26C767.541 1190.08 763.357 1187.35 760.446 1184.08C757.899 1180.8 756.626 1177.16 756.626 1173.16C756.626 1171.71 756.626 1170.07 756.626 1168.25C756.99 1166.43 757.717 1163.52 758.809 1159.52L824.301 899.187ZM782.277 641.039C782.277 612.659 792.101 589.373 811.748 571.181C831.76 552.989 857.593 543.892 889.247 543.892C921.63 543.892 947.827 552.989 967.838 571.181C987.849 589.009 997.855 612.295 997.855 641.039C997.855 669.783 987.849 693.251 967.838 711.443C947.827 729.272 921.63 738.186 889.247 738.186C857.229 738.186 831.396 729.272 811.748 711.443C792.101 693.615 782.277 670.147 782.277 641.039Z" fill="black" fill-opacity="0.6"/>
<path d="M392.11 641.039C392.11 612.659 401.934 589.373 421.581 571.181C441.593 552.989 467.426 543.892 499.08 543.892C531.463 543.892 557.478 552.807 577.125 570.635C596.773 588.464 606.597 611.932 606.597 641.039C606.597 670.147 596.591 693.615 576.579 711.443C556.932 729.272 531.099 738.186 499.08 738.186C467.062 738.186 441.229 729.272 421.581 711.443C401.934 693.615 392.11 670.147 392.11 641.039ZM392.11 942.849C392.11 914.469 401.934 891.183 421.581 872.99C441.593 854.798 467.426 845.702 499.08 845.702C531.463 845.702 557.478 854.616 577.125 872.445C596.773 890.273 606.597 913.741 606.597 942.849C606.597 971.956 596.591 995.424 576.579 1013.25C556.932 1031.08 531.099 1040 499.08 1040C467.062 1040 441.229 1031.08 421.581 1013.25C401.934 995.424 392.11 971.956 392.11 942.849Z" fill="black" fill-opacity="0.6"/>
<path d="M981.19 710.323H805.706V538.192H981.19V710.323ZM805.706 933.869H981.19V1106C981.19 1131.34 976.346 1154.44 966.659 1175.3C957.717 1196.91 945.422 1215.54 929.774 1231.19C914.126 1246.83 895.497 1259.5 873.887 1269.19C853.023 1279.62 830.668 1286.7 806.823 1290.43V1209.95C818.001 1207.71 828.433 1203.24 838.12 1196.54C848.552 1189.83 857.494 1181.63 864.946 1171.95C872.397 1163 877.986 1152.57 881.712 1140.65C885.437 1129.47 886.928 1117.92 886.182 1106H805.706V933.869Z" fill="black" fill-opacity="0.6"/>
<defs>
<filter id="filter0_d_8_74" x="201.192" y="411.325" width="999.252" height="936.659" filterUnits="userSpaceOnUse" color-interpolation-filters="sRGB">
<feFlood flood-opacity="0" result="BackgroundImageFix"/>
<feColorMatrix in="SourceAlpha" type="matrix" values="0 0 0 0 0 0 0 0 0 0 0 0 0 0 0 0 0 0 127 0" result="hardAlpha"/>
<feOffset dy="8.94186"/>
<feGaussianBlur stdDeviation="4.47093"/>
<feComposite in2="hardAlpha" operator="out"/>
<feColorMatrix type="matrix" values="0 0 0 0 0 0 0 0 0 0 0 0 0 0 0 0 0 0 0.25 0"/>
<feBlend mode="normal" in2="BackgroundImageFix" result="effect1_dropShadow_8_74"/>
<feBlend mode="normal" in="SourceGraphic" in2="effect1_dropShadow_8_74" result="shape"/>
</filter>
</defs>
</svg>
