<?xml version="1.0" encoding="utf-8"?>
<!-- Generator: Adobe Illustrator 28.2.0, SVG Export Plug-In . SVG Version: 6.00 Build 0)  -->
<svg version="1.1" id="Layer_1" xmlns="http://www.w3.org/2000/svg" xmlns:xlink="http://www.w3.org/1999/xlink" x="0px" y="0px"
	 viewBox="0 0 561.7 970" style="enable-background:new 0 0 561.7 970;" xml:space="preserve">
<style type="text/css">
	.st0{fill:#FFFFFF;}
	.st1{fill:#FF100F;fill-opacity:0.6;}
</style>
<g>
	<rect x="-1.2" class="st0" width="561.7" height="970"/>
</g>
<path d="M457.2,68.6c0,1.4,0,3.1,0.1,5.2c0.1,2,0.4,3.9,0.8,5.8c0.5,1.8,1.3,3.4,2.4,4.7c1.1,1.3,2.6,2,4.7,2c2.1,0,3.7-0.7,4.7-2
	c1.1-1.3,1.9-2.9,2.4-4.7c0.5-1.9,0.8-3.8,0.9-5.8c0.1-2,0.1-3.8,0.1-5.2c0-0.8,0-1.9-0.1-3c0-1.2-0.1-2.5-0.3-3.8
	c-0.1-1.3-0.4-2.5-0.7-3.8c-0.3-1.3-0.7-2.4-1.3-3.4c-0.6-1-1.4-1.8-2.3-2.4c-0.9-0.6-2.1-0.9-3.5-0.9c-1.4,0-2.5,0.3-3.5,0.9
	c-0.9,0.6-1.7,1.4-2.3,2.4c-0.6,1-1,2.1-1.3,3.4c-0.3,1.2-0.6,2.5-0.7,3.8c-0.1,1.3-0.2,2.5-0.3,3.8
	C457.2,66.7,457.2,67.8,457.2,68.6z M447.2,68.6c0-4.8,0.5-8.9,1.4-12.1c1-3.3,2.3-5.9,4-7.9c1.7-2,3.6-3.4,5.7-4.2
	c2.2-0.8,4.6-1.3,7-1.3c2.5,0,4.8,0.4,7,1.3c2.2,0.8,4.2,2.3,5.8,4.2c1.7,2,3,4.6,4,7.9c1,3.3,1.5,7.3,1.5,12.1
	c0,5-0.5,9.1-1.5,12.5c-0.9,3.3-2.3,5.9-4,7.9c-1.7,2-3.6,3.4-5.8,4.2c-2.2,0.8-4.5,1.3-7,1.3c-2.5,0-4.8-0.4-7-1.3
	c-2.2-0.9-4.1-2.3-5.7-4.2c-1.7-2-3-4.6-4-7.9C447.6,77.7,447.2,73.6,447.2,68.6z M487.6,63.1c-0.1-2.8,0.2-5.5,1-7.9
	c0.8-2.5,1.9-4.6,3.4-6.4c1.5-1.8,3.4-3.3,5.7-4.2c2.3-1,5-1.6,7.9-1.6c2.3,0,4.4,0.4,6.4,1.1c2.1,0.7,3.9,1.7,5.5,3
	c1.6,1.3,2.8,3,3.7,4.9c0.9,1.9,1.4,4.1,1.4,6.5c0,2.5-0.4,4.6-1.2,6.4c-0.8,1.8-1.9,3.4-3.2,4.8c-1.3,1.4-2.8,2.6-4.5,3.8
	c-1.7,1.1-3.3,2.3-5,3.4c-1.7,1.1-3.4,2.3-5,3.5c-1.6,1.3-3,2.8-4.2,4.5h23.4v8.6h-36.4c0-2.9,0.4-5.4,1.2-7.5c0.8-2.1,2-4,3.4-5.7
	c1.4-1.7,3.1-3.3,5-4.7c1.9-1.4,4-2.9,6.1-4.3c1.1-0.8,2.2-1.5,3.5-2.3c1.2-0.8,2.3-1.7,3.3-2.6c1-0.9,1.9-2,2.5-3.2
	c0.7-1.2,1.1-2.5,1.1-4c0-2.4-0.7-4.3-2.1-5.6c-1.4-1.4-3.1-2.1-5.3-2.1c-1.5,0-2.7,0.4-3.8,1.1c-1,0.7-1.8,1.6-2.4,2.7
	c-0.6,1.1-1.1,2.3-1.3,3.7c-0.2,1.3-0.4,2.6-0.4,4H487.6z"/>
<path d="M46.1,54.6c-0.2-1.3-0.7-2.2-1.3-2.9c-0.6-0.7-1.5-1-2.7-1c-0.8,0-1.5,0.1-2,0.4c-0.5,0.3-0.9,0.6-1.3,1
	c-0.3,0.4-0.5,0.8-0.7,1.3c-0.1,0.4-0.2,0.8-0.2,1.2H46.1z M37.9,57.8c0.1,1.6,0.5,2.8,1.2,3.5c0.8,0.7,1.8,1.1,3.3,1.1
	c1,0,1.9-0.2,2.6-0.7c0.7-0.5,1.2-1.1,1.3-1.6h4.4c-0.7,2.2-1.8,3.8-3.3,4.7c-1.5,0.9-3.2,1.4-5.3,1.4c-1.4,0-2.7-0.2-3.9-0.7
	c-1.2-0.5-2.1-1.1-2.9-2c-0.8-0.8-1.4-1.9-1.9-3c-0.4-1.2-0.6-2.5-0.6-3.9c0-1.4,0.2-2.6,0.7-3.8c0.4-1.2,1.1-2.2,1.9-3
	c0.8-0.9,1.8-1.6,2.9-2.1c1.2-0.5,2.4-0.7,3.8-0.7c1.6,0,2.9,0.3,4.1,0.9c1.2,0.6,2.1,1.4,2.8,2.4c0.8,1,1.3,2.2,1.6,3.5
	c0.3,1.3,0.4,2.7,0.4,4.1H37.9z M58.8,56.1l-6-8.7h5.7l3.2,4.8l3.2-4.8h5.6l-6,8.6l6.8,9.7h-5.7l-3.8-5.8l-3.8,5.8h-5.6L58.8,56.1z
	 M85.6,53.8c-0.3-2.1-1.6-3.2-3.7-3.2c-0.8,0-1.5,0.2-2,0.6c-0.5,0.4-1,0.8-1.3,1.4c-0.3,0.6-0.6,1.2-0.7,1.9
	c-0.1,0.7-0.2,1.4-0.2,2.1c0,0.7,0.1,1.3,0.2,2c0.1,0.7,0.4,1.3,0.7,1.9c0.3,0.5,0.8,1,1.3,1.3c0.5,0.4,1.2,0.5,2,0.5
	c1.2,0,2.1-0.3,2.8-1c0.7-0.7,1.1-1.6,1.2-2.7h4.9c-0.3,2.4-1.3,4.3-2.8,5.6c-1.6,1.3-3.6,1.9-6,1.9c-1.4,0-2.6-0.2-3.8-0.7
	c-1.1-0.5-2.1-1.1-2.9-1.9c-0.8-0.8-1.4-1.8-1.9-2.9c-0.4-1.2-0.7-2.4-0.7-3.8c0-1.4,0.2-2.7,0.6-3.9c0.4-1.2,1-2.3,1.8-3.2
	c0.8-0.9,1.8-1.6,2.9-2.1c1.2-0.5,2.5-0.7,4-0.7c1.1,0,2.1,0.1,3.1,0.4c1,0.3,1.9,0.7,2.7,1.3c0.8,0.6,1.5,1.3,1.9,2.2
	c0.5,0.8,0.8,1.9,0.9,3H85.6z M93.6,40.4h5v25.3h-5V40.4z M102.4,53c0.1-1.2,0.4-2.2,0.9-2.9c0.5-0.8,1.2-1.4,2-1.9
	c0.8-0.5,1.7-0.8,2.7-1c1-0.2,2-0.3,3-0.3c0.9,0,1.9,0.1,2.8,0.2c0.9,0.1,1.8,0.4,2.6,0.7c0.8,0.4,1.4,0.9,1.9,1.6
	c0.5,0.7,0.7,1.5,0.7,2.7v9.5c0,0.8,0,1.6,0.1,2.4c0.1,0.8,0.3,1.3,0.5,1.7h-5.1c-0.1-0.3-0.2-0.6-0.2-0.8c0-0.3-0.1-0.6-0.1-0.9
	c-0.8,0.8-1.7,1.4-2.8,1.7c-1.1,0.3-2.2,0.5-3.3,0.5c-0.9,0-1.7-0.1-2.4-0.3c-0.8-0.2-1.4-0.5-2-1c-0.6-0.4-1-1-1.3-1.7
	c-0.3-0.7-0.5-1.5-0.5-2.4c0-1,0.2-1.9,0.5-2.5c0.4-0.7,0.9-1.2,1.4-1.6c0.6-0.4,1.3-0.7,2-0.9c0.8-0.2,1.5-0.4,2.3-0.5
	c0.8-0.1,1.5-0.2,2.2-0.3c0.7-0.1,1.4-0.2,1.9-0.3c0.6-0.1,1-0.3,1.3-0.6c0.3-0.3,0.5-0.7,0.5-1.2c0-0.5-0.1-1-0.3-1.3
	c-0.2-0.3-0.4-0.6-0.7-0.7c-0.3-0.2-0.6-0.3-1-0.4c-0.4-0.1-0.8-0.1-1.2-0.1c-1,0-1.8,0.2-2.3,0.6c-0.6,0.4-0.9,1.1-1,2.1H102.4z
	 M114,56.7c-0.2,0.2-0.5,0.3-0.8,0.5c-0.3,0.1-0.6,0.2-1,0.2c-0.4,0.1-0.7,0.1-1.1,0.2c-0.4,0-0.8,0.1-1.2,0.2
	c-0.4,0.1-0.8,0.2-1.1,0.3c-0.4,0.1-0.7,0.3-1,0.5c-0.3,0.2-0.5,0.4-0.6,0.7c-0.2,0.3-0.2,0.7-0.2,1.2c0,0.4,0.1,0.8,0.2,1.1
	c0.2,0.3,0.4,0.6,0.7,0.7c0.3,0.2,0.6,0.3,1,0.4c0.4,0.1,0.8,0.1,1.2,0.1c1,0,1.8-0.2,2.3-0.5c0.5-0.3,0.9-0.7,1.2-1.2
	c0.3-0.5,0.4-0.9,0.5-1.4c0.1-0.5,0.1-0.8,0.1-1.1V56.7z M123,47.4h4.7v2.5h0.1c0.7-0.9,1.5-1.7,2.4-2.2c0.9-0.5,2-0.8,3.2-0.8
	c1.2,0,2.2,0.2,3.2,0.7c1,0.4,1.7,1.2,2.2,2.4c0.5-0.8,1.3-1.5,2.2-2.1c0.9-0.6,2.1-0.9,3.3-0.9c1,0,1.9,0.1,2.7,0.4
	s1.5,0.6,2.1,1.1s1.1,1.2,1.4,2.1c0.3,0.8,0.5,1.8,0.5,3v12.2h-5V55.3c0-0.6,0-1.2-0.1-1.7c0-0.5-0.2-1-0.4-1.4
	c-0.2-0.4-0.5-0.7-1-1c-0.4-0.2-1-0.4-1.7-0.4s-1.3,0.1-1.7,0.4c-0.4,0.3-0.8,0.6-1,1.1c-0.2,0.4-0.4,0.9-0.5,1.5
	c-0.1,0.5-0.1,1.1-0.1,1.7v10.2h-5V55.4c0-0.5,0-1.1,0-1.6c0-0.5-0.1-1-0.3-1.5c-0.2-0.4-0.5-0.8-0.9-1.1c-0.4-0.3-1-0.4-1.8-0.4
	c-0.2,0-0.6,0.1-1,0.2c-0.4,0.1-0.8,0.3-1.1,0.6c-0.4,0.3-0.7,0.7-0.9,1.3c-0.3,0.5-0.4,1.3-0.4,2.2v10.6h-5V47.4z M154.8,53
	c0.1-1.2,0.4-2.2,0.9-2.9c0.5-0.8,1.2-1.4,2-1.9c0.8-0.5,1.7-0.8,2.7-1c1-0.2,2-0.3,3-0.3c0.9,0,1.9,0.1,2.8,0.2
	c0.9,0.1,1.8,0.4,2.6,0.7c0.8,0.4,1.4,0.9,1.9,1.6c0.5,0.7,0.7,1.5,0.7,2.7v9.5c0,0.8,0,1.6,0.1,2.4c0.1,0.8,0.3,1.3,0.5,1.7H167
	c-0.1-0.3-0.2-0.6-0.2-0.8c0-0.3-0.1-0.6-0.1-0.9c-0.8,0.8-1.7,1.4-2.8,1.7c-1.1,0.3-2.2,0.5-3.3,0.5c-0.9,0-1.7-0.1-2.4-0.3
	c-0.8-0.2-1.4-0.5-2-1c-0.6-0.4-1-1-1.3-1.7c-0.3-0.7-0.5-1.5-0.5-2.4c0-1,0.2-1.9,0.5-2.5c0.4-0.7,0.8-1.2,1.4-1.6
	c0.6-0.4,1.3-0.7,2-0.9c0.8-0.2,1.5-0.4,2.3-0.5c0.8-0.1,1.5-0.2,2.2-0.3c0.7-0.1,1.4-0.2,1.9-0.3c0.6-0.1,1-0.3,1.3-0.6
	c0.3-0.3,0.5-0.7,0.5-1.2c0-0.5-0.1-1-0.3-1.3c-0.2-0.3-0.4-0.6-0.7-0.7c-0.3-0.2-0.6-0.3-1-0.4c-0.4-0.1-0.8-0.1-1.2-0.1
	c-1,0-1.8,0.2-2.3,0.6c-0.6,0.4-0.9,1.1-1,2.1H154.8z M166.4,56.7c-0.2,0.2-0.5,0.3-0.8,0.5c-0.3,0.1-0.6,0.2-1,0.2
	c-0.4,0.1-0.7,0.1-1.1,0.2c-0.4,0-0.8,0.1-1.2,0.2c-0.4,0.1-0.8,0.2-1.1,0.3c-0.4,0.1-0.7,0.3-1,0.5c-0.3,0.2-0.5,0.4-0.6,0.7
	c-0.2,0.3-0.2,0.7-0.2,1.2c0,0.4,0.1,0.8,0.2,1.1c0.2,0.3,0.4,0.6,0.7,0.7c0.3,0.2,0.6,0.3,1,0.4c0.4,0.1,0.8,0.1,1.2,0.1
	c1,0,1.8-0.2,2.3-0.5c0.5-0.3,0.9-0.7,1.2-1.2c0.3-0.5,0.4-0.9,0.5-1.4c0.1-0.5,0.1-0.8,0.1-1.1V56.7z M181.7,47.4h3.7v3.4h-3.7v9.1
	c0,0.8,0.1,1.4,0.4,1.7c0.3,0.3,0.8,0.4,1.7,0.4c0.3,0,0.6,0,0.8,0c0.3,0,0.5-0.1,0.7-0.1v3.9c-0.4,0.1-0.9,0.1-1.4,0.1
	c-0.5,0-1,0-1.5,0c-0.8,0-1.5-0.1-2.2-0.2c-0.7-0.1-1.3-0.3-1.8-0.6c-0.5-0.3-0.9-0.7-1.2-1.3c-0.3-0.6-0.5-1.3-0.5-2.2V50.7h-3
	v-3.4h3v-5.5h5V47.4z M192.9,44.5h-5v-4.1h5V44.5z M187.9,47.4h5v18.3h-5V47.4z M201.4,56.5c0,0.7,0.1,1.5,0.2,2.2
	c0.1,0.7,0.4,1.3,0.7,1.9c0.4,0.5,0.8,1,1.4,1.3c0.6,0.3,1.3,0.5,2.1,0.5s1.6-0.2,2.1-0.5c0.6-0.3,1.1-0.8,1.4-1.3
	c0.4-0.6,0.6-1.2,0.7-1.9c0.1-0.7,0.2-1.4,0.2-2.2c0-0.7-0.1-1.5-0.2-2.2c-0.1-0.7-0.4-1.3-0.7-1.9c-0.3-0.5-0.8-1-1.4-1.3
	c-0.6-0.4-1.3-0.5-2.1-0.5s-1.6,0.2-2.1,0.5c-0.6,0.3-1,0.8-1.4,1.3c-0.3,0.5-0.6,1.2-0.7,1.9C201.4,55.1,201.4,55.8,201.4,56.5z
	 M196.3,56.5c0-1.5,0.2-2.8,0.7-4c0.4-1.2,1.1-2.2,1.9-3c0.8-0.8,1.8-1.5,3-1.9c1.2-0.5,2.5-0.7,3.9-0.7s2.7,0.2,3.9,0.7
	c1.2,0.4,2.2,1.1,3,1.9c0.8,0.8,1.5,1.8,1.9,3c0.4,1.2,0.7,2.5,0.7,4c0,1.5-0.2,2.8-0.7,4c-0.4,1.2-1.1,2.2-1.9,3
	c-0.8,0.8-1.8,1.5-3,1.9c-1.2,0.4-2.5,0.7-3.9,0.7s-2.7-0.2-3.9-0.7c-1.2-0.4-2.1-1.1-3-1.9c-0.8-0.8-1.5-1.9-1.9-3
	C196.5,59.3,196.3,58,196.3,56.5z M218.5,47.4h4.8v2.5h0.1c0.6-1.1,1.5-1.8,2.5-2.3c1-0.5,2.1-0.7,3.1-0.7c1.3,0,2.4,0.2,3.3,0.6
	c0.9,0.4,1.6,0.9,2.1,1.5c0.5,0.6,0.8,1.4,1,2.4c0.2,0.9,0.3,1.9,0.3,3.1v11.3h-5V55.3c0-1.5-0.2-2.6-0.7-3.4
	c-0.5-0.8-1.3-1.1-2.5-1.1c-1.4,0-2.4,0.4-3,1.2c-0.6,0.8-0.9,2.1-0.9,4v9.6h-5V47.4z M33.9,90.4h4.7v2.5h0.1
	c0.7-0.9,1.5-1.7,2.4-2.2c0.9-0.5,2-0.8,3.2-0.8c1.2,0,2.2,0.2,3.2,0.7c1,0.4,1.7,1.2,2.2,2.4c0.5-0.8,1.3-1.5,2.2-2.1
	c0.9-0.6,2.1-0.9,3.3-0.9c1,0,1.9,0.1,2.7,0.4c0.8,0.2,1.5,0.6,2.1,1.1c0.6,0.5,1.1,1.2,1.4,2.1c0.3,0.8,0.5,1.8,0.5,3v12.2h-5V98.3
	c0-0.6,0-1.2-0.1-1.7c0-0.5-0.2-1-0.4-1.4c-0.2-0.4-0.5-0.7-1-1c-0.4-0.2-1-0.4-1.7-0.4c-0.7,0-1.3,0.1-1.7,0.4
	c-0.4,0.3-0.8,0.6-1,1.1c-0.2,0.4-0.4,0.9-0.5,1.5c-0.1,0.5-0.1,1.1-0.1,1.7v10.2h-5V98.4c0-0.5,0-1.1,0-1.6c0-0.5-0.1-1-0.3-1.5
	c-0.2-0.4-0.5-0.8-0.9-1.1c-0.4-0.3-1-0.4-1.8-0.4c-0.2,0-0.6,0.1-1,0.2c-0.4,0.1-0.8,0.3-1.1,0.6c-0.4,0.3-0.7,0.7-0.9,1.3
	c-0.3,0.5-0.4,1.3-0.4,2.2v10.6h-5V90.4z M65.6,96c0.1-1.2,0.4-2.2,0.9-2.9c0.5-0.8,1.2-1.4,2-1.9c0.8-0.5,1.7-0.8,2.7-1
	c1-0.2,2-0.3,3-0.3c0.9,0,1.9,0.1,2.8,0.2c0.9,0.1,1.8,0.4,2.6,0.7c0.8,0.4,1.4,0.9,1.9,1.6c0.5,0.7,0.7,1.5,0.7,2.7v9.5
	c0,0.8,0,1.6,0.1,2.4s0.3,1.3,0.5,1.7h-5.1c-0.1-0.3-0.2-0.6-0.2-0.8c0-0.3-0.1-0.6-0.1-0.9c-0.8,0.8-1.7,1.4-2.8,1.7
	c-1.1,0.3-2.2,0.5-3.3,0.5c-0.9,0-1.7-0.1-2.4-0.3c-0.8-0.2-1.4-0.5-2-1c-0.6-0.4-1-1-1.3-1.7c-0.3-0.7-0.5-1.5-0.5-2.4
	c0-1,0.2-1.9,0.5-2.5c0.4-0.7,0.8-1.2,1.4-1.6c0.6-0.4,1.3-0.7,2-0.9c0.8-0.2,1.5-0.4,2.3-0.5c0.8-0.1,1.5-0.2,2.2-0.3
	c0.7-0.1,1.4-0.2,1.9-0.3c0.6-0.1,1-0.3,1.3-0.6c0.3-0.3,0.5-0.7,0.5-1.2c0-0.5-0.1-1-0.3-1.3c-0.2-0.3-0.4-0.6-0.7-0.7
	c-0.3-0.2-0.6-0.3-1-0.4c-0.4-0.1-0.8-0.1-1.2-0.1c-1,0-1.8,0.2-2.3,0.6c-0.6,0.4-0.9,1.1-1,2.1H65.6z M77.3,99.7
	c-0.2,0.2-0.5,0.3-0.8,0.5c-0.3,0.1-0.6,0.2-1,0.2c-0.4,0.1-0.7,0.1-1.1,0.2c-0.4,0-0.8,0.1-1.2,0.2c-0.4,0.1-0.8,0.2-1.1,0.3
	c-0.4,0.1-0.7,0.3-1,0.5c-0.3,0.2-0.5,0.4-0.6,0.7c-0.2,0.3-0.2,0.7-0.2,1.2c0,0.4,0.1,0.8,0.2,1.1c0.2,0.3,0.4,0.6,0.7,0.7
	c0.3,0.2,0.6,0.3,1,0.4c0.4,0.1,0.8,0.1,1.2,0.1c1,0,1.8-0.2,2.3-0.5s0.9-0.7,1.2-1.2c0.3-0.5,0.4-0.9,0.5-1.4
	c0.1-0.5,0.1-0.9,0.1-1.1V99.7z M86.2,90.4H91v3.4H91c0.2-0.6,0.6-1.1,1-1.6c0.4-0.5,0.9-0.9,1.4-1.2c0.5-0.4,1.1-0.6,1.7-0.8
	c0.6-0.2,1.2-0.3,1.8-0.3c0.3,0,0.7,0.1,1.1,0.2v4.7c-0.2,0-0.5-0.1-0.8-0.1c-0.3,0-0.6-0.1-1-0.1c-0.9,0-1.7,0.2-2.3,0.5
	c-0.6,0.3-1.2,0.7-1.6,1.3c-0.4,0.5-0.6,1.1-0.8,1.8c-0.2,0.7-0.2,1.5-0.2,2.3v8.2h-5V90.4z M100.4,83.4h5V97l6.3-6.6h5.9l-6.9,6.7
	l7.7,11.6h-6.1l-5-8.2l-1.9,1.9v6.3h-5V83.4z"/>
<path class="st1" d="M335.5,323.5l-16.1,299.2c-0.3,10.1-4,18.6-11.1,25.4c-7.1,6.5-16,9.7-26.7,9.7c-10.4,0-19.2-3.2-26.3-9.7
	c-7.1-6.8-10.9-15.2-11.5-25.4l-15.7-299.2v-4.6c0-17.8,4.8-31.8,14.3-41.9c9.5-10.4,22.6-15.7,39.2-15.7c16.9,0,30.1,5.2,39.6,15.7
	c9.5,10.1,14.3,24.1,14.3,41.9V323.5z M195.8,775.7c0-21.5,7.8-39,23.5-52.6c16-13.5,36.7-20.3,62.2-20.3c25.8,0,46.6,6.8,62.2,20.3
	c16,13.5,24,31,24,52.6c0,21.8-8,39.6-24,53.5c-15.7,13.5-36.4,20.3-62.2,20.3c-25.5,0-46.3-6.9-62.2-20.7
	C203.7,814.9,195.8,797.2,195.8,775.7z"/>
<path class="st1" d="M291.5,620.9h-20.3c-2.2-35-9.2-77.4-21.2-127.2l-24-100.5c-14.4-60.2-21.7-103.4-21.7-129.5
	c0-23.7,7.1-42.7,21.2-57.2c14.1-14.4,32.6-21.7,55.3-21.7c22.1,0,40.4,7.4,54.9,22.1c14.8,14.4,22.1,32.9,22.1,55.3
	c0,23.4-7.7,67-23,130.9l-24.4,100.5C301.8,529.4,295.5,571.8,291.5,620.9z M281.8,686.9c20.6,0,38.1,7.4,52.6,22.1
	c14.8,14.4,22.1,32.1,22.1,53c0,20.6-7.4,38.3-22.1,53c-14.4,14.4-32,21.7-52.6,21.7c-20.6,0-38.3-7.2-53-21.7
	c-14.4-14.8-21.7-32.4-21.7-53c0-20.6,7.2-38.3,21.7-53C243.2,694.2,260.9,686.9,281.8,686.9z"/>
<path class="st1" d="M207.1,757.9h148.2v145.4H207.1V757.9z M350.6,410.5l-36.8,290.8h-67l-35.9-290.8V229.3h139.7V410.5z"/>
</svg>
