<?xml version="1.0" encoding="UTF-8"?>
<svg id="Layer_1" data-name="Layer 1" xmlns="http://www.w3.org/2000/svg" viewBox="0 0 544.74 940.7">
  <defs>
    <style>
      .cls-1 {
        fill: rgba(59, 141, 80, .6);
      }

      .cls-1, .cls-2, .cls-3 {
        stroke-width: 0px;
      }

      .cls-3 {
        fill: #fff;
      }
    </style>
  </defs>
  <rect class="cls-3" width="544.74" height="940.7"/>
  <path class="cls-2" d="M60.19,63.7c-.32-2.04-1.52-3.06-3.6-3.06-.78,0-1.43.18-1.96.55-.53.34-.96.8-1.31,1.37-.32.55-.55,1.17-.69,1.86-.14.66-.21,1.33-.21,1.99s.07,1.29.21,1.96c.14.66.35,1.27.65,1.82.32.52.74.96,1.27,1.3.53.34,1.17.52,1.92.52,1.17,0,2.06-.32,2.68-.97.64-.66,1.04-1.54,1.2-2.64h4.7c-.32,2.36-1.24,4.16-2.75,5.39-1.51,1.24-3.44,1.86-5.8,1.86-1.33,0-2.55-.22-3.67-.66-1.1-.46-2.04-1.08-2.82-1.89-.78-.8-1.39-1.75-1.82-2.85-.43-1.12-.65-2.34-.65-3.67s.19-2.64.58-3.81c.41-1.19,1.01-2.21,1.79-3.06.78-.86,1.73-1.54,2.85-2.02,1.12-.48,2.4-.72,3.85-.72,1.05,0,2.06.14,3.02.41.98.27,1.85.7,2.61,1.27.78.55,1.41,1.25,1.89,2.09.48.83.76,1.81.82,2.96h-4.77ZM72.15,66.34c0,.71.07,1.41.21,2.1.14.66.37,1.27.69,1.81.34.53.79.95,1.34,1.28.55.32,1.24.48,2.06.48s1.51-.16,2.06-.48c.57-.33,1.02-.75,1.34-1.28.34-.54.58-1.15.72-1.81.14-.69.21-1.39.21-2.1s-.07-1.41-.21-2.09c-.14-.69-.38-1.3-.72-1.82-.32-.53-.77-.95-1.34-1.27-.55-.35-1.24-.52-2.06-.52s-1.51.17-2.06.52c-.55.32-1,.74-1.34,1.27-.32.52-.55,1.13-.69,1.82-.14.68-.21,1.38-.21,2.09ZM67.27,66.34c0-1.42.22-2.7.65-3.84.43-1.17,1.05-2.16,1.85-2.96.8-.82,1.76-1.45,2.88-1.89,1.12-.45,2.38-.68,3.78-.68s2.65.23,3.78.68c1.14.44,2.12,1.07,2.92,1.89.8.8,1.42,1.79,1.85,2.96.43,1.14.65,2.42.65,3.84s-.22,2.7-.65,3.85c-.43,1.14-1.05,2.12-1.85,2.95-.8.8-1.77,1.42-2.92,1.85-1.12.44-2.38.66-3.78.66s-2.66-.22-3.78-.66c-1.12-.43-2.08-1.05-2.88-1.85-.8-.83-1.42-1.81-1.85-2.95-.43-1.15-.65-2.43-.65-3.85ZM88.95,57.45h4.6v2.4h.07c.64-.91,1.41-1.62,2.3-2.13.92-.5,1.96-.75,3.12-.75s2.14.22,3.06.65c.94.44,1.65,1.2,2.13,2.3.53-.78,1.24-1.46,2.13-2.06.92-.59,1.99-.89,3.23-.89.94,0,1.81.11,2.61.34.8.23,1.49.6,2.06,1.1.57.5,1.02,1.17,1.34,1.99.32.8.48,1.78.48,2.92v11.88h-4.88v-10.06c0-.6-.02-1.16-.07-1.68-.05-.53-.17-.99-.38-1.38-.21-.39-.51-.69-.93-.92-.39-.23-.93-.35-1.61-.35s-1.25.14-1.68.42c-.41.25-.74.59-1,1.03-.23.41-.39.89-.48,1.44-.07.52-.1,1.06-.1,1.61v9.89h-4.88v-9.96c0-.52-.01-1.04-.03-1.54-.02-.53-.13-1.01-.31-1.44-.16-.44-.45-.78-.86-1.03-.39-.28-.97-.42-1.75-.42-.23,0-.54.06-.93.18-.37.09-.73.28-1.1.58-.34.27-.64.69-.89,1.23-.25.53-.38,1.23-.38,2.1v10.3h-4.88v-17.75ZM120.06,57.45h4.6v2.4h.07c.64-.91,1.41-1.62,2.3-2.13.92-.5,1.96-.75,3.12-.75s2.14.22,3.05.65c.94.44,1.65,1.2,2.13,2.3.53-.78,1.24-1.46,2.13-2.06.92-.59,1.99-.89,3.23-.89.94,0,1.81.11,2.61.34.8.23,1.49.6,2.06,1.1.57.5,1.02,1.17,1.34,1.99.32.8.48,1.78.48,2.92v11.88h-4.88v-10.06c0-.6-.02-1.16-.07-1.68-.05-.53-.17-.99-.38-1.38-.21-.39-.52-.69-.93-.92-.39-.23-.93-.35-1.61-.35s-1.25.14-1.68.42c-.41.25-.74.59-.99,1.03-.23.41-.39.89-.48,1.44-.07.52-.1,1.06-.1,1.61v9.89h-4.88v-9.96c0-.52-.01-1.04-.03-1.54-.02-.53-.13-1.01-.31-1.44-.16-.44-.45-.78-.86-1.03-.39-.28-.97-.42-1.75-.42-.23,0-.54.06-.93.18-.37.09-.73.28-1.1.58-.34.27-.64.69-.89,1.23-.25.53-.38,1.23-.38,2.1v10.3h-4.88v-17.75ZM150.83,62.91c.07-1.15.36-2.1.86-2.85.5-.76,1.14-1.36,1.92-1.82.78-.46,1.65-.78,2.61-.96.98-.21,1.97-.31,2.95-.31.89,0,1.8.07,2.71.2.92.12,1.75.36,2.51.73.76.36,1.37.88,1.85,1.54.48.64.72,1.5.72,2.58v9.23c0,.8.05,1.57.14,2.3.09.73.25,1.28.48,1.65h-4.94c-.09-.28-.17-.55-.24-.83-.05-.29-.08-.59-.1-.89-.78.8-1.69,1.36-2.75,1.68-1.05.32-2.13.49-3.23.49-.85,0-1.64-.11-2.37-.31-.73-.21-1.37-.53-1.92-.97-.55-.43-.98-.98-1.3-1.64-.3-.67-.45-1.46-.45-2.37,0-1.01.17-1.83.51-2.47.37-.67.82-1.19,1.37-1.58.57-.39,1.21-.68,1.92-.86.73-.21,1.47-.37,2.2-.48.73-.12,1.45-.21,2.16-.28.71-.07,1.34-.17,1.89-.31.55-.13.98-.33,1.3-.58.32-.27.47-.66.45-1.17,0-.52-.09-.94-.27-1.23-.16-.32-.39-.56-.69-.72-.28-.19-.61-.3-1-.35-.37-.07-.77-.1-1.2-.1-.96,0-1.72.21-2.27.62-.55.41-.87,1.1-.96,2.06h-4.88ZM162.09,66.51c-.21.19-.47.33-.79.45-.3.09-.63.17-1,.24-.34.07-.71.13-1.1.17-.39.05-.78.1-1.17.17-.37.07-.73.16-1.1.28-.34.11-.65.27-.93.48-.25.18-.46.42-.62.72-.16.3-.24.67-.24,1.13s.08.8.24,1.1c.16.3.38.54.65.72.28.16.6.28.96.34.37.07.74.11,1.13.11.96,0,1.7-.16,2.23-.48.53-.32.91-.7,1.17-1.14.25-.45.4-.91.45-1.37.07-.46.1-.82.1-1.1v-1.82Z"/>
  <path class="cls-2" d="M444.53,66.65c0,1.37.05,3.04.14,5.01.09,1.92.37,3.8.82,5.63.5,1.79,1.28,3.32,2.34,4.6s2.56,1.93,4.53,1.93,3.55-.65,4.6-1.93c1.1-1.28,1.88-2.81,2.33-4.6.5-1.83.8-3.71.89-5.63.09-1.97.14-3.64.14-5.01,0-.82-.02-1.81-.07-2.95,0-1.19-.09-2.41-.27-3.64-.14-1.24-.37-2.45-.69-3.64-.27-1.24-.71-2.34-1.3-3.3-.59-.96-1.35-1.74-2.27-2.33-.91-.6-2.04-.89-3.36-.89s-2.45.29-3.36.89c-.87.59-1.6,1.37-2.2,2.33-.55.96-.98,2.06-1.31,3.3-.32,1.19-.55,2.4-.69,3.64-.14,1.23-.23,2.45-.28,3.64v2.95ZM434.78,66.65c0-4.67.46-8.58,1.37-11.74.96-3.21,2.24-5.77,3.84-7.69,1.6-1.92,3.46-3.3,5.56-4.12,2.15-.83,4.42-1.24,6.8-1.24s4.69.41,6.8,1.24c2.15.82,4.03,2.2,5.63,4.12,1.65,1.92,2.93,4.48,3.84,7.69.96,3.16,1.44,7.07,1.44,11.74s-.48,8.83-1.44,12.08c-.91,3.21-2.2,5.77-3.84,7.69-1.6,1.93-3.48,3.3-5.63,4.12-2.1.83-4.37,1.24-6.8,1.24s-4.65-.41-6.8-1.24c-2.11-.82-3.96-2.19-5.56-4.12-1.6-1.92-2.88-4.48-3.84-7.69-.92-3.25-1.37-7.27-1.37-12.08ZM491.13,65.96c-1.28,0-2.43.25-3.43.76-.96.46-1.76,1.1-2.4,1.92-.64.82-1.12,1.79-1.44,2.88-.32,1.06-.48,2.18-.48,3.37,0,1.1.16,2.2.48,3.3.37,1.05.87,2.01,1.51,2.88.69.82,1.51,1.49,2.47,1.99s2.06.76,3.3.76,2.22-.26,3.09-.76c.92-.5,1.69-1.17,2.33-1.99.64-.82,1.12-1.76,1.44-2.82.32-1.05.48-2.12.48-3.22s-.16-2.25-.48-3.3c-.27-1.1-.71-2.06-1.3-2.88-.6-.87-1.37-1.56-2.34-2.06-.91-.55-1.99-.83-3.23-.83ZM498.14,55.18c-.32-1.6-1.05-3-2.2-4.19-1.14-1.19-2.56-1.78-4.26-1.78s-3.2.53-4.39,1.58c-1.14,1.01-2.06,2.26-2.75,3.77-.69,1.47-1.19,3.05-1.51,4.74-.32,1.7-.5,3.21-.55,4.53l.14.14c1.33-1.92,2.88-3.29,4.67-4.12,1.79-.82,3.85-1.23,6.18-1.23,2.06,0,4.07.45,6.04,1.37,1.97.87,3.64,2.06,5.01,3.57,1.28,1.46,2.22,3.14,2.82,5.01.59,1.88.89,3.78.89,5.7,0,2.47-.41,4.79-1.24,6.94-.78,2.1-1.92,3.96-3.43,5.56-1.46,1.55-3.23,2.79-5.29,3.71-2.06.87-4.35,1.3-6.87,1.3-3.62,0-6.61-.71-8.99-2.13-2.38-1.46-4.28-3.36-5.7-5.7-1.42-2.33-2.4-4.96-2.95-7.89-.55-2.98-.82-6-.82-9.07s.34-5.95,1.03-8.92c.69-2.98,1.79-5.66,3.3-8.04,1.51-2.42,3.46-4.39,5.84-5.9,2.38-1.51,5.29-2.27,8.72-2.27,2.06,0,3.98.3,5.77.89,1.79.6,3.36,1.47,4.74,2.61,1.37,1.1,2.49,2.48,3.36,4.12.87,1.65,1.44,3.55,1.72,5.7h-9.27Z"/>
  <path class="cls-1" d="M151.85,870.45v-39.34c69.14-29.8,119.21-68.54,150.2-116.23,31.59-47.08,47.39-95.36,47.39-144.83,0-10.14-2.09-17.89-6.26-23.25-4.17-4.77-8.34-7.15-12.52-7.15-3.58,0-8.94,2.08-16.09,6.26-17.29,10.13-38.74,15.2-64.37,15.2-35.17,0-65.86-13.71-92.09-41.13-25.63-27.42-38.45-59.61-38.45-96.56,0-39.34,14.9-73.91,44.7-103.71,29.8-29.81,65.86-44.71,108.18-44.71,51.26,0,95.07,19.97,131.43,59.91,36.36,39.34,54.54,93.58,54.54,162.72,0,85.23-25.93,160.93-77.78,227.09-51.26,66.16-127.55,114.74-228.88,145.73Z"/>
  <path class="cls-1" d="M157.86,278.04h287.48v281.98c0,41.5-7.93,79.35-23.8,113.53-14.65,35.4-34.79,65.91-60.42,91.55-25.64,25.63-56.15,46.38-91.55,62.25-34.18,17.09-70.8,28.69-109.86,34.79v-131.83c18.31-3.66,35.4-10.99,51.27-21.98,17.09-10.98,31.74-24.41,43.95-40.28,12.21-14.65,21.36-31.74,27.47-51.27,6.1-18.31,8.54-37.23,7.32-56.76h-131.84v-281.98Z"/>
  <path class="cls-1" d="M194.58,336.49c4.77-20.26,11.03-33.08,18.78-38.44,7.75-5.96,20.86-8.94,39.34-8.94h195.8c8.94,0,16.09,1.78,21.46,5.36,5.36,3.58,8.05,8.05,8.05,13.41,0,2.98-.6,6.86-1.79,11.62-1.19,4.77-2.98,9.24-5.36,13.41l-245.87,511.41c-4.17,8.94-9.83,16.09-16.99,21.46-7.15,5.36-14.9,8.05-23.24,8.05-1.79,0-3.88-.3-6.26-.9-1.79-.59-5.07-1.79-9.83-3.58l-62.58-23.24c-9.54-4.17-16.69-8.94-21.46-14.31-4.77-5.36-7.15-11.62-7.15-18.77v-14.31c0-2.38.6-5.06,1.79-8.04l115.33-454.19Z"/>
</svg>