<?xml version="1.0" encoding="utf-8"?>
<!-- Generator: Adobe Illustrator 28.2.0, SVG Export Plug-In . SVG Version: 6.00 Build 0)  -->
<svg version="1.1" id="Layer_1" xmlns="http://www.w3.org/2000/svg" xmlns:xlink="http://www.w3.org/1999/xlink" x="0px" y="0px"
	 viewBox="0 0 545.2 941.5" style="enable-background:new 0 0 545.2 941.5;" xml:space="preserve">
<style type="text/css">
	.st0{fill:#FFFFFF;}
	.st1{fill:#DF4585;fill-opacity:0.6;}
</style>
<g>
	<rect class="st0" width="545.2" height="941.5"/>
</g>
<path d="M54.6,72c0.8,0,1.5-0.2,2-0.5c0.5-0.3,1-0.7,1.3-1.2c0.3-0.5,0.6-1.1,0.7-1.8c0.1-0.7,0.2-1.4,0.2-2.1
	c0-0.7-0.1-1.4-0.2-2.1c-0.1-0.7-0.4-1.3-0.7-1.8c-0.3-0.6-0.8-1-1.3-1.3c-0.5-0.3-1.2-0.5-2-0.5c-0.8,0-1.5,0.2-2,0.5
	c-0.5,0.3-1,0.7-1.3,1.3c-0.3,0.5-0.5,1.1-0.7,1.8c-0.1,0.7-0.2,1.4-0.2,2.1c0,0.7,0.1,1.4,0.2,2.1c0.2,0.7,0.4,1.3,0.7,1.8
	c0.3,0.5,0.8,0.9,1.3,1.2C53.1,71.9,53.8,72,54.6,72z M45.6,57.5h4.6v2.3h0.1c0.6-1,1.4-1.7,2.3-2.1c0.9-0.4,1.9-0.7,3-0.7
	c1.4,0,2.6,0.3,3.6,0.8c1,0.5,1.8,1.2,2.5,2.1c0.7,0.9,1.2,1.9,1.5,3.1c0.3,1.1,0.5,2.3,0.5,3.6c0,1.2-0.2,2.3-0.5,3.4
	c-0.3,1.1-0.8,2.1-1.5,2.9c-0.6,0.9-1.5,1.5-2.4,2c-1,0.5-2.1,0.8-3.4,0.8c-1.1,0-2.1-0.2-3.1-0.7c-0.9-0.4-1.7-1.1-2.3-2h-0.1v8.4
	h-4.9V57.5z M78.6,64.4c-0.2-1.2-0.6-2.2-1.2-2.8c-0.6-0.6-1.5-1-2.6-1c-0.8,0-1.4,0.1-2,0.4c-0.5,0.3-0.9,0.6-1.2,1
	c-0.3,0.4-0.5,0.8-0.7,1.2c-0.1,0.4-0.2,0.8-0.2,1.2H78.6z M70.6,67.5c0.1,1.6,0.5,2.7,1.2,3.4S73.6,72,75,72c1,0,1.8-0.2,2.5-0.7
	c0.7-0.5,1.1-1,1.3-1.6h4.3c-0.7,2.1-1.7,3.7-3.2,4.6c-1.4,0.9-3.1,1.4-5.2,1.4c-1.4,0-2.7-0.2-3.8-0.7c-1.1-0.4-2.1-1.1-2.9-1.9
	c-0.8-0.8-1.4-1.8-1.8-3c-0.4-1.1-0.6-2.4-0.6-3.8c0-1.3,0.2-2.6,0.7-3.7c0.4-1.1,1.1-2.1,1.9-2.9c0.8-0.8,1.8-1.5,2.9-2
	c1.1-0.5,2.4-0.7,3.7-0.7c1.5,0,2.8,0.3,4,0.9c1.1,0.6,2,1.3,2.7,2.3c0.7,1,1.3,2.1,1.6,3.4s0.4,2.6,0.3,3.9H70.6z M86.3,57.5H91
	v3.3H91c0.2-0.6,0.5-1.1,0.9-1.5c0.4-0.5,0.8-0.9,1.3-1.2c0.5-0.3,1-0.6,1.6-0.8c0.6-0.2,1.2-0.3,1.8-0.3c0.3,0,0.7,0.1,1.1,0.2v4.5
	c-0.2,0-0.5-0.1-0.8-0.1c-0.3-0.1-0.6-0.1-0.9-0.1c-0.9,0-1.6,0.2-2.3,0.5c-0.6,0.3-1.1,0.7-1.5,1.2c-0.4,0.5-0.6,1.1-0.8,1.8
	c-0.2,0.7-0.2,1.4-0.2,2.2v8h-4.9V57.5z M104.7,54.7h-4.9v-4h4.9V54.7z M99.8,57.5h4.9v17.8h-4.9V57.5z M112.9,66.4
	c0,0.7,0.1,1.4,0.2,2.1c0.1,0.7,0.4,1.3,0.7,1.8c0.3,0.5,0.8,1,1.3,1.3c0.5,0.3,1.2,0.5,2.1,0.5c0.8,0,1.5-0.2,2.1-0.5
	c0.6-0.3,1-0.7,1.3-1.3c0.3-0.5,0.6-1.1,0.7-1.8c0.1-0.7,0.2-1.4,0.2-2.1c0-0.7-0.1-1.4-0.2-2.1c-0.1-0.7-0.4-1.3-0.7-1.8
	c-0.3-0.5-0.8-0.9-1.3-1.3c-0.6-0.3-1.2-0.5-2.1-0.5c-0.8,0-1.5,0.2-2.1,0.5c-0.5,0.3-1,0.7-1.3,1.3c-0.3,0.5-0.5,1.1-0.7,1.8
	C112.9,65,112.9,65.7,112.9,66.4z M108,66.4c0-1.4,0.2-2.7,0.7-3.9c0.4-1.2,1.1-2.2,1.9-3c0.8-0.8,1.8-1.4,2.9-1.9
	c1.1-0.5,2.4-0.7,3.8-0.7c1.4,0,2.7,0.2,3.8,0.7c1.1,0.4,2.1,1.1,2.9,1.9c0.8,0.8,1.4,1.8,1.9,3c0.4,1.1,0.7,2.4,0.7,3.9
	c0,1.4-0.2,2.7-0.7,3.8c-0.4,1.2-1.1,2.1-1.9,3c-0.8,0.8-1.8,1.4-2.9,1.8c-1.1,0.4-2.4,0.7-3.8,0.7c-1.4,0-2.7-0.2-3.8-0.7
	c-1.1-0.4-2.1-1-2.9-1.8c-0.8-0.8-1.4-1.8-1.9-3C108.2,69.1,108,67.8,108,66.4z M142.2,66.3c0-0.7-0.1-1.4-0.2-2.1
	c-0.1-0.7-0.4-1.3-0.7-1.8c-0.3-0.5-0.7-0.9-1.3-1.3c-0.5-0.3-1.2-0.5-2-0.5s-1.5,0.2-2,0.5c-0.5,0.3-1,0.8-1.3,1.3
	c-0.3,0.5-0.6,1.1-0.7,1.8c-0.1,0.7-0.2,1.4-0.2,2.1c0,0.7,0.1,1.4,0.2,2.1c0.2,0.7,0.4,1.3,0.8,1.9c0.4,0.5,0.8,1,1.3,1.3
	c0.5,0.3,1.2,0.5,2,0.5c0.8,0,1.5-0.2,2-0.5c0.5-0.3,1-0.7,1.3-1.3c0.3-0.5,0.5-1.2,0.7-1.8C142.1,67.7,142.2,67,142.2,66.3z
	 M142.2,73L142.2,73c-0.6,1-1.4,1.7-2.3,2.1c-0.9,0.4-2,0.6-3.1,0.6c-1.3,0-2.5-0.2-3.5-0.8c-1-0.5-1.8-1.2-2.5-2.1
	c-0.6-0.9-1.1-1.9-1.5-3.1c-0.3-1.1-0.5-2.3-0.5-3.6c0-1.2,0.2-2.3,0.5-3.4c0.3-1.1,0.8-2.1,1.5-3c0.7-0.8,1.5-1.5,2.5-2
	c1-0.5,2.1-0.8,3.4-0.8c1.1,0,2.1,0.2,3,0.7c1,0.4,1.7,1.1,2.3,2h0.1v-8.9h4.9v24.5h-4.6V73z"/>
<path d="M447.2,66.6c0,1.4,0,3.1,0.1,5c0.1,1.9,0.4,3.8,0.8,5.6c0.5,1.8,1.3,3.3,2.3,4.6c1.1,1.3,2.6,1.9,4.5,1.9
	c2,0,3.6-0.7,4.6-1.9c1.1-1.3,1.9-2.8,2.3-4.6c0.5-1.8,0.8-3.7,0.9-5.6c0.1-2,0.1-3.6,0.1-5c0-0.8,0-1.8-0.1-2.9
	c0-1.2-0.1-2.4-0.3-3.6c-0.1-1.2-0.4-2.4-0.7-3.7c-0.3-1.2-0.7-2.3-1.3-3.3c-0.6-1-1.4-1.8-2.3-2.3c-0.9-0.6-2-0.9-3.4-0.9
	c-1.3,0-2.5,0.3-3.4,0.9c-0.9,0.6-1.6,1.4-2.2,2.3c-0.6,1-1,2.1-1.3,3.3c-0.3,1.2-0.5,2.4-0.7,3.7c-0.1,1.2-0.2,2.5-0.3,3.6
	C447.2,64.8,447.2,65.8,447.2,66.6z M437.5,66.6c0-4.7,0.5-8.6,1.4-11.8c1-3.2,2.2-5.8,3.8-7.7c1.6-1.9,3.5-3.3,5.6-4.1
	c2.2-0.8,4.4-1.2,6.8-1.2c2.4,0,4.7,0.4,6.8,1.2c2.2,0.8,4,2.2,5.6,4.1c1.6,1.9,2.9,4.5,3.8,7.7c1,3.2,1.4,7.1,1.4,11.8
	c0,4.8-0.5,8.9-1.4,12.1c-0.9,3.2-2.2,5.8-3.8,7.7c-1.6,1.9-3.5,3.3-5.6,4.1c-2.1,0.8-4.4,1.2-6.8,1.2c-2.4,0-4.7-0.4-6.8-1.2
	c-2.1-0.8-4-2.2-5.6-4.1c-1.6-1.9-2.9-4.5-3.8-7.7C437.9,75.5,437.5,71.5,437.5,66.6z M508.6,50.8h-19.9l-1.9,10.9l0.1,0.1
	c1.3-1.3,2.7-2.3,4.3-2.8c1.5-0.6,3.2-0.9,5.2-0.9c2.4,0,4.5,0.4,6.3,1.3c1.8,0.9,3.4,2,4.6,3.5c1.3,1.5,2.2,3.2,2.9,5.2
	c0.7,2,1,4.1,1,6.3c0,2.5-0.5,4.8-1.4,6.9c-1,2.1-2.3,3.9-3.9,5.5c-1.6,1.5-3.5,2.8-5.6,3.6c-2.2,0.8-4.4,1.2-6.9,1.2
	c-2.3,0-4.6-0.3-6.7-0.9c-2.1-0.6-4-1.6-5.6-2.9c-1.7-1.3-3-2.9-4-4.7c-1-1.9-1.5-4.1-1.5-6.7h9.8c0.2,2.2,1.1,4,2.5,5.3
	c1.4,1.3,3.2,1.9,5.4,1.9c1.3,0,2.4-0.3,3.4-0.8c1.1-0.6,1.9-1.2,2.6-2.1c0.7-0.9,1.3-1.9,1.6-3c0.4-1.1,0.6-2.3,0.6-3.5
	c0-1.2-0.2-2.4-0.5-3.5c-0.4-1.1-0.9-2.1-1.7-2.9c-0.7-0.8-1.6-1.5-2.6-1.9c-1-0.5-2.2-0.7-3.5-0.7c-1.7,0-3.2,0.3-4.3,1
	c-1.1,0.6-2.1,1.5-3.1,2.9H477l4.7-26.6h26.9V50.8z"/>
<path class="st1" d="M99.8,647.9c0-46.5,16.1-84.7,48.3-114.5c32.8-29.8,75.2-44.8,127.1-44.8c53.1,0,95.7,14.6,128,43.8
	c32.2,29.2,48.3,67.7,48.3,115.4c0,47.7-16.4,86.2-49.2,115.4c-32.2,29.2-74.6,43.8-127.1,43.8s-94.9-14.6-127.1-43.8
	C115.9,734.1,99.8,695.6,99.8,647.9z"/>
<path class="st1" d="M276,498.4c41.8,0,77,14.6,105.6,43.8c29.2,29.2,43.8,64.4,43.8,105.6c0,41.2-14.6,76.4-43.8,105.6
	c-29.2,28.6-64.4,43-105.6,43c-41.2,0-76.4-14.3-105.6-43c-28.6-29.2-43-64.4-43-105.6c0-41.2,14.3-76.4,43-105.6
	C199.7,513,234.9,498.4,276,498.4z"/>
<path class="st1" d="M131,519.2h287.7v282.2H131V519.2z"/>
</svg>
