<?xml version="1.0" encoding="utf-8"?>
<!-- Generator: Adobe Illustrator 28.2.0, SVG Export Plug-In . SVG Version: 6.00 Build 0)  -->
<svg version="1.1" id="Layer_1" xmlns="http://www.w3.org/2000/svg" xmlns:xlink="http://www.w3.org/1999/xlink" x="0px" y="0px"
	 viewBox="0 0 564.3 974.4" style="enable-background:new 0 0 564.3 974.4;" xml:space="preserve">
<style type="text/css">
	.st0{fill:#FFFFFF;}
	.st1{fill:#FFCC19;fill-opacity:0.6;}
</style>
<g>
	<rect class="st0" width="564.3" height="974.4"/>
</g>
<path d="M460.5,68.6c0,1.4,0,3.2,0.1,5.2c0.1,2,0.4,3.9,0.9,5.8c0.5,1.8,1.3,3.4,2.4,4.8c1.1,1.3,2.7,2,4.7,2c2.1,0,3.7-0.7,4.8-2
	c1.1-1.3,1.9-2.9,2.4-4.8c0.5-1.9,0.8-3.8,0.9-5.8c0.1-2,0.1-3.8,0.1-5.2c0-0.9,0-1.9-0.1-3.1c0-1.2-0.1-2.5-0.3-3.8
	c-0.1-1.3-0.4-2.5-0.7-3.8c-0.3-1.3-0.7-2.4-1.4-3.4c-0.6-1-1.4-1.8-2.3-2.4c-0.9-0.6-2.1-0.9-3.5-0.9c-1.4,0-2.5,0.3-3.5,0.9
	c-0.9,0.6-1.7,1.4-2.3,2.4c-0.6,1-1,2.1-1.4,3.4c-0.3,1.2-0.6,2.5-0.7,3.8c-0.1,1.3-0.2,2.5-0.3,3.8
	C460.5,66.7,460.5,67.7,460.5,68.6z M450.4,68.6c0-4.8,0.5-8.9,1.4-12.2c1-3.3,2.3-6,4-8c1.7-2,3.6-3.4,5.8-4.3
	c2.2-0.9,4.6-1.3,7-1.3c2.5,0,4.9,0.4,7,1.3c2.2,0.9,4.2,2.3,5.8,4.3c1.7,2,3,4.6,4,8c1,3.3,1.5,7.3,1.5,12.2c0,5-0.5,9.2-1.5,12.5
	c-0.9,3.3-2.3,6-4,8c-1.7,2-3.6,3.4-5.8,4.3c-2.2,0.9-4.5,1.3-7,1.3c-2.5,0-4.8-0.4-7-1.3c-2.2-0.9-4.1-2.3-5.8-4.3
	c-1.7-2-3-4.6-4-8C450.9,77.8,450.4,73.6,450.4,68.6z M516.3,93.7h-10.1V61.4h-12.5v-7.6c1.8,0,3.4-0.1,5-0.4
	c1.7-0.3,3.1-0.9,4.4-1.6c1.3-0.8,2.4-1.8,3.3-3.1c0.9-1.3,1.5-2.9,1.8-4.8h8V93.7z"/>
<path d="M25.2,56.6c0,0.7,0.1,1.5,0.2,2.2c0.1,0.7,0.4,1.3,0.7,1.9c0.4,0.5,0.8,1,1.4,1.3c0.6,0.3,1.3,0.5,2.1,0.5
	c0.8,0,1.5-0.2,2.1-0.5c0.6-0.3,1-0.8,1.4-1.3c0.4-0.5,0.6-1.2,0.7-1.8c0.2-0.7,0.2-1.4,0.2-2.2c0-0.7-0.1-1.4-0.2-2.1
	c-0.1-0.7-0.4-1.4-0.7-1.9c-0.3-0.6-0.8-1-1.4-1.4c-0.5-0.4-1.2-0.5-2-0.5c-0.8,0-1.5,0.2-2.1,0.5s-1,0.8-1.4,1.4
	c-0.4,0.5-0.6,1.2-0.8,1.9C25.2,55.2,25.2,55.9,25.2,56.6z M38.8,72.3h-5.1v-8.7h-0.1c-0.6,1-1.4,1.7-2.5,2.1
	c-1.1,0.4-2.2,0.6-3.3,0.6c-0.9,0-1.7-0.2-2.7-0.5c-0.9-0.3-1.7-0.9-2.5-1.6c-0.8-0.8-1.4-1.7-1.9-3c-0.5-1.2-0.7-2.7-0.7-4.5
	c0-1.3,0.2-2.5,0.5-3.7c0.3-1.2,0.8-2.2,1.5-3.1c0.7-0.9,1.5-1.7,2.6-2.2c1-0.5,2.3-0.8,3.7-0.8c1.1,0,2.2,0.2,3.2,0.7
	c1,0.4,1.8,1.1,2.4,2.2H34v-2.3h4.8V72.3z M59.9,65.8h-4.8v-2.6H55c-0.6,1.1-1.5,1.8-2.5,2.3c-1,0.5-2.1,0.7-3.1,0.7
	c-1.4,0-2.5-0.2-3.3-0.5c-0.9-0.4-1.5-0.9-2-1.5c-0.5-0.7-0.9-1.5-1.1-2.4c-0.2-0.9-0.3-2-0.3-3.1V47.4h5.1v10.4
	c0,1.5,0.2,2.7,0.7,3.4c0.5,0.7,1.3,1.1,2.5,1.1c1.4,0,2.4-0.4,3-1.2c0.6-0.8,0.9-2.2,0.9-4.1v-9.6h5.1V65.8z M76.1,54.7
	c-0.2-1.3-0.7-2.3-1.3-2.9c-0.6-0.7-1.5-1-2.7-1c-0.8,0-1.5,0.1-2,0.4c-0.5,0.3-0.9,0.6-1.3,1c-0.3,0.4-0.5,0.8-0.7,1.3
	c-0.1,0.5-0.2,0.9-0.2,1.2H76.1z M67.9,57.9c0.1,1.6,0.5,2.8,1.2,3.6c0.8,0.7,1.8,1.1,3.3,1.1c1,0,1.9-0.2,2.6-0.7
	c0.7-0.5,1.2-1.1,1.4-1.6h4.4c-0.7,2.2-1.8,3.8-3.3,4.7c-1.5,0.9-3.2,1.4-5.3,1.4c-1.4,0-2.8-0.2-3.9-0.7c-1.2-0.5-2.1-1.1-3-2
	s-1.4-1.9-1.9-3.1c-0.4-1.2-0.6-2.5-0.6-3.9c0-1.4,0.2-2.7,0.7-3.8c0.5-1.2,1.1-2.2,1.9-3.1c0.8-0.9,1.8-1.6,3-2.1
	c1.2-0.5,2.4-0.7,3.8-0.7c1.6,0,2.9,0.3,4.1,0.9c1.2,0.6,2.1,1.4,2.8,2.4c0.8,1,1.3,2.2,1.6,3.5c0.3,1.3,0.5,2.7,0.4,4.1H67.9z
	 M88,59.8c0,0.5,0.1,1,0.3,1.4c0.2,0.4,0.5,0.7,0.9,1c0.4,0.2,0.8,0.4,1.2,0.5c0.5,0.1,1,0.2,1.5,0.2c0.4,0,0.7,0,1.1-0.1
	c0.4-0.1,0.8-0.2,1.1-0.4c0.3-0.2,0.6-0.4,0.8-0.7c0.2-0.3,0.3-0.7,0.3-1.1c0-0.8-0.5-1.3-1.5-1.7c-1-0.4-2.4-0.8-4.2-1.1
	c-0.7-0.2-1.5-0.4-2.2-0.6c-0.7-0.2-1.3-0.5-1.8-0.9c-0.5-0.4-1-0.8-1.3-1.4c-0.3-0.6-0.5-1.3-0.5-2.1c0-1.2,0.2-2.2,0.7-2.9
	c0.5-0.8,1.1-1.4,1.8-1.8c0.8-0.5,1.6-0.8,2.6-0.9c0.9-0.2,1.9-0.3,2.9-0.3s2,0.1,2.9,0.3c0.9,0.2,1.8,0.5,2.5,1
	c0.7,0.5,1.3,1.1,1.8,1.8c0.5,0.7,0.8,1.7,0.9,2.8H95c-0.1-1-0.4-1.6-1.1-2c-0.7-0.4-1.4-0.5-2.3-0.5c-0.3,0-0.6,0-0.9,0.1
	c-0.3,0-0.6,0.1-0.9,0.2c-0.3,0.1-0.5,0.3-0.7,0.5c-0.2,0.2-0.3,0.5-0.3,0.9c0,0.5,0.2,0.8,0.5,1.1s0.8,0.5,1.3,0.7
	c0.5,0.2,1.2,0.3,1.8,0.5c0.7,0.1,1.4,0.3,2.1,0.5c0.7,0.2,1.4,0.4,2.1,0.6c0.7,0.2,1.3,0.6,1.9,1c0.5,0.4,1,0.9,1.3,1.5
	c0.3,0.6,0.5,1.3,0.5,2.1c0,1.2-0.2,2.2-0.7,3.1c-0.5,0.8-1.1,1.5-1.9,2c-0.8,0.5-1.7,0.8-2.7,1c-1,0.2-2,0.3-3.1,0.3
	c-1.1,0-2.1-0.1-3.1-0.3c-1-0.2-1.9-0.6-2.7-1.1c-0.8-0.5-1.4-1.1-2-2c-0.5-0.8-0.8-1.9-0.8-3.1H88z M109.6,47.4h3.7v3.4h-3.7v9.1
	c0,0.9,0.1,1.4,0.4,1.7c0.3,0.3,0.9,0.4,1.7,0.4c0.3,0,0.6,0,0.8,0c0.3,0,0.5-0.1,0.7-0.1v3.9c-0.4,0.1-0.9,0.1-1.4,0.1
	c-0.5,0-1,0-1.5,0c-0.8,0-1.5-0.1-2.2-0.2c-0.7-0.1-1.3-0.3-1.9-0.6c-0.5-0.3-0.9-0.7-1.2-1.3c-0.3-0.6-0.5-1.3-0.5-2.2V50.8h-3.1
	v-3.4h3.1v-5.5h5V47.4z M120.9,44.6h-5v-4.2h5V44.6z M115.9,47.4h5v18.4h-5V47.4z M129.4,56.6c0,0.7,0.1,1.5,0.2,2.2
	c0.1,0.7,0.4,1.3,0.7,1.9c0.4,0.5,0.8,1,1.4,1.3c0.6,0.3,1.3,0.5,2.1,0.5c0.9,0,1.6-0.2,2.1-0.5c0.6-0.3,1.1-0.8,1.4-1.3
	c0.4-0.6,0.6-1.2,0.7-1.9c0.1-0.7,0.2-1.4,0.2-2.2c0-0.7-0.1-1.5-0.2-2.2c-0.1-0.7-0.4-1.3-0.7-1.9c-0.3-0.5-0.8-1-1.4-1.3
	c-0.6-0.4-1.3-0.5-2.1-0.5c-0.9,0-1.6,0.2-2.1,0.5c-0.6,0.3-1,0.8-1.4,1.3c-0.3,0.5-0.6,1.2-0.7,1.9
	C129.5,55.2,129.4,55.9,129.4,56.6z M124.3,56.6c0-1.5,0.2-2.8,0.7-4c0.5-1.2,1.1-2.2,1.9-3.1c0.8-0.9,1.8-1.5,3-2
	c1.2-0.5,2.5-0.7,3.9-0.7c1.4,0,2.8,0.2,3.9,0.7c1.2,0.5,2.2,1.1,3,2c0.8,0.8,1.5,1.8,1.9,3.1c0.5,1.2,0.7,2.5,0.7,4
	c0,1.5-0.2,2.8-0.7,4c-0.4,1.2-1.1,2.2-1.9,3.1c-0.8,0.8-1.8,1.5-3,1.9c-1.2,0.5-2.5,0.7-3.9,0.7c-1.4,0-2.8-0.2-3.9-0.7
	c-1.2-0.5-2.2-1.1-3-1.9c-0.8-0.9-1.5-1.9-1.9-3.1C124.6,59.4,124.3,58.1,124.3,56.6z M146.6,47.4h4.8V50h0.1
	c0.6-1.1,1.5-1.8,2.5-2.3c1-0.5,2.1-0.7,3.1-0.7c1.4,0,2.5,0.2,3.3,0.6c0.9,0.4,1.6,0.9,2.1,1.5c0.5,0.6,0.8,1.4,1,2.4
	c0.2,0.9,0.3,2,0.3,3.1v11.3h-5.1V55.4c0-1.5-0.2-2.6-0.7-3.4c-0.5-0.8-1.3-1.1-2.5-1.1c-1.4,0-2.4,0.4-3,1.2
	c-0.6,0.8-0.9,2.1-0.9,4v9.6h-5V47.4z M21,90.4h4.8v2.5h0.1c0.7-0.9,1.5-1.7,2.4-2.2c0.9-0.5,2-0.8,3.2-0.8c1.2,0,2.2,0.2,3.2,0.7
	c1,0.5,1.7,1.2,2.2,2.4c0.5-0.8,1.3-1.5,2.2-2.1c0.9-0.6,2.1-0.9,3.3-0.9c1,0,1.9,0.1,2.7,0.4c0.8,0.2,1.5,0.6,2.1,1.1
	c0.6,0.5,1.1,1.2,1.4,2.1c0.3,0.8,0.5,1.8,0.5,3v12.3h-5V98.4c0-0.6,0-1.2-0.1-1.7c0-0.5-0.2-1-0.4-1.4s-0.5-0.7-1-1
	c-0.4-0.2-1-0.4-1.7-0.4c-0.7,0-1.3,0.1-1.7,0.4c-0.4,0.3-0.8,0.6-1,1.1c-0.2,0.4-0.4,0.9-0.5,1.5c-0.1,0.5-0.1,1.1-0.1,1.7v10.2h-5
	V98.5c0-0.5,0-1.1,0-1.6c0-0.5-0.1-1-0.3-1.5c-0.2-0.4-0.5-0.8-0.9-1.1c-0.4-0.3-1-0.4-1.8-0.4c-0.2,0-0.6,0.1-1,0.2
	c-0.4,0.1-0.8,0.3-1.1,0.6C27,95,26.7,95.4,26.5,96c-0.3,0.5-0.4,1.3-0.4,2.2v10.7H21V90.4z M52.9,96.1c0.1-1.2,0.4-2.2,0.9-3
	c0.5-0.8,1.2-1.4,2-1.9c0.8-0.5,1.7-0.8,2.7-1c1-0.2,2-0.3,3.1-0.3c0.9,0,1.9,0.1,2.8,0.2c0.9,0.1,1.8,0.4,2.6,0.7
	c0.8,0.4,1.4,0.9,1.9,1.6c0.5,0.7,0.7,1.6,0.7,2.7v9.6c0,0.8,0,1.6,0.1,2.4c0.1,0.8,0.3,1.3,0.5,1.7h-5.1c-0.1-0.3-0.2-0.6-0.2-0.9
	c0-0.3-0.1-0.6-0.1-0.9c-0.8,0.8-1.8,1.4-2.8,1.7c-1.1,0.3-2.2,0.5-3.3,0.5c-0.9,0-1.7-0.1-2.5-0.3c-0.8-0.2-1.4-0.5-2-1
	c-0.6-0.4-1-1-1.4-1.7c-0.3-0.7-0.5-1.5-0.5-2.5c0-1,0.2-1.9,0.5-2.6c0.4-0.7,0.9-1.2,1.4-1.6c0.6-0.4,1.3-0.7,2-0.9
	c0.8-0.2,1.5-0.4,2.3-0.5c0.8-0.1,1.5-0.2,2.2-0.3c0.7-0.1,1.4-0.2,2-0.3s1-0.3,1.4-0.6c0.3-0.3,0.5-0.7,0.5-1.2
	c0-0.5-0.1-1-0.3-1.3c-0.2-0.3-0.4-0.6-0.7-0.7c-0.3-0.2-0.6-0.3-1-0.4c-0.4-0.1-0.8-0.1-1.2-0.1c-1,0-1.8,0.2-2.3,0.6
	s-0.9,1.1-1,2.1H52.9z M64.6,99.8c-0.2,0.2-0.5,0.3-0.8,0.5c-0.3,0.1-0.7,0.2-1,0.2c-0.4,0.1-0.7,0.1-1.1,0.2
	c-0.4,0-0.8,0.1-1.2,0.2c-0.4,0.1-0.8,0.2-1.1,0.3c-0.4,0.1-0.7,0.3-1,0.5c-0.3,0.2-0.5,0.4-0.6,0.7c-0.2,0.3-0.2,0.7-0.2,1.2
	c0,0.4,0.1,0.8,0.2,1.1c0.2,0.3,0.4,0.6,0.7,0.7c0.3,0.2,0.6,0.3,1,0.4c0.4,0.1,0.8,0.1,1.2,0.1c1,0,1.8-0.2,2.3-0.5
	c0.5-0.3,0.9-0.7,1.2-1.2c0.3-0.5,0.4-0.9,0.5-1.4c0.1-0.5,0.1-0.9,0.1-1.1V99.8z M73.5,90.4h4.8v3.4h0.1c0.2-0.6,0.6-1.1,1-1.6
	c0.4-0.5,0.9-0.9,1.4-1.2c0.5-0.4,1.1-0.6,1.7-0.8c0.6-0.2,1.2-0.3,1.8-0.3c0.3,0,0.7,0.1,1.1,0.2v4.7c-0.2,0-0.5-0.1-0.9-0.1
	c-0.3,0-0.7-0.1-1-0.1c-0.9,0-1.7,0.2-2.3,0.5c-0.6,0.3-1.2,0.7-1.6,1.3c-0.4,0.5-0.7,1.1-0.8,1.9c-0.2,0.7-0.2,1.5-0.2,2.3v8.3
	h-5.1V90.4z M87.8,83.4h5v13.6l6.4-6.6h6l-6.9,6.8l7.7,11.6h-6.1l-5-8.2l-2,1.9v6.3h-5V83.4z"/>
<path class="st1" d="M285.5,629.5h-19c-0.6-34.3,0.9-59.9,4.6-76.9c4-17,14-40.3,30.1-69.9c16.4-29.9,27-53.9,32-71.8
	c5.2-18.2,7.9-40.6,7.9-67.1c0-41.1-8-71.3-24.1-90.8c-16.1-19.4-35-29.2-57-29.2c-16.7,0-30.7,4.5-42.1,13.4
	c-8.6,6.8-13,13.9-13,21.3c0,4.9,2.9,12.7,8.8,23.2c13.3,23.8,19.9,44,19.9,60.7c0,15.1-5.2,27.8-15.7,38
	c-10.2,10.2-23,15.3-38.4,15.3c-17.3,0-31.8-6-43.5-18.1c-11.7-12.3-17.6-28.6-17.6-48.6c0-36.4,15.7-68.4,47.2-95.9
	c31.5-27.5,75.5-41.2,132-41.2c59.9,0,105.4,14.4,136.6,43.1c31.5,28.4,47.2,62.8,47.2,103.3c0,29.3-8,56.5-24.1,81.5
	c-16.1,24.7-47.1,52.2-93.1,82.4c-30.9,20.4-51.2,38.6-61.1,54.6C293.5,572.5,287.7,596.8,285.5,629.5z M280.4,697.1
	c20.7,0,38.3,7.3,52.8,21.8c14.5,14.5,21.8,32.1,21.8,52.8c0,20.7-7.3,38.4-21.8,53.3c-14.5,14.5-32.1,21.8-52.8,21.8
	c-20.7,0-38.3-7.3-52.8-21.8c-14.5-14.8-21.8-32.6-21.8-53.3c0-20.7,7.3-38.3,21.8-52.8C242.1,704.4,259.7,697.1,280.4,697.1z"/>
<path class="st1" d="M366,761.1v146H217.1v-146H366z M64.4,448.2c0.6-34.1,6.3-65.4,17.1-93.9c11.4-28.5,26.9-53.1,46.5-74
	c20.2-20.9,44.3-37,72.1-48.4c28.5-12,60.1-18,94.8-18c44.9,0,82.2,6.3,111.9,19c30.3,12,54.7,27.2,73,45.5
	c18.3,18.3,31.3,38.2,38.9,59.7C526.9,359,531,378.6,531,397c0,30.3-4.1,55.3-12.3,74.9c-7.6,19.6-17.4,36.4-29.4,50.3
	c-11.4,13.9-24.3,25.9-38.9,36c-13.9,9.5-27.2,19.3-39.8,29.4c-12.6,9.5-24,20.5-34.1,33.2c-9.5,12.6-15.5,28.5-18,47.4v36h-128
	v-42.7c1.9-27.2,7-49.9,15.2-68.3c8.9-18.3,19-33.8,30.3-46.5c11.4-13.3,23.4-24.7,36-34.1c12.6-9.5,24.3-19,35.1-28.5
	c10.7-9.5,19.3-19.9,25.6-31.3c7-11.4,10.1-25.6,9.5-42.7c0-29.1-7.3-50.6-21.8-64.5c-13.9-13.9-33.5-20.9-58.8-20.9
	c-17.1,0-31.9,3.5-44.6,10.4c-12,6.3-22.1,15.2-30.3,26.6c-7.6,10.7-13.3,23.7-17.1,38.9c-3.8,14.5-5.7,30.3-5.7,47.4H64.4z"/>
<path class="st1" d="M182.7,762.7c0-20.4,7.7-37,23.2-50c15.7-13,36.4-19.4,62.1-19.4c25.9,0,46.8,6.5,62.5,19.4
	c15.7,12.7,23.6,29.3,23.6,50s-8,37.5-24.1,50.5c-15.7,13-36.4,19.4-62.1,19.4c-25.3,0-45.8-6.5-61.6-19.4
	C190.6,799.9,182.7,783.1,182.7,762.7z M233.6,587.2c0-16.7,2.8-29.8,8.3-39.4c5.9-9.6,15.7-17.9,29.6-25c8.3-4.3,20.7-10.3,37-18.1
	c60.8-28.1,91.2-61,91.2-98.6c0-28.4-10-51.4-30.1-69c-20.1-17.9-46.5-26.9-79.2-26.9c-21.6,0-41.5,2.9-59.7,8.8
	c-18.2,5.6-29.3,11.7-33.3,18.5c-0.9,1.9-1.9,6.3-2.8,13.4c-2.5,27.8-13.4,41.7-32.9,41.7c-10.2,0-18.4-3.7-24.5-11.1
	c-5.9-7.4-8.8-17.3-8.8-29.6v-45.4c0-17,16.7-31.3,50-43.1c33.3-11.7,73.9-17.6,121.8-17.6c51.6,0,93.4,15,125.5,44.9
	c32.4,29.9,48.6,68.7,48.6,116.2c0,38-13.1,70.1-39.4,96.3c-26.2,25.9-70.2,50.3-132,73.2v37c0,10.2-3.2,18.5-9.7,25
	c-6.5,6.2-15,9.3-25.5,9.3c-10.8,0-19.3-2.9-25.5-8.8c-5.9-5.9-8.8-14-8.8-24.5V587.2z"/>
</svg>
