<?xml version="1.0" encoding="utf-8"?>
<!-- Generator: Adobe Illustrator 28.2.0, SVG Export Plug-In . SVG Version: 6.00 Build 0)  -->
<svg version="1.1" id="Layer_1" xmlns="http://www.w3.org/2000/svg" xmlns:xlink="http://www.w3.org/1999/xlink" x="0px" y="0px"
	 viewBox="0 0 552 941.7" style="enable-background:new 0 0 552 941.7;" xml:space="preserve">
<style type="text/css">
	.st0{fill-opacity:0.6;}
</style>
<path d="M33,62c-0.3-2-1.5-3-3.5-3c-0.8,0-1.4,0.2-1.9,0.5s-0.9,0.8-1.3,1.3c-0.3,0.5-0.5,1.1-0.7,1.8c-0.1,0.6-0.2,1.3-0.2,1.9
	c0,0.6,0.1,1.3,0.2,1.9s0.3,1.2,0.6,1.8c0.3,0.5,0.7,0.9,1.2,1.3c0.5,0.3,1.1,0.5,1.9,0.5c1.1,0,2-0.3,2.6-0.9
	c0.6-0.6,1-1.5,1.2-2.6h4.7c-0.3,2.3-1.2,4.1-2.7,5.3c-1.5,1.2-3.4,1.8-5.7,1.8c-1.3,0-2.5-0.2-3.6-0.6s-2-1.1-2.8-1.8
	c-0.8-0.8-1.4-1.7-1.8-2.8c-0.4-1.1-0.6-2.3-0.6-3.6c0-1.3,0.2-2.6,0.6-3.7c0.4-1.2,1-2.2,1.7-3c0.8-0.9,1.7-1.5,2.8-2
	c1.1-0.5,2.3-0.7,3.8-0.7c1,0,2,0.1,3,0.4c1,0.3,1.8,0.7,2.5,1.2c0.8,0.5,1.4,1.2,1.8,2c0.5,0.8,0.7,1.8,0.8,2.9L33,62L33,62z
	 M44.7,64.6c0,0.7,0.1,1.4,0.2,2c0.1,0.6,0.4,1.2,0.7,1.8c0.3,0.5,0.8,0.9,1.3,1.2c0.5,0.3,1.2,0.5,2,0.5s1.5-0.2,2-0.5
	c0.6-0.3,1-0.7,1.3-1.2s0.6-1.1,0.7-1.8c0.1-0.7,0.2-1.4,0.2-2c0-0.7-0.1-1.4-0.2-2c-0.1-0.7-0.4-1.3-0.7-1.8s-0.7-0.9-1.3-1.2
	c-0.5-0.3-1.2-0.5-2-0.5s-1.5,0.2-2,0.5s-1,0.7-1.3,1.2s-0.5,1.1-0.7,1.8C44.7,63.2,44.7,63.9,44.7,64.6z M39.9,64.6
	c0-1.4,0.2-2.6,0.6-3.8c0.4-1.1,1-2.1,1.8-2.9c0.8-0.8,1.7-1.4,2.8-1.8c1.1-0.4,2.3-0.7,3.7-0.7s2.6,0.2,3.7,0.7
	c1.1,0.4,2.1,1,2.8,1.8c0.8,0.8,1.4,1.7,1.8,2.9c0.4,1.1,0.6,2.4,0.6,3.8c0,1.4-0.2,2.6-0.6,3.8c-0.4,1.1-1,2.1-1.8,2.9
	s-1.7,1.4-2.8,1.8s-2.3,0.6-3.7,0.6s-2.6-0.2-3.7-0.6c-1.1-0.4-2-1-2.8-1.8s-1.4-1.8-1.8-2.9C40.1,67.2,39.9,66,39.9,64.6z
	 M61.1,49.3h4.7v23.9H61V49.3H61.1z M73.8,64.6c0,0.7,0.1,1.4,0.2,2s0.4,1.2,0.7,1.8c0.3,0.5,0.8,0.9,1.3,1.2c0.5,0.3,1.2,0.5,2,0.5
	s1.5-0.2,2-0.5c0.6-0.3,1-0.7,1.3-1.2s0.6-1.1,0.7-1.8c0.1-0.7,0.2-1.4,0.2-2c0-0.7-0.1-1.4-0.2-2c-0.1-0.7-0.4-1.3-0.7-1.8
	c-0.3-0.5-0.7-0.9-1.3-1.2c-0.5-0.3-1.2-0.5-2-0.5s-1.5,0.2-2,0.5s-1,0.7-1.3,1.2s-0.5,1.1-0.7,1.8C73.9,63.2,73.8,63.9,73.8,64.6z
	 M69.1,64.6c0-1.4,0.2-2.6,0.6-3.8c0.4-1.1,1-2.1,1.8-2.9c0.8-0.8,1.7-1.4,2.8-1.8c1.1-0.4,2.3-0.7,3.7-0.7c1.4,0,2.6,0.2,3.7,0.7
	c1.1,0.4,2.1,1,2.9,1.8s1.4,1.7,1.8,2.9c0.4,1.1,0.6,2.4,0.6,3.8c0,1.4-0.2,2.6-0.6,3.8c-0.4,1.1-1,2.1-1.8,2.9
	c-0.8,0.7-1.8,1.3-2.9,1.7s-2.3,0.6-3.7,0.6c-1.4,0-2.6-0.2-3.7-0.6s-2-1-2.8-1.8s-1.4-1.8-1.8-2.9S69.1,66,69.1,64.6z M90.1,55.9
	h4.5v2.4h0.1c0.6-1,1.4-1.7,2.3-2.2c1-0.5,1.9-0.7,3-0.7c1.3,0,2.3,0.2,3.1,0.5c0.8,0.3,1.5,0.8,1.9,1.4c0.5,0.6,0.8,1.4,1,2.2
	c0.2,0.9,0.3,1.8,0.3,2.9v10.7h-4.8v-9.8c0-1.4-0.2-2.5-0.7-3.2c-0.4-0.7-1.2-1.1-2.4-1.1c-1.3,0-2.2,0.4-2.8,1.2
	c-0.6,0.8-0.9,2-0.9,3.8v9.1h-4.8V55.9H90.1z M119.1,61.2c0.1-1.1,0.3-2,0.8-2.8s1.1-1.3,1.9-1.8c0.8-0.4,1.6-0.8,2.5-0.9
	c1-0.2,1.9-0.3,2.9-0.3c0.9,0,1.8,0.1,2.6,0.2c0.9,0.1,1.7,0.3,2.4,0.7s1.3,0.9,1.8,1.5s0.7,1.5,0.7,2.5v9c0,0.8,0,1.5,0.1,2.2
	s0.2,1.3,0.5,1.6h-4.8c-0.1-0.3-0.2-0.5-0.2-0.8s-0.1-0.6-0.1-0.9c-0.8,0.8-1.7,1.3-2.7,1.6c-1,0.3-2.1,0.5-3.2,0.5
	c-0.8,0-1.6-0.1-2.3-0.3c-0.7-0.2-1.3-0.5-1.9-0.9c-0.5-0.4-1-1-1.3-1.6s-0.4-1.4-0.4-2.3c0-1,0.2-1.8,0.5-2.4
	c0.4-0.6,0.8-1.2,1.3-1.5c0.6-0.4,1.2-0.7,1.9-0.8c0.7-0.2,1.4-0.4,2.1-0.5s1.4-0.2,2.1-0.3c0.7-0.1,1.3-0.2,1.8-0.3s1-0.3,1.3-0.6
	s0.5-0.6,0.4-1.1c0-0.5-0.1-0.9-0.3-1.2s-0.4-0.5-0.7-0.7s-0.6-0.3-1-0.3c-0.4-0.1-0.7-0.1-1.2-0.1c-0.9,0-1.7,0.2-2.2,0.6
	c-0.5,0.4-0.9,1.1-0.9,2L119.1,61.2L119.1,61.2z M130.1,64.8c-0.2,0.2-0.5,0.3-0.8,0.4s-0.6,0.2-1,0.2c-0.3,0.1-0.7,0.1-1.1,0.2
	s-0.8,0.1-1.1,0.2c-0.4,0.1-0.7,0.2-1.1,0.3c-0.3,0.1-0.6,0.3-0.9,0.5c-0.2,0.2-0.4,0.4-0.6,0.7c-0.2,0.3-0.2,0.7-0.2,1.1
	s0.1,0.8,0.2,1.1c0.2,0.3,0.4,0.5,0.6,0.7c0.3,0.2,0.6,0.3,0.9,0.3c0.4,0.1,0.7,0.1,1.1,0.1c0.9,0,1.7-0.2,2.2-0.5s0.9-0.7,1.1-1.1
	c0.2-0.4,0.4-0.9,0.4-1.3c0.1-0.4,0.1-0.8,0.1-1.1v-1.8H130.1z M138.6,55.9h4.5v2.4h0.1c0.6-1,1.4-1.7,2.3-2.2c1-0.5,1.9-0.7,3-0.7
	c1.3,0,2.3,0.2,3.1,0.5s1.5,0.8,1.9,1.4c0.5,0.6,0.8,1.4,1,2.2c0.2,0.9,0.3,1.8,0.3,2.9v10.7H150v-9.8c0-1.4-0.2-2.5-0.7-3.2
	c-0.4-0.7-1.2-1.1-2.4-1.1c-1.3,0-2.2,0.4-2.8,1.2s-0.9,2-0.9,3.8v9.1h-4.8V55.9H138.6z M170.7,64.5c0-0.7-0.1-1.4-0.2-2
	c-0.1-0.7-0.4-1.3-0.7-1.7c-0.3-0.5-0.7-0.9-1.2-1.2s-1.2-0.5-1.9-0.5c-0.8,0-1.4,0.2-2,0.5c-0.5,0.3-1,0.7-1.3,1.2
	s-0.5,1.1-0.7,1.8c-0.1,0.6-0.2,1.3-0.2,2c0,0.7,0.1,1.3,0.2,2c0.2,0.7,0.4,1.3,0.7,1.8c0.4,0.5,0.8,0.9,1.3,1.3
	c0.5,0.3,1.2,0.5,1.9,0.5c0.8,0,1.4-0.2,1.9-0.5s1-0.7,1.3-1.2s0.5-1.1,0.7-1.8C170.7,65.9,170.7,65.2,170.7,64.5z M170.8,71
	L170.8,71c-0.6,0.9-1.4,1.6-2.3,2c-0.9,0.4-1.9,0.6-3.1,0.6c-1.3,0-2.4-0.2-3.4-0.7s-1.8-1.2-2.4-2c-0.6-0.9-1.1-1.9-1.4-3
	c-0.3-1.1-0.5-2.3-0.5-3.5c0-1.2,0.2-2.3,0.5-3.4c0.3-1.1,0.8-2.1,1.4-2.9c0.6-0.8,1.5-1.5,2.4-2c1-0.5,2.1-0.8,3.4-0.8
	c1,0,2,0.2,2.9,0.7c0.9,0.4,1.7,1.1,2.2,1.9h0.1v-8.7h4.8v23.9h-4.6V71z M192,67.6c0,0.5,0.1,1,0.3,1.3c0.2,0.4,0.5,0.7,0.8,0.9
	c0.3,0.2,0.7,0.4,1.1,0.5c0.4,0.1,0.9,0.2,1.4,0.2c0.3,0,0.7,0,1-0.1c0.4-0.1,0.7-0.2,1-0.4c0.3-0.2,0.6-0.4,0.8-0.7
	c0.2-0.3,0.3-0.6,0.3-1.1c0-0.7-0.5-1.3-1.4-1.6c-0.9-0.4-2.3-0.7-4-1.1c-0.7-0.2-1.4-0.3-2-0.5s-1.2-0.5-1.7-0.8
	c-0.5-0.4-0.9-0.8-1.2-1.3s-0.5-1.2-0.5-1.9c0-1.1,0.2-2,0.6-2.7c0.4-0.7,1-1.3,1.7-1.7s1.5-0.7,2.4-0.9s1.8-0.3,2.8-0.3
	c0.9,0,1.8,0.1,2.7,0.3s1.7,0.5,2.4,0.9s1.3,1,1.7,1.7c0.5,0.7,0.7,1.6,0.8,2.6h-4.5c-0.1-0.9-0.4-1.5-1-1.8s-1.4-0.5-2.2-0.5
	c-0.3,0-0.6,0-0.9,0.1c-0.3,0-0.6,0.1-0.9,0.2c-0.2,0.1-0.5,0.3-0.6,0.5c-0.2,0.2-0.3,0.5-0.3,0.8c0,0.4,0.2,0.8,0.5,1
	c0.3,0.3,0.7,0.5,1.2,0.7s1.1,0.3,1.7,0.4c0.6,0.1,1.3,0.3,2,0.4c0.7,0.2,1.4,0.3,2,0.6c0.7,0.2,1.3,0.5,1.8,0.9s0.9,0.8,1.2,1.4
	c0.3,0.5,0.5,1.2,0.5,2c0,1.1-0.2,2.1-0.7,2.9c-0.4,0.8-1,1.4-1.8,1.8c-0.7,0.5-1.6,0.8-2.5,1s-1.9,0.3-2.9,0.3s-2-0.1-3-0.3
	c-1-0.2-1.8-0.5-2.6-1c-0.7-0.5-1.4-1.1-1.8-1.8c-0.5-0.8-0.7-1.8-0.8-2.9C187.4,67.6,192,67.6,192,67.6z M217.9,62.7
	c-0.2-1.2-0.6-2.1-1.2-2.7c-0.6-0.6-1.4-0.9-2.6-0.9c-0.8,0-1.4,0.1-1.9,0.4c-0.5,0.2-0.9,0.6-1.2,0.9c-0.3,0.4-0.5,0.8-0.6,1.2
	s-0.2,0.8-0.2,1.1H217.9z M210.2,65.7c0.1,1.5,0.5,2.7,1.2,3.4s1.7,1,3.1,1c1,0,1.8-0.2,2.5-0.7s1.1-1,1.3-1.5h4.2
	c-0.7,2.1-1.7,3.6-3.1,4.5c-1.4,0.9-3.1,1.3-5,1.3c-1.4,0-2.6-0.2-3.7-0.6c-1.1-0.4-2-1.1-2.8-1.9s-1.4-1.8-1.8-2.9
	c-0.4-1.1-0.6-2.3-0.6-3.7c0-1.3,0.2-2.5,0.6-3.6c0.4-1.1,1-2.1,1.8-2.9c0.8-0.8,1.7-1.5,2.8-1.9c1.1-0.5,2.3-0.7,3.6-0.7
	c1.5,0,2.8,0.3,3.9,0.9c1.1,0.6,2,1.3,2.7,2.3s1.2,2.1,1.5,3.3s0.4,2.5,0.3,3.9h-12.5V65.7z M225.7,55.9h4.5v2.3h0.1
	c0.6-0.9,1.4-1.6,2.2-2.1c0.9-0.5,1.9-0.7,3.1-0.7c1.1,0,2.1,0.2,3,0.6c0.9,0.4,1.6,1.2,2.1,2.2c0.5-0.8,1.2-1.4,2.1-2
	c0.9-0.6,1.9-0.9,3.2-0.9c0.9,0,1.8,0.1,2.5,0.3c0.8,0.2,1.5,0.6,2,1.1c0.6,0.5,1,1.1,1.3,1.9c0.3,0.8,0.5,1.7,0.5,2.9v11.6h-4.8
	v-9.8c0-0.6,0-1.1-0.1-1.6c0-0.5-0.2-1-0.4-1.3s-0.5-0.7-0.9-0.9s-0.9-0.3-1.6-0.3c-0.7,0-1.2,0.1-1.6,0.4c-0.4,0.2-0.7,0.6-1,1
	c-0.2,0.4-0.4,0.9-0.5,1.4s-0.1,1-0.1,1.6v9.7h-4.8v-9.7c0-0.5,0-1,0-1.5s-0.1-1-0.3-1.4s-0.4-0.8-0.8-1c-0.4-0.3-1-0.4-1.7-0.4
	c-0.2,0-0.5,0.1-0.9,0.2c-0.4,0.1-0.7,0.3-1.1,0.6c-0.3,0.3-0.6,0.7-0.9,1.2c-0.2,0.5-0.4,1.2-0.4,2v10.1h-4.8V55.9H225.7z
	 M260.8,53.2H256v-3.9h4.8V53.2z M256.1,55.9h4.8v17.3h-4.8V55.9z M264.5,62h10.1v4.1h-10.1V62z M290,62c-0.3-2-1.5-3-3.5-3
	c-0.8,0-1.4,0.2-1.9,0.5s-0.9,0.8-1.3,1.3c-0.3,0.5-0.5,1.1-0.7,1.8c-0.1,0.6-0.2,1.3-0.2,1.9c0,0.6,0.1,1.3,0.2,1.9
	s0.3,1.2,0.6,1.8c0.3,0.5,0.7,0.9,1.2,1.3c0.5,0.3,1.1,0.5,1.9,0.5c1.1,0,2-0.3,2.6-0.9s1-1.5,1.2-2.6h4.6c-0.3,2.3-1.2,4.1-2.7,5.3
	c-1.5,1.2-3.4,1.8-5.7,1.8c-1.3,0-2.5-0.2-3.6-0.6s-2-1.1-2.8-1.8c-0.8-0.8-1.4-1.7-1.8-2.8c-0.4-1.1-0.6-2.3-0.6-3.6
	c0-1.3,0.2-2.6,0.6-3.7c0.4-1.2,1-2.2,1.7-3c0.8-0.9,1.7-1.5,2.8-2c1.1-0.5,2.3-0.7,3.8-0.7c1,0,2,0.1,3,0.4c1,0.3,1.8,0.7,2.5,1.2
	c0.8,0.5,1.4,1.2,1.8,2c0.5,0.8,0.7,1.8,0.8,2.9L290,62L290,62z M301.7,64.6c0,0.7,0.1,1.4,0.2,2s0.4,1.2,0.7,1.8
	c0.3,0.5,0.8,0.9,1.3,1.2c0.5,0.3,1.2,0.5,2,0.5s1.5-0.2,2-0.5c0.6-0.3,1-0.7,1.3-1.2s0.6-1.1,0.7-1.8c0.1-0.7,0.2-1.4,0.2-2
	c0-0.7-0.1-1.4-0.2-2c-0.1-0.7-0.4-1.3-0.7-1.8c-0.3-0.5-0.7-0.9-1.3-1.2c-0.5-0.3-1.2-0.5-2-0.5s-1.5,0.2-2,0.5s-1,0.7-1.3,1.2
	s-0.5,1.1-0.7,1.8C301.8,63.2,301.7,63.9,301.7,64.6z M296.9,64.6c0-1.4,0.2-2.6,0.6-3.8c0.4-1.1,1-2.1,1.8-2.9
	c0.8-0.8,1.7-1.4,2.8-1.8c1.1-0.4,2.3-0.7,3.7-0.7c1.4,0,2.6,0.2,3.7,0.7c1.1,0.4,2.1,1,2.8,1.8c0.8,0.8,1.4,1.7,1.8,2.9
	c0.4,1.1,0.6,2.4,0.6,3.8c0,1.4-0.2,2.6-0.6,3.8c-0.4,1.1-1,2.1-1.8,2.9s-1.7,1.4-2.8,1.8c-1.1,0.4-2.3,0.6-3.7,0.6
	c-1.4,0-2.6-0.2-3.7-0.6s-2-1-2.8-1.8s-1.4-1.8-1.8-2.9C297.2,67.2,296.9,66,296.9,64.6z M318.1,49.3h4.8v23.9h-4.8V49.3z
	 M330.8,64.6c0,0.7,0.1,1.4,0.2,2s0.4,1.2,0.7,1.8c0.3,0.5,0.8,0.9,1.3,1.2c0.5,0.3,1.2,0.5,2,0.5s1.5-0.2,2-0.5
	c0.6-0.3,1-0.7,1.3-1.2s0.6-1.1,0.7-1.8c0.1-0.7,0.2-1.4,0.2-2c0-0.7-0.1-1.4-0.2-2c-0.1-0.7-0.4-1.3-0.7-1.8
	c-0.3-0.5-0.7-0.9-1.3-1.2c-0.5-0.3-1.2-0.5-2-0.5s-1.5,0.2-2,0.5s-1,0.7-1.3,1.2s-0.5,1.1-0.7,1.8
	C330.9,63.2,330.8,63.9,330.8,64.6z M326.1,64.6c0-1.4,0.2-2.6,0.6-3.8c0.4-1.1,1-2.1,1.8-2.9c0.8-0.8,1.7-1.4,2.8-1.8
	c1.1-0.4,2.3-0.7,3.7-0.7c1.4,0,2.6,0.2,3.7,0.7c1.1,0.4,2.1,1,2.8,1.8c0.8,0.8,1.4,1.7,1.8,2.9c0.4,1.1,0.6,2.4,0.6,3.8
	c0,1.4-0.2,2.6-0.6,3.8c-0.4,1.1-1,2.1-1.8,2.9s-1.7,1.4-2.8,1.8c-1.1,0.4-2.3,0.6-3.7,0.6c-1.4,0-2.6-0.2-3.7-0.6s-2-1-2.8-1.8
	s-1.4-1.8-1.8-2.9C326.3,67.2,326.1,66,326.1,64.6z M347.1,55.9h4.5v2.4h0.1c0.6-1,1.4-1.7,2.3-2.2c1-0.5,1.9-0.7,2.9-0.7
	c1.3,0,2.3,0.2,3.1,0.5c0.8,0.3,1.5,0.8,1.9,1.4c0.5,0.6,0.8,1.4,1,2.2c0.2,0.9,0.3,1.8,0.3,2.9v10.7h-4.8v-9.8
	c0-1.4-0.2-2.5-0.7-3.2c-0.4-0.7-1.2-1.1-2.4-1.1c-1.3,0-2.2,0.4-2.8,1.2c-0.6,0.8-0.9,2-0.9,3.8v9.1h-4.8V55.9H347.1z"/>
<path d="M454.1,64.7c0,1.3,0.1,3,0.1,4.9c0.1,1.9,0.4,3.7,0.8,5.5c0.5,1.7,1.2,3.2,2.3,4.5c1,1.3,2.5,1.9,4.4,1.9
	c2,0,3.5-0.6,4.5-1.9c1.1-1.3,1.8-2.8,2.3-4.5c0.5-1.8,0.8-3.6,0.9-5.5c0.1-1.9,0.1-3.6,0.1-4.9c0-0.8,0-1.8-0.1-2.9
	c0-1.2-0.1-2.3-0.3-3.6c-0.1-1.2-0.3-2.4-0.7-3.6c-0.3-1.2-0.7-2.3-1.3-3.2s-1.3-1.7-2.2-2.3s-2-0.9-3.3-0.9s-2.4,0.3-3.3,0.9
	c-0.8,0.6-1.6,1.3-2.1,2.3c-0.5,0.9-1,2-1.3,3.2s-0.5,2.3-0.7,3.6c-0.1,1.2-0.2,2.4-0.3,3.6C454.1,62.9,454.1,63.9,454.1,64.7z
	 M444.6,64.7c0-4.6,0.5-8.4,1.3-11.5c0.9-3.1,2.2-5.6,3.8-7.5s3.4-3.2,5.4-4c2.1-0.8,4.3-1.2,6.6-1.2c2.4,0,4.6,0.4,6.6,1.2
	c2.1,0.8,3.9,2.1,5.5,4s2.9,4.4,3.8,7.5c0.9,3.1,1.4,6.9,1.4,11.5c0,4.7-0.5,8.6-1.4,11.8c-0.9,3.1-2.1,5.6-3.8,7.5
	c-1.6,1.9-3.4,3.2-5.5,4s-4.3,1.2-6.6,1.2s-4.5-0.4-6.6-1.2c-2.1-0.8-3.9-2.1-5.4-4c-1.6-1.9-2.8-4.4-3.8-7.5
	C445,73.3,444.6,69.4,444.6,64.7z M501.4,53.3h-0.2l-12.1,16.3h12.3V53.3z M501.4,77.5h-19.8v-8.7L502,41.4h8.5v28.2h6.2v7.8h-6.2
	v10.9h-9V77.5H501.4z"/>
<path class="st0" d="M209.3,396.8H53.9V244.3h155.5V396.8z M53.9,594.8h155.5v152.5H53.9V594.8z"/>
<path class="st0" d="M129.1,237.8c22.2,0,41.1,7.9,56.6,23.7c15.8,15.5,23.7,34.4,23.7,56.6s-7.9,41.3-23.7,57
	c-15.5,15.5-34.4,23.2-56.6,23.2s-41.3-7.7-57-23.2c-15.5-15.8-23.2-34.8-23.2-57c0-22.2,7.7-41.1,23.2-56.6
	C87.9,245.7,106.8,237.8,129.1,237.8z M128.6,553.9c22.6,0,41.5,7.9,57,23.7c15.8,15.8,23.7,34.8,23.7,57c0,22.2-7.9,41.3-23.7,57
	c-15.8,15.5-34.8,23.2-57,23.2s-41.3-7.7-57-23.2c-15.5-15.8-23.2-34.8-23.2-57s7.7-41.3,23.2-57
	C87.3,561.8,106.4,553.9,128.6,553.9z"/>
<path class="st0" d="M392.6,235.6c22.2,0,41.1,7.7,56.6,23.2c15.5,15.5,23.2,34.3,23.2,56.6c0,22.2-7.9,41.3-23.7,57
	c-15.5,15.5-34.2,23.2-56.1,23.2c-22.2,0-41.3-7.7-57-23.2c-15.5-15.8-23.2-34.8-23.2-57c0-22.2,7.7-41.1,23.2-56.6
	C351,243.4,370.1,235.6,392.6,235.6z M318.6,874.3V853c37.4-16.1,64.5-37,81.2-62.9c17.1-25.4,25.6-51.6,25.6-78.3
	c0-5.5-1.2-9.7-3.4-12.6c-2.2-2.6-4.5-3.9-6.7-3.9c-1.9,0-4.9,1.2-8.7,3.4c-9.4,5.5-21,8.2-34.8,8.2c-19,0-35.6-7.4-49.8-22.2
	c-13.8-14.8-20.8-32.2-20.8-52.2c0-21.3,8.1-40,24.2-56.1c16.1-16.1,35.6-24.2,58.5-24.2c27.7,0,51.4,10.8,71,32.4
	c19.7,21.3,29.5,50.6,29.5,88c0,46.1-14,87-42.1,122.8C414.7,831.3,373.4,857.6,318.6,874.3z"/>
<path class="st0" d="M331.6,567c2.9-10.6,6.3-17.4,10.2-20.3s10.5-4.3,19.8-4.3h100.1c4.2,0,7.6,1,10.2,2.9c2.9,1.9,4.3,4.3,4.3,7.3
	c0,1-0.4,2.7-1,5.3c-0.6,2.6-1.6,5-2.9,7.3L347.6,824.7c-2.6,5.1-5.5,8.9-8.7,11.2c-2.9,2.3-6.6,3.4-11.2,3.4
	c-2.6,0-4.7-0.2-6.3-0.4c-1.3,0-2.4-0.2-3.4-0.5l-31.9-11.6c-4.9-1.9-8.5-4.3-11.2-7.3c-2.2-2.9-3.4-6.1-3.4-9.7c0-1.3,0-2.7,0-4.3
	c0.4-1.6,1-4.2,1.9-7.7L331.6,567z M294.3,338.3c0-25.2,8.7-45.8,26.1-61.9c17.7-16.1,40.6-24.2,68.7-24.2
	c28.7,0,51.9,8.1,69.6,24.2c17.7,15.8,26.6,36.4,26.6,61.9c0,25.5-8.9,46.2-26.6,62.4c-17.7,15.8-40.9,23.7-69.6,23.7
	c-28.3,0-51.3-7.9-68.7-23.7C303.1,384.9,294.3,364,294.3,338.3z"/>
<path class="st0" d="M36.6,338.3c0-25.2,8.7-45.8,26.1-61.9c17.7-16.1,40.6-24.2,68.7-24.2c28.7,0,51.7,7.9,69.1,23.7
	s26.1,36.6,26.1,62.4s-8.9,46.6-26.6,62.4c-17.4,15.8-40.3,23.7-68.7,23.7s-51.3-7.9-68.7-23.7C45.3,384.9,36.6,364,36.6,338.3z
	 M36.6,605.6c0-25.2,8.7-45.8,26.1-61.9c17.7-16.1,40.6-24.2,68.7-24.2c28.7,0,51.7,7.9,69.1,23.7s26.1,36.6,26.1,62.4
	c0,25.8-8.9,46.6-26.6,62.4c-17.4,15.8-40.3,23.7-68.7,23.7s-51.3-7.9-68.7-23.7C45.3,652.2,36.6,631.4,36.6,605.6z"/>
<path class="st0" d="M470.6,397.2H315.1V244.8h155.5V397.2z M315.1,595.2h155.5v152.5c0,22.4-4.3,42.9-12.8,61.4
	c-7.9,19.1-18.8,35.6-32.7,49.5c-13.8,13.8-30.4,25.1-49.5,33.7c-18.5,9.2-38.3,15.5-59.4,18.8v-71.3c9.9-1.9,19.1-5.9,27.7-11.9
	c9.2-5.9,17.2-13.2,23.7-21.8c6.6-7.9,11.5-17.2,14.9-27.7c3.3-9.9,4.6-20.1,4-30.7h-71.3L315.1,595.2L315.1,595.2z"/>
</svg>
