<svg width="756" height="770" viewBox="0 0 756 770" fill="none" xmlns="http://www.w3.org/2000/svg">
<path d="M287.156 631.4H428.456V770H287.156V631.4ZM423.956 300.2L388.856 577.4H324.956L290.756 300.2V127.4H423.956V300.2Z" fill="#FF100F" fill-opacity="0.6"/>
<path d="M367.607 530.201H348.271C346.221 496.803 339.482 456.373 328.057 408.912L305.205 313.111C291.436 255.689 284.551 214.527 284.551 189.625C284.551 167.066 291.289 148.902 304.766 135.133C318.242 121.363 335.82 114.479 357.5 114.479C378.594 114.479 396.025 121.51 409.795 135.572C423.857 149.342 430.889 166.92 430.889 188.307C430.889 210.572 423.564 252.174 408.916 313.111L385.625 408.912C377.422 442.896 371.416 483.326 367.607 530.201ZM358.379 593.043C378.008 593.043 394.707 600.074 408.477 614.137C422.539 627.906 429.57 644.752 429.57 664.674C429.57 684.303 422.539 701.148 408.477 715.211C394.707 728.98 378.008 735.865 358.379 735.865C338.75 735.865 321.904 728.98 307.842 715.211C294.072 701.148 287.188 684.303 287.188 664.674C287.188 645.045 294.072 628.199 307.842 614.137C321.611 600.074 338.457 593.043 358.379 593.043Z" fill="#FF100F" fill-opacity="0.6"/>
<path d="M408.477 224.691L393.096 509.896C392.803 519.564 389.287 527.621 382.549 534.066C375.811 540.219 367.314 543.295 357.061 543.295C347.1 543.295 338.75 540.219 332.012 534.066C325.273 527.621 321.611 519.564 321.025 509.896L306.084 224.691V220.297C306.084 203.305 310.625 189.975 319.707 180.307C328.789 170.346 341.24 165.365 357.061 165.365C373.174 165.365 385.771 170.346 394.854 180.307C403.936 189.975 408.477 203.305 408.477 220.297V224.691ZM275.322 655.795C275.322 635.287 282.793 618.588 297.734 605.697C312.969 592.807 332.744 586.361 357.061 586.361C381.67 586.361 401.445 592.807 416.387 605.697C431.621 618.588 439.238 635.287 439.238 655.795C439.238 676.596 431.621 693.588 416.387 706.771C401.445 719.662 381.67 726.107 357.061 726.107C332.744 726.107 312.969 719.516 297.734 706.332C282.793 693.148 275.322 676.303 275.322 655.795Z" fill="#FF100F" fill-opacity="0.6"/>
</svg>
