<svg width="39" height="39" viewBox="0 0 39 39" fill="none" xmlns="http://www.w3.org/2000/svg">
<path d="M38 19.5C38 29.7173 29.7173 38 19.5 38C9.28273 38 1 29.7173 1 19.5C1 9.28273 9.28273 1 19.5 1C29.7173 1 38 9.28273 38 19.5Z" fill="white"/>
<path d="M20.3983 16.0544H18.6292V13.8899H20.3983V16.0544ZM18.6292 17.9899H20.3983V28.75H18.6292V17.9899Z" fill="black"/>
<path d="M19.5 38.5C29.9934 38.5 38.5 29.9934 38.5 19.5C38.5 9.00659 29.9934 0.5 19.5 0.5C9.00659 0.5 0.5 9.00659 0.5 19.5C0.5 29.9934 9.00659 38.5 19.5 38.5Z" stroke="black"/>
</svg>
