<svg width="362" height="780" viewBox="0 0 362 780" fill="none" xmlns="http://www.w3.org/2000/svg">
<path d="M86.0078 428.2H274.408V613H86.0078V428.2Z" fill="#DF4585" fill-opacity="0.6"/>
<path d="M181 424.531C208.344 424.531 231.391 434.102 250.141 453.242C269.281 472.383 278.852 495.43 278.852 522.383C278.852 549.336 269.281 572.383 250.141 591.523C231 610.273 207.953 619.648 181 619.648C154.047 619.648 131 610.273 111.859 591.523C93.1094 572.383 83.7344 549.336 83.7344 522.383C83.7344 495.43 93.1094 472.383 111.859 453.242C131 434.102 154.047 424.531 181 424.531Z" fill="#DF4585" fill-opacity="0.6"/>
<path d="M65.5703 513.906C65.5703 483.438 76.1172 458.438 97.2109 438.906C118.695 419.375 146.43 409.609 180.414 409.609C215.18 409.609 243.109 419.18 264.203 438.32C285.297 457.461 295.844 482.656 295.844 513.906C295.844 545.156 285.102 570.352 263.617 589.492C242.523 608.633 214.789 618.203 180.414 618.203C146.039 618.203 118.305 608.633 97.2109 589.492C76.1172 570.352 65.5703 545.156 65.5703 513.906Z" fill="#DF4585" fill-opacity="0.6"/>
</svg>
