<?xml version="1.0" encoding="utf-8"?>
<!-- Generator: Adobe Illustrator 28.2.0, SVG Export Plug-In . SVG Version: 6.00 Build 0)  -->
<svg version="1.1" id="Layer_1" xmlns="http://www.w3.org/2000/svg" xmlns:xlink="http://www.w3.org/1999/xlink" x="0px" y="0px"
	 viewBox="0 0 506 790" style="enable-background:new 0 0 506 790;" xml:space="preserve">
<style type="text/css">
	.st0{fill-opacity:0.6;}
</style>
<path class="st0" d="M324.3,326.8H183V188.2h141.3V326.8z M183,506.8h141.3v138.6H183V506.8z"/>
<path class="st0" d="M253.8,205.6c20.2,0,37.4,7.2,51.4,21.5c14.4,14.1,21.5,31.2,21.5,51.4c0,20.2-7.2,37.5-21.5,51.9
	c-14.1,14.1-31.2,21.1-51.4,21.1s-37.5-7-51.9-21.1c-14.1-14.4-21.1-31.6-21.1-51.9s7-37.4,21.1-51.4
	C216.3,212.8,233.5,205.6,253.8,205.6z M253.3,493c20.5,0,37.8,7.2,51.9,21.5c14.4,14.4,21.5,31.6,21.5,51.9
	c0,20.2-7.2,37.5-21.5,51.9c-14.4,14.1-31.7,21.1-51.9,21.1s-37.5-7-51.9-21.1c-14-14.4-21-31.6-21-51.9c0-20.2,7-37.5,21.1-51.9
	C215.8,500.2,233.1,493,253.3,493z"/>
<path class="st0" d="M166.7,297.3c0-22.9,7.9-41.6,23.7-56.2c16.1-14.6,36.9-22,62.4-22c26.1,0,47,7.2,62.8,21.5
	c15.8,14.4,23.7,33.3,23.7,56.7s-8.1,42.3-24.2,56.7c-15.8,14.4-36.6,21.5-62.4,21.5s-46.6-7.2-62.4-21.5
	C174.7,339.6,166.7,320.8,166.7,297.3z M166.7,540.3c0-22.9,7.9-41.6,23.7-56.2c16.1-14.6,36.9-22,62.4-22c26.1,0,47,7.2,62.8,21.5
	c15.8,14.4,23.7,33.3,23.7,56.7s-8.1,42.3-24.2,56.7c-15.8,14.4-36.6,21.5-62.4,21.5s-46.6-7.2-62.4-21.5
	C174.7,582.7,166.7,563.8,166.7,540.3z"/>
</svg>
