<?xml version="1.0" encoding="UTF-8"?>
<svg id="Layer_1" data-name="Layer 1" xmlns="http://www.w3.org/2000/svg" viewBox="0 0 722.25 605.7">
  <defs>
    <style>
      .cls-1 {
        stroke-width: 0px;
      }
    </style>
  </defs>
  <path class="cls-1" d="M109.86,4.45c20.21,0,37.35,7.03,51.42,21.09,14.06,14.06,21.09,31.2,21.09,51.42s-7.18,37.5-21.53,51.85-31.06,21.09-50.98,21.09-37.5-7.03-51.86-21.09c-14.06-14.35-21.09-31.64-21.09-51.85s7.03-37.35,21.09-51.42c14.06-14.06,31.35-21.09,51.86-21.09ZM42.63,584.96v-19.34c33.98-14.65,58.59-33.69,73.83-57.13,15.53-23.15,23.29-46.88,23.29-71.19,0-4.98-1.02-8.79-3.08-11.42-2.05-2.34-4.1-3.52-6.15-3.52-1.76,0-4.39,1.02-7.91,3.08-8.5,4.98-19.04,7.47-31.64,7.47-17.29,0-32.37-6.74-45.26-20.22-12.6-13.48-18.9-29.3-18.9-47.46,0-19.34,7.32-36.33,21.97-50.98,14.65-14.65,32.37-21.97,53.17-21.97,25.19,0,46.73,9.81,64.6,29.44,17.87,19.34,26.81,46,26.81,79.98,0,41.89-12.74,79.1-38.23,111.62-25.2,32.52-62.7,56.4-112.5,71.63Z"/>
  <path class="cls-1" d="M54.49,317.97c2.64-9.67,5.71-15.82,9.23-18.46,3.51-2.64,9.52-3.96,18.02-3.96h90.97c3.81,0,6.89.88,9.23,2.64,2.64,1.76,3.95,3.96,3.95,6.59,0,.88-.29,2.49-.88,4.83-.59,2.34-1.46,4.54-2.64,6.59l-113.38,235.99c-2.34,4.69-4.98,8.06-7.91,10.11-2.64,2.05-6.01,3.08-10.11,3.08-2.34,0-4.25-.15-5.71-.44-1.17,0-2.2-.15-3.08-.44l-29-10.55c-4.4-1.76-7.76-3.96-10.11-6.59-2.05-2.64-3.08-5.57-3.08-8.79v-3.96c.29-1.47.88-3.81,1.76-7.03l52.73-209.62ZM20.65,110.11c0-22.85,7.91-41.6,23.73-56.25,16.11-14.65,36.91-21.97,62.4-21.97s47.17,7.33,63.28,21.97c16.11,14.36,24.17,33.11,24.17,56.25s-8.06,42.04-24.17,56.69c-16.11,14.36-37.21,21.53-63.28,21.53s-46.58-7.18-62.4-21.53c-15.82-14.36-23.73-33.25-23.73-56.69Z"/>
  <path class="cls-1" d="M180.9,138.6H39.6V0h141.3v138.6ZM39.6,318.6h141.3v138.6c0,20.4-3.9,39-11.7,55.8-7.2,17.4-17.1,32.4-29.7,45-12.6,12.6-27.6,22.8-45,30.6-16.8,8.4-34.8,14.1-54,17.1v-64.8c9-1.8,17.4-5.4,25.2-10.8,8.4-5.4,15.6-12,21.6-19.8,6-7.2,10.5-15.6,13.5-25.2,3-9,4.2-18.3,3.6-27.9H39.6v-138.6Z"/>
  <path class="cls-1" d="M707.25,143.05h-141.3V4.45h141.3v138.6ZM565.95,323.05h141.3v138.6h-141.3v-138.6Z"/>
  <path class="cls-1" d="M636.75,21.85c20.2,0,37.4,7.2,51.4,21.5,14.4,14.1,21.5,31.2,21.5,51.4s-7.2,37.5-21.5,51.9c-14.1,14.1-31.2,21.1-51.4,21.1s-37.5-7-51.9-21.1c-14.1-14.4-21.1-31.6-21.1-51.9s7-37.4,21.1-51.4c14.4-14.3,31.6-21.5,51.9-21.5ZM636.25,309.25c20.5,0,37.8,7.2,51.9,21.5,14.4,14.4,21.5,31.6,21.5,51.9s-7.2,37.5-21.5,51.9c-14.4,14.1-31.7,21.1-51.9,21.1s-37.5-7-51.9-21.1c-14-14.4-21-31.6-21-51.9s7-37.5,21.1-51.9c14.3-14.3,31.6-21.5,51.8-21.5Z"/>
  <path class="cls-1" d="M549.65,113.55c0-22.9,7.9-41.6,23.7-56.2,16.1-14.6,36.9-22,62.4-22s47,7.2,62.8,21.5c15.8,14.4,23.7,33.3,23.7,56.7s-8.1,42.3-24.2,56.7c-15.8,14.4-36.6,21.5-62.4,21.5s-46.6-7.2-62.4-21.5c-15.6-14.4-23.6-33.2-23.6-56.7ZM549.65,356.55c0-22.9,7.9-41.6,23.7-56.2,16.1-14.6,36.9-22,62.4-22s47,7.2,62.8,21.5c15.8,14.4,23.7,33.3,23.7,56.7s-8.1,42.3-24.2,56.7c-15.8,14.4-36.6,21.5-62.4,21.5s-46.6-7.2-62.4-21.5c-15.6-14.3-23.6-33.2-23.6-56.7Z"/>
</svg>