<?xml version="1.0" encoding="UTF-8"?>
<svg id="Layer_1" data-name="Layer 1" xmlns="http://www.w3.org/2000/svg" viewBox="0 0 172.7 457.2">
  <defs>
    <style>
      .cls-1 {
        stroke-width: 0px;
      }
    </style>
  </defs>
  <path class="cls-1" d="M157.53,138.6H16.23V0h141.3v138.6ZM16.23,318.6h141.3v138.6H16.23v-138.6Z"/>
  <path class="cls-1" d="M87.01,17.45c20.22,0,37.35,7.18,51.42,21.53,14.35,14.06,21.53,31.2,21.53,51.42s-7.18,37.5-21.53,51.86c-14.06,14.06-31.2,21.09-51.42,21.09s-37.5-7.03-51.86-21.09c-14.06-14.36-21.09-31.64-21.09-51.86s7.03-37.35,21.09-51.42c14.36-14.36,31.64-21.53,51.86-21.53ZM86.57,304.85c20.51,0,37.79,7.18,51.86,21.53,14.35,14.35,21.53,31.64,21.53,51.85s-7.18,37.5-21.53,51.86c-14.36,14.06-31.64,21.09-51.86,21.09s-37.5-7.03-51.86-21.09c-14.06-14.36-21.09-31.64-21.09-51.86s7.03-37.5,21.09-51.85c14.36-14.36,31.64-21.53,51.86-21.53Z"/>
  <path class="cls-1" d="M0,109.11c0-22.85,7.91-41.6,23.73-56.25,16.11-14.65,36.91-21.97,62.4-21.97s47.02,7.18,62.84,21.53c15.82,14.35,23.73,33.25,23.73,56.69s-8.06,42.33-24.17,56.69c-15.82,14.36-36.62,21.53-62.4,21.53s-46.58-7.18-62.4-21.53C7.91,151.45,0,132.55,0,109.11ZM0,352.13c0-22.85,7.91-41.6,23.73-56.25,16.11-14.65,36.91-21.97,62.4-21.97s47.02,7.18,62.84,21.53c15.82,14.36,23.73,33.25,23.73,56.69s-8.06,42.33-24.17,56.69c-15.82,14.36-36.62,21.53-62.4,21.53s-46.58-7.18-62.4-21.53c-15.82-14.36-23.73-33.25-23.73-56.69Z"/>
</svg>