<?xml version="1.0" encoding="utf-8"?>
<!-- Generator: Adobe Illustrator 28.2.0, SVG Export Plug-In . SVG Version: 6.00 Build 0)  -->
<svg version="1.1" id="Layer_1" xmlns="http://www.w3.org/2000/svg" xmlns:xlink="http://www.w3.org/1999/xlink" x="0px" y="0px"
	 viewBox="0 0 224 494" style="enable-background:new 0 0 224 494;" xml:space="preserve">
<style type="text/css">
	.st0{fill-opacity:0.6;}
</style>
<path class="st0" d="M180.9,175.4H39.6V36.8h141.3V175.4z M39.6,355.4h141.3V494H39.6V355.4z"/>
<path class="st0" d="M110.4,54.2c20.2,0,37.4,7.2,51.4,21.5c14.4,14.1,21.5,31.2,21.5,51.4s-7.2,37.5-21.5,51.9
	c-14.1,14.1-31.2,21.1-51.4,21.1s-37.5-7-51.9-21.1c-14.1-14.4-21.1-31.6-21.1-51.9s7-37.4,21.1-51.4
	C72.9,61.4,90.1,54.2,110.4,54.2z M109.9,341.6c20.5,0,37.8,7.2,51.9,21.5c14.4,14.4,21.5,31.6,21.5,51.9c0,20.2-7.2,37.5-21.5,51.9
	C147.4,481,130.1,488,109.9,488s-37.5-7-51.9-21.1C44,452.5,37,435.3,37,415c0-20.2,7-37.5,21.1-51.9
	C72.4,348.8,89.7,341.6,109.9,341.6z"/>
<path class="st0" d="M23.3,145.9c0-22.9,7.9-41.6,23.7-56.2c16.1-14.6,36.9-22,62.4-22c26.1,0,47,7.2,62.8,21.5
	c15.8,14.4,23.7,33.3,23.7,56.7c0,23.4-8.1,42.3-24.2,56.7c-15.8,14.4-36.6,21.5-62.4,21.5s-46.6-7.2-62.4-21.5
	C31.3,188.2,23.3,169.4,23.3,145.9z M23.3,388.9c0-22.9,7.9-41.6,23.7-56.2c16.1-14.6,36.9-22,62.4-22c26.1,0,47,7.2,62.8,21.5
	c15.8,14.4,23.7,33.3,23.7,56.7c0,23.4-8.1,42.3-24.2,56.7c-15.8,14.4-36.6,21.5-62.4,21.5s-46.6-7.2-62.4-21.5
	C31.3,431.3,23.3,412.4,23.3,388.9z"/>
</svg>
