<svg width="449" height="644" viewBox="0 0 449 644" fill="none" xmlns="http://www.w3.org/2000/svg">
<path d="M266.873 325.4H125.573V186.8H266.873V325.4ZM125.573 505.4H266.873V644H125.573V505.4Z" fill="black" fill-opacity="0.6"/>
<path d="M196.357 204.246C216.572 204.246 233.71 211.424 247.773 225.779C262.128 239.842 269.306 256.98 269.306 277.195C269.306 297.41 262.128 314.695 247.773 329.051C233.71 343.113 216.572 350.145 196.357 350.145C176.142 350.145 158.857 343.113 144.501 329.051C130.439 314.695 123.408 297.41 123.408 277.195C123.408 256.98 130.439 239.842 144.501 225.779C158.857 211.424 176.142 204.246 196.357 204.246ZM195.917 491.648C216.425 491.648 233.71 498.826 247.773 513.182C262.128 527.537 269.306 544.822 269.306 565.037C269.306 585.252 262.128 602.537 247.773 616.893C233.417 630.955 216.132 637.986 195.917 637.986C175.702 637.986 158.417 630.955 144.062 616.893C129.999 602.537 122.968 585.252 122.968 565.037C122.968 544.822 129.999 527.537 144.062 513.182C158.417 498.826 175.702 491.648 195.917 491.648Z" fill="black" fill-opacity="0.6"/>
<path d="M109.345 295.912C109.345 273.061 117.255 254.311 133.076 239.662C149.189 225.014 169.99 217.689 195.478 217.689C221.552 217.689 242.499 224.867 258.32 239.223C274.14 253.578 282.05 272.475 282.05 295.912C282.05 319.35 273.993 338.246 257.88 352.602C242.06 366.957 221.259 374.135 195.478 374.135C169.697 374.135 148.896 366.957 133.076 352.602C117.255 338.246 109.345 319.35 109.345 295.912ZM109.345 538.93C109.345 516.078 117.255 497.328 133.076 482.68C149.189 468.031 169.99 460.707 195.478 460.707C221.552 460.707 242.499 467.885 258.32 482.24C274.14 496.596 282.05 515.492 282.05 538.93C282.05 562.367 273.993 581.264 257.88 595.619C242.06 609.975 221.259 617.152 195.478 617.152C169.697 617.152 148.896 609.975 133.076 595.619C117.255 581.264 109.345 562.367 109.345 538.93Z" fill="black" fill-opacity="0.6"/>
</svg>
