<?xml version="1.0" encoding="utf-8"?>
<!-- Generator: Adobe Illustrator 28.2.0, SVG Export Plug-In . SVG Version: 6.00 Build 0)  -->
<svg version="1.1" id="Layer_1" xmlns="http://www.w3.org/2000/svg" xmlns:xlink="http://www.w3.org/1999/xlink" x="0px" y="0px"
	 viewBox="0 0 506 790" style="enable-background:new 0 0 506 790;" xml:space="preserve">
<style type="text/css">
	.st0{fill-opacity:0.6;}
</style>
<path class="st0" d="M265.8,188.2c20.2,0,37.4,7,51.4,21.1c14.1,14.1,21.1,31.2,21.1,51.4s-7.2,37.5-21.5,51.9
	c-14.1,14.1-31.1,21.1-51,21.1c-20.2,0-37.5-7-51.9-21.1c-14-14.3-21-31.6-21-51.8s7-37.4,21.1-51.4
	C228,195.3,245.2,188.2,265.8,188.2z M198.6,768.8v-19.3c34-14.6,58.6-33.7,73.8-57.1c15.5-23.1,23.3-46.9,23.3-71.2
	c0-5-1-8.8-3.1-11.4c-2.1-2.3-4.1-3.5-6.2-3.5c-1.8,0-4.4,1-7.9,3.1c-8.5,5-19,7.5-31.6,7.5c-17.3,0-32.4-6.7-45.3-20.2
	c-12.6-13.5-18.9-29.3-18.9-47.5c0-19.3,7.3-36.3,22-51c14.6-14.6,32.4-22,53.2-22c25.2,0,46.7,9.8,64.6,29.4
	c17.9,19.3,26.8,46,26.8,80c0,41.9-12.7,79.1-38.2,111.6C285.9,729.7,248.4,753.5,198.6,768.8z"/>
<path class="st0" d="M210.4,501.8c2.6-9.7,5.7-15.8,9.2-18.5c3.5-2.6,9.5-4,18-4h91c3.8,0,6.9,0.9,9.2,2.6c2.6,1.8,4,4,4,6.6
	c0,0.9-0.3,2.5-0.9,4.8c-0.6,2.3-1.5,4.5-2.6,6.6L224.9,736c-2.3,4.7-5,8.1-7.9,10.1c-2.6,2.1-6,3.1-10.1,3.1
	c-2.3,0-4.2-0.1-5.7-0.4c-1.2,0-2.2-0.1-3.1-0.4l-29-10.5c-4.4-1.8-7.8-4-10.1-6.6c-2.1-2.6-3.1-5.6-3.1-8.8c0-1.2,0-2.5,0-4
	c0.3-1.5,0.9-3.8,1.8-7L210.4,501.8z M176.6,293.9c0-22.9,7.9-41.6,23.7-56.2c16.1-14.6,36.9-22,62.4-22c26.1,0,47.2,7.3,63.3,22
	c16.1,14.4,24.2,33.1,24.2,56.2s-8.1,42-24.2,56.7c-16.1,14.4-37.2,21.5-63.3,21.5c-25.8,0-46.6-7.2-62.4-21.5
	C184.5,336.2,176.6,317.4,176.6,293.9z"/>
<path class="st0" d="M336.9,322.4H195.6V183.8h141.3V322.4z M195.6,502.4h141.3V641c0,20.4-3.9,39-11.7,55.8
	c-7.2,17.4-17.1,32.4-29.7,45c-12.6,12.6-27.6,22.8-45,30.6c-16.8,8.4-34.8,14.1-54,17.1v-64.8c9-1.8,17.4-5.4,25.2-10.8
	c8.4-5.4,15.6-12,21.6-19.8c6-7.2,10.5-15.6,13.5-25.2c3-9,4.2-18.3,3.6-27.9h-64.8V502.4z"/>
</svg>
