<svg width="506" height="790" viewBox="0 0 506 790" fill="none" xmlns="http://www.w3.org/2000/svg">
<path d="M252.917 188.246C273.132 188.246 290.271 195.277 304.333 209.34C318.396 223.402 325.427 240.541 325.427 260.756C325.427 280.971 318.249 298.256 303.894 312.611C289.831 326.674 272.839 333.705 252.917 333.705C232.702 333.705 215.417 326.674 201.062 312.611C186.999 298.256 179.968 280.971 179.968 260.756C179.968 240.541 186.999 223.402 201.062 209.34C215.124 195.277 232.41 188.246 252.917 188.246ZM185.681 768.764V749.428C219.665 734.779 244.275 715.736 259.509 692.299C275.036 669.154 282.8 645.424 282.8 621.107C282.8 616.127 281.775 612.318 279.724 609.682C277.673 607.338 275.622 606.166 273.572 606.166C271.814 606.166 269.177 607.191 265.661 609.242C257.165 614.223 246.618 616.713 234.021 616.713C216.736 616.713 201.648 609.975 188.757 596.498C176.16 583.021 169.861 567.201 169.861 549.037C169.861 529.701 177.185 512.709 191.833 498.061C206.482 483.412 224.206 476.088 245.007 476.088C270.202 476.088 291.736 485.902 309.607 505.531C327.478 524.867 336.413 551.527 336.413 585.512C336.413 627.406 323.669 664.613 298.181 697.133C272.986 729.652 235.486 753.529 185.681 768.764Z" fill="black" fill-opacity="0.6"/>
<path d="M197.546 501.773C200.183 492.105 203.259 485.953 206.775 483.316C210.29 480.68 216.296 479.361 224.792 479.361H315.759C319.568 479.361 322.644 480.24 324.988 481.998C327.624 483.756 328.943 485.953 328.943 488.59C328.943 489.469 328.65 491.08 328.064 493.424C327.478 495.768 326.599 497.965 325.427 500.016L212.048 736.002C209.704 740.689 207.068 744.059 204.138 746.109C201.501 748.16 198.132 749.186 194.031 749.186C191.687 749.186 189.783 749.039 188.318 748.746C187.146 748.746 186.12 748.6 185.242 748.307L156.238 737.76C151.843 736.002 148.474 733.805 146.13 731.168C144.079 728.531 143.054 725.602 143.054 722.379C143.054 721.207 143.054 719.889 143.054 718.424C143.347 716.959 143.933 714.615 144.812 711.393L197.546 501.773ZM163.708 293.912C163.708 271.061 171.618 252.311 187.439 237.662C203.552 223.014 224.353 215.689 249.841 215.689C275.915 215.689 297.009 223.014 313.122 237.662C329.236 252.018 337.292 270.768 337.292 293.912C337.292 317.057 329.236 335.953 313.122 350.602C297.009 364.957 275.915 372.135 249.841 372.135C224.06 372.135 203.259 364.957 187.439 350.602C171.618 336.246 163.708 317.35 163.708 293.912Z" fill="black" fill-opacity="0.6"/>
<path d="M323.956 322.4H182.656V183.8H323.956V322.4ZM182.656 502.4H323.956V641C323.956 661.4 320.056 680 312.256 696.8C305.056 714.2 295.156 729.2 282.556 741.8C269.956 754.4 254.956 764.6 237.556 772.4C220.756 780.8 202.756 786.5 183.556 789.5V724.7C192.556 722.9 200.956 719.3 208.756 713.9C217.156 708.5 224.356 701.9 230.356 694.1C236.356 686.9 240.856 678.5 243.856 668.9C246.856 659.9 248.056 650.6 247.456 641H182.656V502.4Z" fill="black" fill-opacity="0.6"/>
</svg>
