<svg width="756" height="982" viewBox="0 0 756 982" fill="none" xmlns="http://www.w3.org/2000/svg">
<path d="M414.451 655.4V794H273.151V655.4H414.451ZM128.251 358.4C128.851 326 134.251 296.3 144.451 269.3C155.251 242.3 169.951 218.9 188.551 199.1C207.751 179.3 230.551 164 256.951 153.2C283.951 141.8 313.951 136.1 346.951 136.1C389.551 136.1 424.951 142.1 453.151 154.1C481.951 165.5 505.051 179.9 522.451 197.3C539.851 214.7 552.151 233.6 559.351 254C567.151 273.8 571.051 292.4 571.051 309.8C571.051 338.6 567.151 362.3 559.351 380.9C552.151 399.5 542.851 415.4 531.451 428.6C520.651 441.8 508.351 453.2 494.551 462.8C481.351 471.8 468.751 481.1 456.751 490.7C444.751 499.7 433.951 510.2 424.351 522.2C415.351 534.2 409.651 549.2 407.251 567.2V601.4H285.751V560.9C287.551 535.1 292.351 513.5 300.151 496.1C308.551 478.7 318.151 464 328.951 452C339.751 439.4 351.151 428.6 363.151 419.6C375.151 410.6 386.251 401.6 396.451 392.6C406.651 383.6 414.751 373.7 420.751 362.9C427.351 352.1 430.351 338.6 429.751 322.4C429.751 294.8 422.851 274.4 409.051 261.2C395.851 248 377.251 241.4 353.251 241.4C337.051 241.4 322.951 244.7 310.951 251.3C299.551 257.3 289.951 265.7 282.151 276.5C274.951 286.7 269.551 299 265.951 313.4C262.351 327.2 260.551 342.2 260.551 358.4H128.251Z" fill="#FFCC19" fill-opacity="0.6"/>
<path d="M346.074 582.762H328.057C327.471 550.242 328.936 525.926 332.451 509.812C336.26 493.699 345.781 471.58 361.016 443.455C376.543 415.037 386.65 392.332 391.338 375.34C396.318 358.055 398.809 336.814 398.809 311.619C398.809 272.654 391.191 243.943 375.957 225.486C360.723 207.029 342.705 197.801 321.904 197.801C306.084 197.801 292.754 202.049 281.914 210.545C273.711 216.99 269.609 223.729 269.609 230.76C269.609 235.447 272.393 242.771 277.959 252.732C290.557 275.291 296.855 294.48 296.855 310.301C296.855 324.656 291.875 336.668 281.914 346.336C272.246 356.004 260.088 360.838 245.439 360.838C229.033 360.838 215.264 355.125 204.131 343.699C192.998 331.98 187.432 316.6 187.432 297.557C187.432 262.986 202.373 232.664 232.256 206.59C262.139 180.516 303.887 167.479 357.5 167.479C414.336 167.479 457.549 181.102 487.139 208.348C517.021 235.301 531.963 267.967 531.963 306.346C531.963 334.178 524.346 359.959 509.111 383.689C493.877 407.127 464.434 433.201 420.781 461.912C391.484 481.248 372.148 498.533 362.773 513.768C353.691 528.709 348.125 551.707 346.074 582.762ZM341.24 646.922C360.869 646.922 377.568 653.807 391.338 667.576C405.107 681.346 411.992 698.045 411.992 717.674C411.992 737.303 405.107 754.148 391.338 768.211C377.568 781.98 360.869 788.865 341.24 788.865C321.611 788.865 304.912 781.98 291.143 768.211C277.373 754.148 270.488 737.303 270.488 717.674C270.488 698.045 277.373 681.346 291.143 667.576C304.912 653.807 321.611 646.922 341.24 646.922Z" fill="#FFCC19" fill-opacity="0.6"/>
<path d="M248.516 655.795C248.516 636.459 255.84 620.639 270.488 608.334C285.43 596.029 305.059 589.877 329.375 589.877C353.984 589.877 373.76 596.029 388.701 608.334C403.643 620.346 411.113 636.166 411.113 655.795C411.113 675.424 403.496 691.391 388.262 703.695C373.32 716 353.691 722.152 329.375 722.152C305.352 722.152 285.869 716 270.928 703.695C255.986 691.098 248.516 675.131 248.516 655.795ZM296.855 489.242C296.855 473.422 299.492 460.971 304.766 451.889C310.332 442.807 319.707 434.896 332.891 428.158C340.801 424.057 352.52 418.344 368.047 411.02C425.762 384.359 454.619 353.158 454.619 317.416C454.619 290.463 445.098 268.637 426.055 251.938C407.012 234.945 381.963 226.449 350.908 226.449C330.4 226.449 311.504 229.232 294.219 234.799C276.934 240.072 266.387 245.932 262.578 252.377C261.699 254.135 260.82 258.383 259.941 265.121C257.598 291.488 247.197 304.672 228.74 304.672C219.072 304.672 211.309 301.156 205.449 294.125C199.883 287.094 197.1 277.719 197.1 266V222.934C197.1 206.82 212.92 193.197 244.561 182.064C276.201 170.932 314.727 165.365 360.137 165.365C409.062 165.365 448.76 179.574 479.229 207.992C509.99 236.41 525.371 273.178 525.371 318.295C525.371 354.33 512.92 384.799 488.018 409.701C463.115 434.311 421.367 457.455 362.773 479.135V514.291C362.773 523.959 359.697 531.869 353.545 538.021C347.393 543.881 339.336 546.811 329.375 546.811C319.121 546.811 311.064 544.027 305.205 538.461C299.639 532.895 296.855 525.131 296.855 515.17V489.242Z" fill="#FFCC19" fill-opacity="0.6"/>
</svg>
