<svg width="381" height="582" viewBox="0 0 381 582" fill="none" xmlns="http://www.w3.org/2000/svg">
<path d="M109.608 196.2H280.008V379.8C280.808 406.2 276.808 431 268.008 454.2C260.008 477.4 248.408 497.8 233.208 515.4C218.008 533 199.608 547.8 178.008 559.8C157.208 571 134.408 578.2 109.608 581.4V502.2C140.008 491.8 160.808 476.6 172.008 456.6C183.208 435.8 188.808 410.6 188.808 381H109.608V196.2Z" fill="#136CBC" fill-opacity="0.6"/>
<path d="M91.3516 568.539V542.758C136.664 523.227 169.477 498.031 189.789 467.172C210.492 435.922 220.844 403.891 220.844 371.078C220.844 364.828 219.477 359.945 216.742 356.43C214.008 353.305 211.273 351.742 208.539 351.742C206.195 351.742 202.68 353.109 197.992 355.844C186.664 362.484 172.602 365.805 155.805 365.805C132.758 365.805 112.641 356.82 95.4531 338.852C78.6562 320.883 70.2578 299.789 70.2578 275.57C70.2578 249.789 80.0234 227.133 99.5547 207.602C119.086 188.07 142.719 178.305 170.453 178.305C204.047 178.305 232.758 191.391 256.586 217.562C280.414 243.344 292.328 278.891 292.328 324.203C292.328 380.062 275.336 429.672 241.352 473.031C207.758 516.391 157.758 548.227 91.3516 568.539Z" fill="#136CBC" fill-opacity="0.6"/>
<path d="M161.328 231.445C164.062 220.508 167.383 213.477 171.289 210.352C175.586 206.836 182.617 205.078 192.383 205.078H296.68C301.367 205.078 305.078 206.25 307.812 208.594C310.938 210.547 312.5 213.086 312.5 216.211C312.5 218.555 312.109 220.898 311.328 223.242C310.938 225.195 310.156 227.148 308.984 229.102L176.562 502.734C174.609 507.812 171.875 511.719 168.359 514.453C164.844 517.188 160.938 518.555 156.641 518.555C153.906 518.555 151.953 518.555 150.781 518.555C149.609 518.164 148.242 517.773 146.68 517.383L113.281 503.906C107.813 502.344 103.516 500.195 100.391 497.461C97.6562 494.336 96.2891 490.82 96.2891 486.914C96.2891 484.57 97.0703 481.055 98.6328 476.367C98.6328 475.195 98.6328 474.414 98.6328 474.023L161.328 231.445Z" fill="#136CBC" fill-opacity="0.6"/>
</svg>
