<svg width="372" height="935" viewBox="0 0 372 935" fill="none" xmlns="http://www.w3.org/2000/svg">
<path d="M90.7656 807.352V781.57C136.078 762.039 168.891 736.648 189.203 705.398C209.906 674.539 220.258 642.898 220.258 610.477C220.258 603.836 218.891 598.758 216.156 595.242C213.422 592.117 210.688 590.555 207.953 590.555C205.609 590.555 202.094 591.922 197.406 594.656C186.078 601.297 172.016 604.617 155.219 604.617C132.172 604.617 112.055 595.633 94.8672 577.664C78.0703 559.695 69.6719 538.602 69.6719 514.383C69.6719 488.602 79.4375 465.945 98.9688 446.414C118.5 426.883 142.133 417.117 169.867 417.117C203.461 417.117 232.172 430.203 256 456.375C279.828 482.156 291.742 517.703 291.742 563.016C291.742 618.875 274.75 668.484 240.766 711.844C207.172 755.203 157.172 787.039 90.7656 807.352Z" fill="#3B8D50" fill-opacity="0.6"/>
<path d="M121.273 468.523C124.398 455.242 128.5 446.844 133.578 443.328C138.656 439.422 147.25 437.469 159.359 437.469H287.68C293.539 437.469 298.227 438.641 301.742 440.984C305.258 443.328 307.016 446.258 307.016 449.773C307.016 451.727 306.625 454.266 305.844 457.391C305.062 460.516 303.891 463.445 302.328 466.18L141.195 801.336C138.461 807.195 134.75 811.883 130.062 815.398C125.375 818.914 120.297 820.672 114.828 820.672C113.656 820.672 112.289 820.477 110.727 820.086C109.555 819.695 107.406 818.914 104.281 817.742L63.2656 802.508C57.0156 799.773 52.3281 796.648 49.2031 793.133C46.0781 789.617 44.5156 785.516 44.5156 780.828C44.5156 776.531 44.5156 773.406 44.5156 771.453C44.5156 769.891 44.9063 768.133 45.6875 766.18L121.273 468.523Z" fill="#3B8D50" fill-opacity="0.6"/>
<path d="M87.2078 421.2H275.608V606C275.608 633.2 270.408 658 260.008 680.4C250.408 703.6 237.208 723.6 220.408 740.4C203.608 757.2 183.608 770.8 160.408 781.2C138.008 792.4 114.008 800 88.4078 804V717.6C100.408 715.2 111.608 710.4 122.008 703.2C133.208 696 142.808 687.2 150.808 676.8C158.808 667.2 164.808 656 168.808 643.2C172.808 631.2 174.408 618.8 173.608 606H87.2078V421.2Z" fill="#3B8D50" fill-opacity="0.6"/>
</svg>
